<svg width="161" height="11" viewBox="0 0 161 11" fill="none" xmlns="http://www.w3.org/2000/svg">
<path d="M0.144107 5.114C0.144107 4.162 0.358773 3.308 0.788107 2.552C1.21744 1.78667 1.80077 1.18933 2.53811 0.76C3.28477 0.330666 4.11077 0.116 5.01611 0.116C6.08011 0.116 7.00877 0.372666 7.80211 0.886C8.59544 1.39933 9.17411 2.12733 9.53811 3.07H8.01211C7.74144 2.482 7.34944 2.02933 6.83611 1.712C6.33211 1.39467 5.72544 1.236 5.01611 1.236C4.33477 1.236 3.72344 1.39467 3.18211 1.712C2.64077 2.02933 2.21611 2.482 1.90811 3.07C1.60011 3.64867 1.44611 4.33 1.44611 5.114C1.44611 5.88867 1.60011 6.57 1.90811 7.158C2.21611 7.73667 2.64077 8.18467 3.18211 8.502C3.72344 8.81933 4.33477 8.978 5.01611 8.978C5.72544 8.978 6.33211 8.824 6.83611 8.516C7.34944 8.19867 7.74144 7.746 8.01211 7.158H9.53811C9.17411 8.09133 8.59544 8.81467 7.80211 9.328C7.00877 9.832 6.08011 10.084 5.01611 10.084C4.11077 10.084 3.28477 9.874 2.53811 9.454C1.80077 9.02467 1.21744 8.432 0.788107 7.676C0.358773 6.92 0.144107 6.066 0.144107 5.114ZM19.2326 10L16.9086 6.01H15.3686V10H14.0946V0.242H17.2446C17.9819 0.242 18.6026 0.368 19.1066 0.62C19.6199 0.872 20.0026 1.21267 20.2546 1.642C20.5066 2.07133 20.6326 2.56133 20.6326 3.112C20.6326 3.784 20.4366 4.37667 20.0446 4.89C19.6619 5.40333 19.0832 5.744 18.3086 5.912L20.7586 10H19.2326ZM15.3686 4.988H17.2446C17.9352 4.988 18.4532 4.82 18.7986 4.484C19.1439 4.13867 19.3166 3.68133 19.3166 3.112C19.3166 2.53333 19.1439 2.08533 18.7986 1.768C18.4626 1.45067 17.9446 1.292 17.2446 1.292H15.3686V4.988ZM26.5461 1.278V4.54H30.1021V5.59H26.5461V8.95H30.5221V10H25.2721V0.228H30.5221V1.278H26.5461ZM40.8779 7.83H36.6219L35.8379 10H34.4939L38.0219 0.298H39.4919L43.0059 10H41.6619L40.8779 7.83ZM40.5139 6.794L38.7499 1.866L36.9859 6.794H40.5139ZM53.2095 0.242V1.278H50.5495V10H49.2755V1.278H46.6015V0.242H53.2095ZM58.7117 0.242V10H57.4377V0.242H58.7117ZM71.607 0.242L67.925 10H66.455L62.773 0.242H64.131L67.197 8.656L70.263 0.242H71.607ZM76.9379 1.278V4.54H80.4939V5.59H76.9379V8.95H80.9139V10H75.6639V0.228H80.9139V1.278H76.9379ZM97.6621 7.83H93.4061L92.6221 10H91.2781L94.8061 0.298H96.2761L99.7901 10H98.4461L97.6621 7.83ZM97.2981 6.794L95.5341 1.866L93.7701 6.794H97.2981ZM111.38 3.07C111.109 2.50067 110.717 2.062 110.204 1.754C109.69 1.43667 109.093 1.278 108.412 1.278C107.73 1.278 107.114 1.43667 106.564 1.754C106.022 2.062 105.593 2.51 105.276 3.098C104.968 3.67667 104.814 4.34867 104.814 5.114C104.814 5.87933 104.968 6.55133 105.276 7.13C105.593 7.70867 106.022 8.15667 106.564 8.474C107.114 8.782 107.73 8.936 108.412 8.936C109.364 8.936 110.148 8.65133 110.764 8.082C111.38 7.51267 111.739 6.74267 111.842 5.772H107.95V4.736H113.2V5.716C113.125 6.51867 112.873 7.256 112.444 7.928C112.014 8.59067 111.45 9.118 110.75 9.51C110.05 9.89267 109.27 10.084 108.412 10.084C107.506 10.084 106.68 9.874 105.934 9.454C105.187 9.02467 104.594 8.432 104.156 7.676C103.726 6.92 103.512 6.066 103.512 5.114C103.512 4.162 103.726 3.308 104.156 2.552C104.594 1.78667 105.187 1.194 105.934 0.773999C106.68 0.344666 107.506 0.129999 108.412 0.129999C109.448 0.129999 110.362 0.386666 111.156 0.899999C111.958 1.41333 112.542 2.13667 112.906 3.07H111.38ZM118.818 1.278V4.54H122.374V5.59H118.818V8.95H122.794V10H117.544V0.228H122.794V1.278H118.818ZM135.054 10H133.78L128.656 2.23V10H127.382V0.228H128.656L133.78 7.984V0.228H135.054V10ZM139.41 5.114C139.41 4.162 139.624 3.308 140.054 2.552C140.483 1.78667 141.066 1.18933 141.804 0.76C142.55 0.330666 143.376 0.116 144.282 0.116C145.346 0.116 146.274 0.372666 147.068 0.886C147.861 1.39933 148.44 2.12733 148.804 3.07H147.278C147.007 2.482 146.615 2.02933 146.102 1.712C145.598 1.39467 144.991 1.236 144.282 1.236C143.6 1.236 142.989 1.39467 142.448 1.712C141.906 2.02933 141.482 2.482 141.174 3.07C140.866 3.64867 140.712 4.33 140.712 5.114C140.712 5.88867 140.866 6.57 141.174 7.158C141.482 7.73667 141.906 8.18467 142.448 8.502C142.989 8.81933 143.6 8.978 144.282 8.978C144.991 8.978 145.598 8.824 146.102 8.516C146.615 8.19867 147.007 7.746 147.278 7.158H148.804C148.44 8.09133 147.861 8.81467 147.068 9.328C146.274 9.832 145.346 10.084 144.282 10.084C143.376 10.084 142.55 9.874 141.804 9.454C141.066 9.02467 140.483 8.432 140.054 7.676C139.624 6.92 139.41 6.066 139.41 5.114ZM160.192 0.242L157.014 6.318V10H155.74V6.318L152.548 0.242H153.962L156.37 5.184L158.778 0.242H160.192Z" fill="white"/>
</svg>
