<svg width="45" height="46" viewBox="0 0 45 46" fill="none" xmlns="http://www.w3.org/2000/svg">
<path d="M37.5 34.2283H33.75V17.822L22.5 24.8533L11.25 17.822V34.2283H7.5V11.7283H9.75L22.5 19.697L35.25 11.7283H37.5M37.5 7.97827H7.5C5.41875 7.97827 3.75 9.64702 3.75 11.7283V34.2283C3.75 35.2228 4.14509 36.1767 4.84835 36.8799C5.55161 37.5832 6.50544 37.9783 7.5 37.9783H37.5C38.4946 37.9783 39.4484 37.5832 40.1516 36.8799C40.8549 36.1767 41.25 35.2228 41.25 34.2283V11.7283C41.25 9.64702 39.5625 7.97827 37.5 7.97827Z" fill="#6D95FC"/>
</svg>
