<svg width="96" height="95" viewBox="0 0 96 95" fill="none" xmlns="http://www.w3.org/2000/svg">
<path d="M30.3792 67.42H16.5888C16.166 67.42 15.8226 67.0766 15.8226 66.6538V57.4602C15.8226 57.0375 16.166 56.6941 16.5888 56.6941C17.0115 56.6941 17.3549 57.0375 17.3549 57.4602V65.8877H30.3792C30.8019 65.8877 31.1453 66.2311 31.1453 66.6538C31.1453 67.0766 30.8019 67.42 30.3792 67.42Z" fill="#6D95FC"/>
<path d="M90.136 67.4199H50.297C49.8743 67.4199 49.5309 67.0765 49.5309 66.6537C49.5309 66.231 49.8743 65.8876 50.297 65.8876H89.369V27.5809H51.8275C51.4048 27.5809 51.0614 27.2375 51.0614 26.8147C51.0614 26.392 51.4048 26.0486 51.8275 26.0486H90.1343C90.557 26.0486 90.9004 26.392 90.9004 26.8147V66.6537C90.9004 67.0765 90.557 67.4199 90.1343 67.4199H90.136Z" fill="white"/>
<path d="M41.1034 91.9362C41.05 91.9362 40.9933 91.9301 40.9379 91.9177C40.524 91.8261 40.2654 91.417 40.3557 91.0032L43.4203 77.2127C43.5119 76.8003 43.9169 76.5431 44.3349 76.6306C44.7487 76.7223 45.0073 77.1313 44.917 77.5452L41.8524 91.3356C41.7731 91.6927 41.4543 91.9362 41.1034 91.9362Z" fill="white"/>
<path d="M65.6198 91.9362C65.2689 91.9362 64.9501 91.6927 64.8721 91.3356L61.8076 77.5452C61.7159 77.1313 61.9759 76.7223 62.3897 76.6306C62.8083 76.543 63.2126 76.8009 63.3043 77.2127L66.3688 91.0031C66.4605 91.417 66.2005 91.826 65.7867 91.9177C65.7299 91.93 65.6731 91.9362 65.6198 91.9362Z" fill="white"/>
<path d="M74.8133 78.1459H16.1651C13.4404 78.1459 11.2249 75.8995 11.2249 73.1367V57.4602C11.2249 57.0375 11.5682 56.6941 11.991 56.6941C12.4137 56.6941 12.7571 57.0375 12.7571 57.4602V73.1367C12.7571 75.054 14.2846 76.6136 16.1651 76.6136H74.8133C75.2361 76.6136 75.5795 76.957 75.5795 77.3797C75.5795 77.8025 75.2361 78.1459 74.8133 78.1459Z" fill="white"/>
<path d="M90.5598 78.1456H87.0726C86.6498 78.1456 86.3064 77.8022 86.3064 77.3795C86.3064 76.9567 86.6498 76.6134 87.0726 76.6134H90.5598C92.4402 76.6134 93.9678 75.0537 93.9678 73.1364V26.4609C93.9678 24.5435 92.4403 22.9839 90.5598 22.9839H51.8311C51.4083 22.9839 51.0649 22.6405 51.0649 22.2178C51.0649 21.795 51.4083 21.4517 51.8311 21.4517H90.5598C93.2845 21.4517 95.5 23.6981 95.5 26.4609V73.1364C95.5 75.8985 93.2845 78.1451 90.5598 78.1451V78.1456Z" fill="white"/>
<path d="M83.2417 95.0006H78.6449C76.1104 95.0006 74.0481 92.9383 74.0481 90.4038V76.6134C74.0481 74.0789 76.1104 72.0166 78.6449 72.0166H83.2417C85.7762 72.0166 87.8385 74.0789 87.8385 76.6134V90.4038C87.8385 92.9383 85.7762 95.0006 83.2417 95.0006ZM78.6449 73.5489C76.9546 73.5489 75.5804 74.9231 75.5804 76.6134V90.4038C75.5804 92.0941 76.9546 93.4684 78.6449 93.4684H83.2417C84.932 93.4684 86.3063 92.0941 86.3063 90.4038V76.6134C86.3063 74.9231 84.932 73.5489 83.2417 73.5489H78.6449Z" fill="white"/>
<path d="M80.9424 81.2103C80.5197 81.2103 80.1763 80.8669 80.1763 80.4442V77.3797C80.1763 76.9569 80.5197 76.6135 80.9424 76.6135C81.3652 76.6135 81.7085 76.9569 81.7085 77.3797V80.4442C81.7085 80.8669 81.3652 81.2103 80.9424 81.2103Z" fill="white"/>
<path d="M68.6843 95.0006H38.0389C36.772 95.0006 35.7405 93.9691 35.7405 92.7022C35.7405 91.4353 36.772 90.4038 38.0389 90.4038H68.6843C69.9511 90.4038 70.9827 91.4353 70.9827 92.7022C70.9827 93.9691 69.9511 95.0006 68.6843 95.0006ZM38.0389 91.9361C37.6175 91.9361 37.2727 92.2795 37.2727 92.7022C37.2727 93.125 37.6175 93.4683 38.0389 93.4683H68.6843C69.1056 93.4683 69.4504 93.125 69.4504 92.7022C69.4504 92.2795 69.1056 91.9361 68.6843 91.9361H38.0389Z" fill="white"/>
<path d="M51.831 58.2262H1.26613C0.843386 58.2262 0.5 57.8829 0.5 57.4601V0.766135C0.5 0.343386 0.843386 0 1.26613 0H51.831C52.2538 0 52.5972 0.343386 52.5972 0.766135V57.4601C52.5972 57.8829 52.2538 58.2262 51.831 58.2262ZM2.03139 56.694H51.064V1.53227H2.03139V56.694Z" fill="white"/>
<path d="M87.0715 18.3871H62.5552C62.1324 18.3871 61.7891 18.0438 61.7891 17.621V3.83059C61.7891 3.40784 62.1324 3.06445 62.5552 3.06445H87.0715C87.4943 3.06445 87.8376 3.40784 87.8376 3.83059V17.621C87.8376 18.0438 87.4943 18.3871 87.0715 18.3871ZM63.3222 16.8549H86.3062V4.59672H63.3222V16.8549Z" fill="white"/>
<path d="M85.541 38.3066H56.4279C56.0051 38.3066 55.6617 37.9632 55.6617 37.5405V31.4114C55.6617 30.9886 56.0051 30.6453 56.4279 30.6453H85.541C85.9637 30.6453 86.3071 30.9886 86.3071 31.4114V37.5405C86.3071 37.9632 85.9637 38.3066 85.541 38.3066ZM57.1931 36.7743H84.774V32.1775H57.1931V36.7743Z" fill="#6D95FC"/>
<path d="M65.6197 53.6294H56.426C56.0033 53.6294 55.6599 53.286 55.6599 52.8632V46.7342C55.6599 46.3114 56.0033 45.968 56.426 45.968H65.6197C66.0424 45.968 66.3858 46.3114 66.3858 46.7342V52.8632C66.3858 53.286 66.0424 53.6294 65.6197 53.6294ZM57.1922 52.0971H64.8535V47.5003H57.1922V52.0971Z" fill="#6D95FC"/>
<path d="M85.541 53.6294H70.2183C69.7955 53.6294 69.4521 53.286 69.4521 52.8632V46.7342C69.4521 46.3114 69.7955 45.968 70.2183 45.968H85.541C85.9637 45.968 86.3071 46.3114 86.3071 46.7342V52.8632C86.3071 53.286 85.9637 53.6294 85.541 53.6294ZM70.9844 52.0971H84.7748V47.5003H70.9844V52.0971Z" fill="#6D95FC"/>
<path d="M85.5409 62.823H21.1856C20.7628 62.823 20.4194 62.4797 20.4194 62.0569C20.4194 61.6342 20.7628 61.2908 21.1856 61.2908H85.5409C85.9636 61.2908 86.307 61.6342 86.307 62.0569C86.307 62.4797 85.9636 62.823 85.5409 62.823Z" fill="#6D95FC"/>
<path d="M85.541 58.2264H56.4279C56.0051 58.2264 55.6617 57.883 55.6617 57.4602C55.6617 57.0375 56.0051 56.6941 56.4279 56.6941H85.541C85.9637 56.6941 86.3071 57.0375 86.3071 57.4602C86.3071 57.883 85.9637 58.2264 85.541 58.2264Z" fill="#6D95FC"/>
<path d="M85.541 42.9036H56.4279C56.0051 42.9036 55.6617 42.5602 55.6617 42.1375C55.6617 41.7147 56.0051 41.3713 56.4279 41.3713H85.541C85.9637 41.3713 86.3071 41.7147 86.3071 42.1375C86.3071 42.5602 85.9637 42.9036 85.541 42.9036Z" fill="#6D95FC"/>
<path d="M10.458 13.7905C8.34504 13.7905 6.62732 12.0715 6.62732 9.95982C6.62732 7.84816 8.34497 6.12915 10.458 6.12915C12.571 6.12915 14.2887 7.84816 14.2887 9.95982C14.2887 12.0715 12.571 13.7905 10.458 13.7905ZM10.458 7.66142C9.19113 7.66142 8.15959 8.69296 8.15959 9.95982C8.15959 11.2267 9.19113 12.2582 10.458 12.2582C11.7249 12.2582 12.7564 11.2267 12.7564 9.95982C12.7564 8.69296 11.7249 7.66142 10.458 7.66142Z" fill="#6D95FC"/>
<path d="M13.5225 18.3872H7.39345C6.97071 18.3872 6.62732 18.0439 6.62732 17.6211C6.62732 17.1984 6.97071 16.855 7.39345 16.855H13.5225C13.9453 16.855 14.2887 17.1984 14.2887 17.6211C14.2887 18.0439 13.9453 18.3872 13.5225 18.3872Z" fill="#6D95FC"/>
<path d="M30.3793 18.3872H22.7179C22.2952 18.3872 21.9518 18.0439 21.9518 17.6211C21.9518 17.1984 22.2952 16.855 22.7179 16.855H30.3793C30.802 16.855 31.1454 17.1984 31.1454 17.6211C31.1454 18.0439 30.802 18.3872 30.3793 18.3872Z" fill="#6D95FC"/>
<path d="M42.6374 13.7905C40.5245 13.7905 38.8068 12.0715 38.8068 9.95982C38.8068 7.84816 40.5244 6.12915 42.6374 6.12915C44.7505 6.12915 46.4681 7.84816 46.4681 9.95982C46.4681 12.0715 44.7505 13.7905 42.6374 13.7905ZM42.6374 7.66142C41.3706 7.66142 40.339 8.69296 40.339 9.95982C40.339 11.2267 41.3706 12.2582 42.6374 12.2582C43.9043 12.2582 44.9358 11.2267 44.9358 9.95982C44.9358 8.69296 43.9043 7.66142 42.6374 7.66142Z" fill="#6D95FC"/>
<path d="M45.702 18.3872H39.5729C39.1501 18.3872 38.8068 18.0439 38.8068 17.6211C38.8068 17.1984 39.1501 16.855 39.5729 16.855H45.702C46.1247 16.855 46.4681 17.1984 46.4681 17.6211C46.4681 18.0439 46.1247 18.3872 45.702 18.3872Z" fill="#6D95FC"/>
<path d="M30.3793 13.7905H22.7179C22.2952 13.7905 21.9518 13.4471 21.9518 13.0244V6.89529C21.9518 6.47254 22.2952 6.12915 22.7179 6.12915H30.3793C30.802 6.12915 31.1454 6.47254 31.1454 6.89529V13.0244C31.1454 13.4471 30.802 13.7905 30.3793 13.7905ZM23.4841 12.2582H29.6131V7.66142H23.4841V12.2582Z" fill="#6D95FC"/>
<path d="M45.7019 33.71H7.39516C6.97241 33.71 6.62903 33.3666 6.62903 32.9439C6.62903 32.5211 6.97241 32.1777 7.39516 32.1777H45.7019C46.1246 32.1777 46.468 32.5211 46.468 32.9439C46.468 33.3666 46.1246 33.71 45.7019 33.71Z" fill="#6D95FC"/>
<path d="M45.7019 52.0972H7.39516C6.97241 52.0972 6.62903 51.7538 6.62903 51.3311C6.62903 50.9083 6.97241 50.5649 7.39516 50.5649H45.7019C46.1246 50.5649 46.468 50.9083 46.468 51.3311C46.468 51.7538 46.1246 52.0972 45.7019 52.0972Z" fill="#6D95FC"/>
<path d="M79.4118 9.19365H76.3473C75.9246 9.19365 75.5812 8.85026 75.5812 8.42751C75.5812 8.00476 75.9246 7.66138 76.3473 7.66138H79.4118C79.8346 7.66138 80.178 8.00476 80.178 8.42751C80.178 8.85026 79.8346 9.19365 79.4118 9.19365Z" fill="white"/>
<path d="M82.4764 13.7903H76.3473C75.9246 13.7903 75.5812 13.4469 75.5812 13.0242C75.5812 12.6014 75.9246 12.2581 76.3473 12.2581H82.4764C82.8991 12.2581 83.2425 12.6014 83.2425 13.0242C83.2425 13.4469 82.8991 13.7903 82.4764 13.7903Z" fill="white"/>
<path d="M73.2828 13.7905H67.1537C66.731 13.7905 66.3876 13.4471 66.3876 13.0243V8.42751C66.3876 8.00476 66.731 7.66138 67.1537 7.66138H73.2828C73.7055 7.66138 74.0489 8.00476 74.0489 8.42751V13.0243C74.0489 13.4471 73.7055 13.7905 73.2828 13.7905ZM67.9198 12.2582H72.5167V9.19365H67.9198V12.2582Z" fill="white"/>
<path d="M42.6374 67.42H34.9761C34.5533 67.42 34.21 67.0766 34.21 66.6538C34.21 66.2311 34.5533 65.8877 34.9761 65.8877H42.6374C43.0602 65.8877 43.4036 66.2311 43.4036 66.6538C43.4036 67.0766 43.0602 67.42 42.6374 67.42Z" fill="#6D95FC"/>
</svg>
