<svg width="96" height="94" viewBox="0 0 96 94" fill="none" xmlns="http://www.w3.org/2000/svg">
<path fill-rule="evenodd" clip-rule="evenodd" d="M16.5294 63.283C16.5294 65.7028 14.5616 67.6713 12.1425 67.6713C9.72269 67.6713 7.75419 65.7035 7.75419 63.283C7.75419 60.8632 9.72341 58.8947 12.1425 58.8947C14.5616 58.8961 16.5294 60.8632 16.5294 63.283ZM5.81443 63.283C5.81443 66.7709 8.65248 69.6089 12.1411 69.6089C15.6289 69.6089 18.467 66.7709 18.467 63.283C18.467 59.7951 15.6289 56.9564 12.1411 56.9564C8.65248 56.9578 5.81443 59.7959 5.81443 63.283ZM88.2446 63.283C88.2446 65.7028 86.2769 67.6713 83.8564 67.6713C81.4387 67.6713 79.4695 65.7035 79.4695 63.283C79.4695 60.8632 81.4387 58.8947 83.8564 58.8947C86.2769 58.8961 88.2446 60.8632 88.2446 63.283ZM77.5297 63.283C77.5297 66.7709 80.3685 69.6089 83.8556 69.6089C87.3456 69.6089 90.1823 66.7709 90.1823 63.283C90.1823 59.7951 87.3456 56.9564 83.8556 56.9564C80.3692 56.9578 77.5297 59.7959 77.5297 63.283ZM47.9995 67.6713C45.5797 67.6713 43.6126 65.7035 43.6126 63.283C43.6126 60.8632 45.5804 58.8947 47.9995 58.8947C50.4193 58.8947 52.3878 60.8625 52.3878 63.283C52.3878 65.7035 50.4193 67.6713 47.9995 67.6713ZM47.9995 56.9578C44.5116 56.9578 41.6736 59.7959 41.6736 63.2844C41.6736 66.7723 44.5116 69.6103 47.9995 69.6103C51.4881 69.6103 54.3261 66.7723 54.3261 63.2844C54.3261 59.7959 51.4881 56.9578 47.9995 56.9578ZM93.5641 91.2831H74.1522V78.667C74.1522 76.6599 75.3143 74.8066 77.0905 73.9025C79.0703 75.3194 81.3981 76.0676 83.8549 76.0676C86.3153 76.0676 88.6412 75.3195 90.6194 73.9025C92.3977 74.8057 93.5612 76.6599 93.5612 78.667L93.5619 91.2831H93.5641ZM90.8461 71.8801C90.5247 71.7566 90.1597 71.81 89.8903 72.0261C88.159 73.4009 86.0725 74.1293 83.8556 74.1293C81.6415 74.1293 79.5537 73.4002 77.8245 72.0261C77.5543 71.8114 77.1908 71.7566 76.8687 71.8801C74.084 72.9637 72.2137 75.6894 72.2137 78.6658V92.2509C72.2137 92.7864 72.6475 93.2201 73.1829 93.2201H94.5315C95.0663 93.2201 95.5 92.7849 95.5 92.2509V78.6672C95.5014 75.691 93.6305 72.9638 90.8458 71.8803L90.8461 71.8801ZM57.7066 91.2831H38.2964V78.667C38.2964 76.6599 39.4586 74.8066 41.2369 73.9025C43.2167 75.3194 45.5423 76.0676 48.0006 76.0676C50.4603 76.0676 52.7868 75.3195 54.765 73.9025C56.5433 74.8057 57.7069 76.6599 57.7069 78.667L57.7066 91.2831ZM54.9885 71.8801C54.6678 71.7566 54.3043 71.81 54.0341 72.0261C52.3028 73.4009 50.2171 74.1293 48.0009 74.1293C45.7853 74.1293 43.699 73.4002 41.9676 72.0261C41.6981 71.8114 41.3346 71.7566 41.0139 71.8801C38.2292 72.9637 36.3575 75.6894 36.3575 78.6658V92.2509C36.3575 92.7864 36.7912 93.2201 37.3267 93.2201H58.6771C59.2119 93.2201 59.6463 92.7849 59.6463 92.2509V78.6672C59.6463 75.691 57.7746 72.9638 54.9892 71.8803L54.9885 71.8801ZM21.849 91.2831H2.43886V78.667C2.43886 76.6599 3.60102 74.8066 5.37859 73.9025C7.35841 75.3194 9.68478 76.0676 12.143 76.0676C14.6013 76.0676 16.9286 75.3195 18.9075 73.9025C20.6851 74.8057 21.8472 76.6599 21.8472 78.667L21.8479 91.2831H21.849ZM19.1317 71.8801C18.8103 71.7566 18.4474 71.81 18.1773 72.0261C16.446 73.4009 14.3595 74.1293 12.144 74.1293C9.92777 74.1293 7.84213 73.4002 6.11078 72.0261C5.84059 71.8114 5.47777 71.7566 5.15635 71.8801C2.37167 72.9637 0.5 75.6894 0.5 78.6658V92.2509C0.5 92.7864 0.935112 93.2201 1.47056 93.2201H22.8174C23.3529 93.2201 23.7866 92.7849 23.7866 92.2509V78.6672C23.7873 75.691 21.9163 72.9638 19.1309 71.8803L19.1317 71.8801ZM71.7622 17.1638C72.1825 17.1638 72.5545 16.8922 72.6857 16.4929L73.9875 12.4871L75.288 16.4929C75.4178 16.8922 75.7897 17.1638 76.2115 17.1638H80.4243L77.0149 19.6389C76.6753 19.8853 76.5328 20.3232 76.6627 20.7225L77.9652 24.7283L74.5572 22.2532C74.3853 22.1318 74.186 22.0686 73.9874 22.0686C73.7874 22.0686 73.5874 22.1304 73.4161 22.2532L70.0082 24.7283L71.3107 20.7225C71.4406 20.3232 71.2974 19.8852 70.9577 19.6389L67.5498 17.1638H71.7622ZM63.9956 16.9771L69.247 20.7927L67.242 26.9677C67.1122 27.367 67.2533 27.8028 67.5929 28.0512C67.9333 28.2975 68.3936 28.2975 68.7333 28.0512L73.9861 24.2357L79.2375 28.0512C79.4059 28.1761 79.6067 28.2358 79.8074 28.2358C80.0074 28.2358 80.2067 28.1747 80.3772 28.0512C80.7169 27.8028 80.8579 27.367 80.7281 26.9677L78.7231 20.7927L83.974 16.9771C84.3143 16.7308 84.4561 16.2929 84.327 15.8936C84.1971 15.4942 83.8252 15.2248 83.4034 15.2248H76.9119L74.9047 9.04977C74.7749 8.65045 74.4051 8.38096 73.9847 8.38096C73.5636 8.38096 73.1917 8.65045 73.0611 9.04977L71.0562 15.2248H64.5625C64.1435 15.2248 63.7716 15.4942 63.641 15.8936C63.5133 16.2929 63.6553 16.7308 63.9956 16.9771ZM45.7784 17.1638C46.1988 17.1638 46.5707 16.8922 46.7005 16.4929L48.001 12.4878L49.3035 16.4936C49.4333 16.8929 49.8053 17.1645 50.2256 17.1645H54.4384L51.029 19.6397C50.6894 19.886 50.5483 20.3239 50.6768 20.7232L51.9793 24.729L48.5699 22.2539C48.4008 22.1311 48.2008 22.0686 48.0008 22.0686C47.8008 22.0686 47.6014 22.1304 47.4316 22.2532L44.0223 24.7283L45.3248 20.7225C45.4546 20.3232 45.3121 19.8853 44.9725 19.639L41.5646 17.1638L45.7784 17.1638ZM38.0118 16.9771L43.2632 20.7927L41.2575 26.9677C41.1277 27.367 41.2702 27.8028 41.6105 28.0512C41.9502 28.2975 42.4098 28.2975 42.7495 28.0512L48.0009 24.2364L53.2537 28.0519C53.4235 28.1768 53.6228 28.2365 53.8228 28.2365C54.0228 28.2365 54.2229 28.1754 54.3927 28.0519C54.7331 27.8035 54.8748 27.3677 54.7457 26.9684L52.74 20.7934L57.9908 16.9778C58.3312 16.7315 58.4736 16.2936 58.3438 15.8943C58.214 15.495 57.842 15.2255 57.4224 15.2255H50.9287L48.923 9.05049C48.7931 8.65117 48.4212 8.38168 48.0008 8.38168C47.5819 8.38168 47.2099 8.65117 47.0787 9.05049L45.0737 15.2255H38.5815C38.1625 15.2255 37.7891 15.495 37.6593 15.8943C37.5302 16.2929 37.6719 16.7308 38.0116 16.9771L38.0118 16.9771ZM19.7928 17.1638C20.2132 17.1638 20.5851 16.8922 20.715 16.4929L22.0175 12.4871L23.3193 16.4929C23.4491 16.8922 23.8211 17.1638 24.2414 17.1638H28.4542L25.0463 19.6389C24.7059 19.8853 24.5642 20.3232 24.6933 20.7225L25.9958 24.7283L22.5879 22.2532C22.4174 22.1318 22.2181 22.0686 22.0181 22.0686C21.818 22.0686 21.618 22.1304 21.4482 22.2532L18.0403 24.7283L19.3421 20.7225C19.4719 20.3232 19.3309 19.8852 18.9898 19.6389L15.5819 17.1638H19.7928ZM12.0275 16.9771L17.2803 20.7927L15.2746 26.9677C15.1448 27.367 15.2859 27.8028 15.6269 28.0512C15.9673 28.2975 16.4262 28.2975 16.7673 28.0512L22.0187 24.2357L27.2701 28.0512C27.4399 28.1761 27.6399 28.2358 27.8399 28.2358C28.0399 28.2358 28.24 28.1747 28.4098 28.0512C28.7494 27.8028 28.8905 27.367 28.7621 26.9677L26.7564 20.7927L32.0078 16.9771C32.3481 16.7308 32.4899 16.2929 32.3607 15.8936C32.2309 15.4942 31.859 15.2248 31.4372 15.2248H24.9457L22.94 9.04977C22.8101 8.65045 22.4382 8.38096 22.0178 8.38096C21.5975 8.38096 21.2255 8.65045 21.0957 9.04977L19.09 15.2248H12.5977C12.1774 15.2248 11.8068 15.4942 11.6756 15.8936C11.5458 16.2929 11.6875 16.7308 12.0272 16.9771H12.0275ZM7.09952 9.34457V27.2724C7.09952 30.9266 10.0737 33.9008 13.7272 33.9008H43.597C44.0097 33.9008 44.3781 34.1626 44.5142 34.5528L48.0007 44.6213L51.4885 34.5535C51.6247 34.1633 51.9917 33.9015 52.4058 33.9015H82.2773C85.9316 33.9015 88.9036 30.9273 88.9036 27.2731V9.34457C88.9036 5.69035 85.9316 2.71828 82.2773 2.71828H13.7274C10.0732 2.71688 7.09952 5.68891 7.09952 9.34457ZM13.7272 35.8404H42.9071L47.0856 47.8999C47.2217 48.2921 47.5874 48.5525 48.0014 48.5525C48.4155 48.5525 48.7832 48.2907 48.9173 47.8999L53.0957 35.8404H82.2756C86.9979 35.8404 90.8409 31.9973 90.8409 27.2729V9.34511C90.8409 4.62211 86.9966 0.779785 82.2756 0.779785H13.7257C9.0027 0.779785 5.16038 4.62283 5.16038 9.34511V27.2729C5.16178 31.9973 9.00424 35.8404 13.7272 35.8404Z" fill="url(#paint0_linear_2554_906)"/>
<defs>
<linearGradient id="paint0_linear_2554_906" x1="48" y1="0.779785" x2="48" y2="93.2201" gradientUnits="userSpaceOnUse">
<stop offset="0.452091" stop-color="#6D95FC"/>
<stop offset="0.64115" stop-color="white"/>
</linearGradient>
</defs>
</svg>
