<svg width="20" height="20" viewBox="0 0 20 20" fill="none" xmlns="http://www.w3.org/2000/svg">
<g clip-path="url(#clip0_2699_2526)">
<path d="M19.1666 10.0338C19.1666 4.95256 15.0625 0.833416 9.99992 0.833416C4.93731 0.833416 0.833252 4.95256 0.833252 10.0338C0.833252 14.3486 3.7928 17.969 7.78547 18.9632V12.8453H5.89523V10.0338H7.78547V8.82231C7.78547 5.6908 9.19743 4.23935 12.2606 4.23935C12.8413 4.23935 13.8434 4.35362 14.2533 4.46793V7.01657C14.0369 6.99372 13.6612 6.98227 13.1943 6.98227C11.6912 6.98227 11.1104 7.55372 11.1104 9.03947V10.0338H14.1046L13.5902 12.8453H11.1104V19.1667C15.6493 18.6165 19.1666 14.7377 19.1666 10.0338Z" fill="#5F7896"/>
</g>
<defs>
<clipPath id="clip0_2699_2526">
<rect width="20" height="20" fill="white"/>
</clipPath>
</defs>
</svg>
