<svg width="35" height="35" fill="none" xmlns="http://www.w3.org/2000/svg"><path fill-rule="evenodd" clip-rule="evenodd" d="M8.456 4.924a4.6 4.6 0 011.465-1.555L14.217.907c1.14-.662 2.076-.119 2.076 1.206v13.92c0 1.325-.937 1.868-2.076 1.206L9.92 14.693a4.615 4.615 0 01-1.465-1.556 4.647 4.647 0 01-.611-2.052V6.977a4.64 4.64 0 01.611-2.053zm-.994 10.184a4.5 4.5 0 012.012.475l4.179 2.37c1.106.633 1.106 1.664 0 2.297L2.016 26.907C.91 27.54 0 27.02 0 25.754v-4.773a4.4 4.4 0 01.593-1.963 4.447 4.447 0 011.423-1.487l3.434-1.948a4.493 4.493 0 012.012-.475zm17.617-11.74a4.615 4.615 0 011.465 1.556c.36.627.57 1.33.611 2.053v4.108a4.645 4.645 0 01-.611 2.052 4.615 4.615 0 01-1.465 1.556l-4.304 2.546c-1.14.662-2.068.12-2.068-1.205V2.113c0-1.325.928-1.868 2.068-1.206l4.304 2.462zm2.153 11.74a4.85 4.85 0 00-2.097.475l-4.356 2.37c-1.154.633-1.154 1.664 0 2.297l12.128 6.657C34.06 27.54 35 27.02 35 25.754v-4.773a4.256 4.256 0 00-.614-1.962 4.518 4.518 0 00-1.479-1.488l-3.578-1.948a4.846 4.846 0 00-2.097-.475zM7.426 33.34a4.501 4.501 0 004.026 0l3.436-1.954c.584-.38 1.07-.89 1.42-1.49.348-.6.55-1.272.588-1.963v-4.767c0-1.264-.901-1.783-2.008-1.15L3.244 28.662c-1.107.632-1.107 1.661 0 2.294l4.182 2.383zm10.689-3.446a4.251 4.251 0 01-.615-1.957v-4.772c0-1.263.94-1.782 2.093-1.15l12.128 6.643c1.153.632 1.153 1.66 0 2.293l-4.356 2.39a4.852 4.852 0 01-2.096.474 4.852 4.852 0 01-2.097-.475l-3.58-1.96a4.523 4.523 0 01-1.477-1.486z" fill="#36485C"/></svg>