<svg width="200" height="140" viewBox="0 0 200 140" fill="none" xmlns="http://www.w3.org/2000/svg">
<path fill-rule="evenodd" clip-rule="evenodd" d="M83.0441 15.3261C89.5 8.59135 98.4853 4.42082 108.412 4.42082C121.647 4.42082 133.118 11.7892 139.294 22.7682C144.777 20.3121 150.715 19.0441 156.721 19.0471C180.544 19.0471 199.882 38.5735 199.882 62.6682C199.882 86.7629 180.544 106.289 156.721 106.289C153.809 106.289 150.971 105.996 148.191 105.442C142.787 115.095 132.456 121.652 120.691 121.652C115.901 121.662 111.173 120.573 106.868 118.469C101.39 131.364 88.6324 140.427 73.7794 140.427C58.2647 140.427 45.103 130.627 40.0294 116.848C37.7713 117.326 35.4696 117.566 33.1618 117.564C14.7059 117.564 -0.220581 102.385 -0.220581 83.7433C-0.220581 71.217 6.50001 60.3118 16.4706 54.417C14.3553 49.534 13.2665 44.2666 13.2721 38.9434C13.2721 17.4276 30.6985 0.0380859 52.1691 0.0380859C64.7427 0.0380859 75.9927 6.04335 83.0515 15.3644" fill="black"/>
</svg>
