<svg width="152" height="20" viewBox="0 0 152 20" fill="none" xmlns="http://www.w3.org/2000/svg">
<path fill-rule="evenodd" clip-rule="evenodd" d="M0.92658 16.7999C0.800844 17.1286 0.971431 17.1971 1.01187 17.2553C1.38761 17.5279 1.76923 17.7254 2.15158 17.9472C4.1957 19.0304 6.12217 19.3472 8.13687 19.3472C12.2398 19.3472 14.7913 17.1588 14.7913 13.6367V13.5674C14.7913 10.3106 11.9089 9.12426 9.21775 8.27689L8.86555 8.16268C6.82878 7.50099 5.07143 6.92478 5.07143 5.58373V5.5152C5.07143 4.36573 6.10084 3.51836 7.68908 3.51836C9.45378 3.51836 11.5567 4.1071 12.9023 4.85204C12.9023 4.85204 13.3008 5.10994 13.4457 4.72457C13.5244 4.51605 14.2104 2.67615 14.2839 2.46983C14.3619 2.25394 14.2251 2.0911 14.0847 2.0071C12.5405 1.06394 10.4082 0.422884 8.20231 0.422884L7.79275 0.424357C4.0354 0.424357 1.4104 2.7012 1.4104 5.95804V6.02804C1.4104 9.46173 4.30746 10.5817 7.01334 11.3554L7.44864 11.491C9.41923 12.0982 11.1251 12.6257 11.1251 14.011V14.0803C11.1251 15.355 10.0148 16.3055 8.2354 16.3055C7.54349 16.3055 5.33834 16.2937 2.94864 14.7803C2.65967 14.6115 2.49496 14.4899 2.27217 14.3536C2.15452 14.2822 1.8604 14.1532 1.73246 14.5393L0.923637 16.794L0.92658 16.7999ZM60.9972 16.794C60.8714 17.1227 61.042 17.1912 61.0839 17.2494C61.4582 17.522 61.8413 17.7195 62.2236 17.9413C64.2678 19.0245 66.1942 19.3413 68.2089 19.3413C72.3119 19.3413 74.8633 17.1529 74.8633 13.6308V13.5615C74.8633 10.3047 71.9883 9.11836 69.2898 8.27099L68.9376 8.15678C66.9008 7.4951 65.1435 6.91889 65.1435 5.57783V5.50931C65.1435 4.35983 66.1729 3.51246 67.7611 3.51246C69.5258 3.51246 71.6214 4.1012 72.9744 4.84615C72.9744 4.84615 73.3729 5.10404 73.5185 4.71867C73.5964 4.51015 74.2832 2.67026 74.3494 2.46394C74.4281 2.24804 74.2906 2.0852 74.1508 2.0012C72.6067 1.05805 70.4744 0.416992 68.2685 0.416992L67.8582 0.418465C64.1008 0.418465 61.4758 2.69531 61.4758 5.95215V6.02215C61.4758 9.45583 64.3729 10.5758 67.0788 11.3495L67.5133 11.4851C69.4913 12.0923 71.1898 12.6198 71.1898 14.0051V14.0744C71.1898 15.3491 70.0795 16.2996 68.3001 16.2996C67.6067 16.2996 65.3957 16.2878 63.0133 14.7744C62.7244 14.6056 62.5553 14.4892 62.3361 14.3477C62.2619 14.3006 61.9156 14.165 61.7972 14.5334L60.9883 16.7881L60.9972 16.794ZM102.018 9.89131C102.018 11.8808 101.647 13.4503 100.922 14.5629C100.199 15.6608 99.106 16.1987 97.5839 16.1987C96.0619 16.1987 94.9736 15.6652 94.2604 14.5703C93.542 13.465 93.1795 11.8881 93.1795 9.89867C93.1795 7.9092 93.5442 6.3471 94.2604 5.2492C94.9722 4.15868 96.0545 3.63552 97.5839 3.63552C99.1134 3.63552 100.202 4.16383 100.922 5.2492C101.652 6.3471 102.018 7.9092 102.018 9.89867V9.89131ZM105.444 6.2071C105.107 5.06499 104.584 4.06289 103.885 3.22289C103.186 2.38289 102.305 1.70499 101.253 1.21867C100.209 0.728675 98.9736 0.481832 97.5766 0.481832C96.1795 0.481832 94.9516 0.730148 93.9001 1.21867C92.856 1.70794 91.9663 2.38289 91.2678 3.22289C90.5707 4.06289 90.0472 5.06499 89.7089 6.2071C89.3744 7.34184 89.2045 8.57973 89.2045 9.89867C89.2045 11.2176 89.3744 12.4555 89.7089 13.5903C90.045 14.7324 90.5692 15.7345 91.2678 16.5745C91.967 17.4145 92.856 18.085 93.9001 18.5639C94.9516 19.0414 96.1869 19.2846 97.5766 19.2846C98.9663 19.2846 100.202 19.0414 101.246 18.5639C102.29 18.0865 103.18 17.4145 103.878 16.5745C104.576 15.7345 105.099 14.7324 105.437 13.5903C105.771 12.4555 105.941 11.2176 105.941 9.89867C105.941 8.5871 105.771 7.34184 105.437 6.2071H105.444ZM133.599 15.6387C133.486 15.3049 133.161 15.4309 133.161 15.4309C132.663 15.6217 132.132 15.7986 131.566 15.887C130.995 15.9769 130.36 16.0218 129.691 16.0218C128.036 16.0218 126.713 15.5274 125.771 14.5482C124.823 13.5682 124.293 11.9913 124.301 9.85447C124.306 7.9092 124.775 6.45026 125.617 5.33026C126.448 4.22499 127.727 3.65026 129.419 3.65026C130.83 3.65026 131.911 3.81457 133.044 4.16973C133.044 4.16973 133.312 4.28688 133.441 3.93246C133.741 3.09983 133.963 2.50299 134.286 1.5893C134.377 1.32773 134.154 1.2172 134.072 1.18552C133.628 1.01162 132.58 0.726463 131.785 0.606358C131.043 0.492884 130.182 0.433936 129.212 0.433936C127.771 0.433936 126.491 0.680778 125.396 1.17004C124.3 1.65857 123.374 2.33425 122.638 3.17425C121.903 4.01425 121.344 5.01636 120.969 6.15847C120.598 7.2932 120.41 8.53846 120.41 9.85741C120.41 12.7016 121.175 15.0079 122.69 16.6953C124.205 18.39 126.484 19.2448 129.455 19.2448C131.212 19.2448 133.013 18.8889 134.307 18.3753C134.307 18.3753 134.555 18.2559 134.447 17.9671L133.602 15.6387H133.599ZM139.594 7.97552C139.758 6.87025 140.06 5.9492 140.535 5.23446C141.246 4.14394 142.33 3.5471 143.852 3.5471C145.374 3.5471 146.381 4.14688 147.102 5.23446C147.58 5.95288 147.788 6.90709 147.866 7.97552L139.557 7.97404L139.594 7.97552ZM151.138 5.54394C150.846 4.44605 150.124 3.33341 149.653 2.82499C148.903 2.02183 148.175 1.45447 147.447 1.14499C146.396 0.697172 145.266 0.467322 144.124 0.469307C142.675 0.469307 141.359 0.714677 140.293 1.21352C139.227 1.71605 138.33 2.39983 137.624 3.25457C136.919 4.10931 136.388 5.11878 136.05 6.27562C135.712 7.41773 135.541 8.67036 135.541 9.98194C135.541 11.323 135.718 12.5683 136.067 13.6956C136.419 14.8304 136.986 15.8251 137.751 16.6504C138.516 17.483 139.493 18.1314 140.67 18.5883C141.839 19.0414 143.258 19.2765 144.883 19.2713C148.236 19.2603 150.001 18.5124 150.721 18.1071C150.85 18.0349 150.971 17.9104 150.82 17.5515L150.063 15.422C149.946 15.1045 149.626 15.2194 149.626 15.2194C148.795 15.5304 147.618 16.0889 144.861 16.0815C143.06 16.0786 141.729 15.5458 140.891 14.711C140.038 13.8563 139.611 12.611 139.545 10.8426L151.163 10.8514C151.163 10.8514 151.468 10.8485 151.5 10.5493C151.513 10.4255 151.898 8.16194 151.154 5.54615L151.138 5.54394ZM46.7266 7.97552C46.8906 6.87025 47.1935 5.9492 47.6678 5.23446C48.3795 4.14394 49.4619 3.5471 50.9839 3.5471C52.506 3.5471 53.5133 4.14688 54.2339 5.23446C54.7111 5.95288 54.92 6.90709 54.9986 7.97552L46.6898 7.97404L46.7266 7.97552ZM58.2707 5.54394C57.9795 4.44605 57.256 3.33341 56.7854 2.82499C56.0354 2.02183 55.3075 1.45447 54.5795 1.14499C53.5286 0.697172 52.398 0.467322 51.256 0.469307C49.8075 0.469307 48.4913 0.714677 47.4251 1.21352C46.3589 1.71605 45.4619 2.39983 44.756 3.25457C44.0523 4.10931 43.5207 5.11878 43.1825 6.27562C42.845 7.41773 42.6751 8.67036 42.6751 9.98194C42.6751 11.323 42.8508 12.5683 43.2016 13.6956C43.5531 14.8304 44.1207 15.8251 44.8781 16.6504C45.6428 17.483 46.6207 18.1314 47.7972 18.5883C48.9663 19.0414 50.3781 19.2765 52.0104 19.2713C55.3633 19.2603 57.1281 18.5124 57.8486 18.1071C57.9766 18.0349 58.0986 17.9104 57.9464 17.5515L57.1891 15.422C57.0722 15.1045 56.7516 15.2194 56.7516 15.2194C55.9207 15.5304 54.7442 16.0889 51.9869 16.0815C50.1928 16.0786 48.8545 15.5458 48.0163 14.711C47.1633 13.8563 46.7369 12.611 46.6707 10.8426L58.2883 10.8514C58.2883 10.8514 58.5942 10.8485 58.6258 10.5493C58.6383 10.4255 59.0236 8.16194 58.2788 5.54615L58.2707 5.54394ZM21.653 15.565C21.1979 15.201 21.1347 15.1118 20.9839 14.8753C20.7538 14.5194 20.6361 14.0132 20.6361 13.3648C20.6361 12.3479 20.9744 11.6111 21.6729 11.1174C21.6655 11.1189 22.6729 10.2479 25.0406 10.2774C26.0944 10.2963 27.1458 10.3862 28.1876 10.5464V15.8295H28.1891C28.1891 15.8295 26.7185 16.1471 25.0567 16.2473C22.6964 16.3895 21.6523 15.5665 21.6597 15.5687L21.653 15.565ZM26.2707 7.38605C25.8001 7.35141 25.1898 7.33447 24.4619 7.33447C23.4692 7.33447 22.506 7.45826 21.6089 7.70142C20.7045 7.94605 19.8883 8.32478 19.1898 8.82878C18.4894 9.32954 17.9132 9.98503 17.506 10.7446C17.095 11.5109 16.8854 12.4098 16.8854 13.4267C16.8854 14.4583 17.0641 15.3498 17.417 16.0793C17.7629 16.8029 18.2835 17.4285 18.9317 17.8993C19.5766 18.3694 20.3729 18.7172 21.292 18.9235C22.2038 19.132 23.2332 19.2374 24.3656 19.2374C25.5567 19.2374 26.7406 19.1372 27.8876 18.9434C28.8646 18.7746 29.8378 18.5849 30.8067 18.3746C31.1935 18.2854 31.6229 18.1683 31.6229 18.1683C31.9097 18.0953 31.8876 17.788 31.8876 17.788L31.881 7.17752C31.881 4.84909 31.2604 3.11752 30.0354 2.04909C28.8148 0.980674 27.0281 0.442779 24.7119 0.442779C23.8442 0.442779 22.4398 0.560673 21.6016 0.72941C21.6016 0.72941 19.0722 1.22162 18.0281 2.04099C18.0281 2.04099 17.7986 2.18247 17.9236 2.50299L18.7472 4.71352C18.8494 5.00015 19.128 4.90215 19.128 4.90215C19.128 4.90215 19.2156 4.86752 19.3185 4.80636C21.5464 3.59057 24.37 3.62741 24.37 3.62741C25.62 3.62741 26.5905 3.88162 27.2376 4.37899C27.8707 4.86604 28.1935 5.60215 28.1935 7.14952V7.64099C27.2008 7.49657 26.2817 7.4133 26.2817 7.4133L26.2707 7.38605ZM119.653 1.39552C119.67 1.35666 119.679 1.31483 119.679 1.27251C119.679 1.2302 119.671 1.18827 119.655 1.14921C119.638 1.11016 119.614 1.07479 119.584 1.0452C119.554 1.01561 119.518 0.992414 119.479 0.976988C119.281 0.90183 118.295 0.693306 117.538 0.646148C116.082 0.554779 115.273 0.800884 114.545 1.12804C113.826 1.45299 113.03 1.97541 112.589 2.57962L112.588 1.16489C112.588 0.97036 112.45 0.813409 112.255 0.813409H109.284C109.091 0.813409 108.952 0.97036 108.952 1.16489V18.4807C108.952 18.5742 108.989 18.6639 109.055 18.73C109.121 18.7962 109.21 18.8334 109.304 18.8336H112.348C112.441 18.8334 112.531 18.7962 112.596 18.73C112.662 18.6638 112.699 18.5742 112.699 18.4807V9.78594C112.699 8.62173 112.827 7.46489 113.082 6.73541C113.334 6.01404 113.676 5.43857 114.097 5.02594C114.499 4.6274 114.991 4.3317 115.531 4.16383C116.038 4.01807 116.563 3.94416 117.09 3.94425C117.696 3.94425 118.362 4.10047 118.362 4.10047C118.585 4.12552 118.71 3.98846 118.785 3.78657C118.985 3.25531 119.55 1.66447 119.66 1.34762" fill="#FFFFFE"/>
</svg>
