<svg width="155" height="30" viewBox="0 0 155 30" fill="none" xmlns="http://www.w3.org/2000/svg">
<path fill-rule="evenodd" clip-rule="evenodd" d="M63.1857 6.92928C62.2532 6.36098 61.1382 6.07684 59.8408 6.07684C58.442 6.07684 57.1902 6.41487 56.0854 7.09095C54.9806 7.76702 54.1089 8.73703 53.4703 10.001C52.8317 11.265 52.5124 12.7592 52.5124 14.4837C52.5124 16.1886 52.8317 17.6779 53.4703 18.9516C54.1089 20.2254 54.9806 21.2003 56.0854 21.8764C57.1902 22.5525 58.442 22.8905 59.8408 22.8905C61.1382 22.8905 62.2532 22.6063 63.1857 22.038C64.1182 21.4698 64.7974 20.6957 65.2231 19.7159V22.6847H70.4229V0.9328H65.2231V9.25144C64.7974 8.27162 64.1182 7.49757 63.1857 6.92928ZM6.17776 21.8924V14.8903H9.52923C11.2787 14.8903 12.7648 14.6127 13.9873 14.0574C15.2099 13.5021 16.132 12.7398 16.7539 11.7704C17.3757 10.8011 17.6866 9.69523 17.6866 8.45292C17.6866 6.4577 16.991 4.8719 15.5998 3.69547C14.2086 2.51905 12.1851 1.93084 9.52923 1.93084H0.771149V21.8924H6.17776ZM11.7164 8.44546C11.7164 10.0908 10.6376 10.9135 8.47998 10.9135H5.74628V5.92315H8.47998C10.6376 5.92315 11.7164 6.76391 11.7164 8.44546ZM24.8326 9.06603C25.4759 8.10334 26.3051 7.33886 27.3202 6.77257C28.3353 6.20629 29.4359 5.92315 30.6219 5.92315V11.1046H29.1444C27.7775 11.1046 26.7172 11.3784 25.9634 11.9258C25.2095 12.4732 24.8326 13.3981 24.8326 14.7006V21.8924H19.6766V6.09303H24.8326V9.06603ZM46.1762 6.88632C44.8255 6.2442 43.2943 5.92315 41.5826 5.92315C39.871 5.92315 38.3346 6.2442 36.9735 6.88632C35.6125 7.52845 34.5453 8.45439 33.7719 9.66419C32.9986 10.874 32.6119 12.2885 32.6119 13.9078C32.6119 15.527 32.9986 16.9415 33.7719 18.1513C34.5453 19.3611 35.6125 20.2871 36.9735 20.9292C38.3346 21.5713 39.871 21.8924 41.5826 21.8924C43.2943 21.8924 44.8255 21.5713 46.1762 20.9292C47.527 20.2871 48.589 19.3611 49.3624 18.1513C50.1357 16.9415 50.5224 15.527 50.5224 13.9078C50.5224 12.2885 50.1357 10.874 49.3624 9.66419C48.589 8.45439 47.527 7.52845 46.1762 6.88632ZM42.0798 9.91545C41.0948 9.91545 40.2656 10.259 39.5922 10.9462C38.9188 11.6334 38.5821 12.6254 38.5821 13.9223C38.5821 15.2192 38.9188 16.2064 39.5922 16.8838C40.2656 17.5613 41.0948 17.9001 42.0798 17.9001C43.0647 17.9001 43.8889 17.5613 44.5522 16.8838C45.2156 16.2064 45.5473 15.2192 45.5473 13.9223C45.5473 12.6254 45.2156 11.6334 44.5522 10.9462C43.8889 10.259 43.0647 9.91545 42.0798 9.91545ZM62.4465 9.91545C61.2551 9.91545 60.2967 10.2677 59.571 10.9722C58.8454 11.6768 58.4826 12.6553 58.4826 13.9078C58.4826 15.1603 58.8454 16.1388 59.571 16.8433C60.2967 17.5478 61.2551 17.9001 62.4465 17.9001C63.6161 17.9001 64.5746 17.538 65.3219 16.8139C66.0692 16.0898 66.4428 15.1211 66.4428 13.9078C66.4428 12.6748 66.0692 11.7012 65.3219 10.9869C64.5746 10.2726 63.6161 9.91545 62.4465 9.91545ZM92.3134 21.7225V5.92315H86.8417V14.3042C86.8417 15.4556 86.5235 16.3428 85.8873 16.9657C85.251 17.5886 84.3815 17.9001 83.2786 17.9001C82.2182 17.9001 81.3752 17.6028 80.7495 17.0082C80.1239 16.4136 79.8111 15.5783 79.8111 14.5024V5.92315H74.403V15.097C74.403 17.2111 75.0021 18.8722 76.2004 20.0803C77.3986 21.2883 79.0158 21.8924 81.0518 21.8924C82.3879 21.8924 83.5597 21.6187 84.5671 21.0713C85.5745 20.5238 86.3326 19.7877 86.8417 18.8627V21.7225H92.3134ZM103.878 5.92315C106.077 5.92315 107.919 6.47685 109.405 7.58428C110.891 8.69171 111.827 10.2132 112.214 12.1489H106.687C106.525 11.4789 106.189 10.9577 105.68 10.5855C105.171 10.2132 104.53 10.0271 103.756 10.0271C102.84 10.0271 102.087 10.3575 101.497 11.0182C100.906 11.679 100.611 12.6421 100.611 13.9078C100.611 15.1734 100.906 16.1366 101.497 16.7973C102.087 17.458 102.84 17.7884 103.756 17.7884C104.53 17.7884 105.171 17.6023 105.68 17.23C106.189 16.8578 106.525 16.3366 106.687 15.6666H112.214C111.827 17.6023 110.891 19.1238 109.405 20.2312C107.919 21.3387 106.077 21.8924 103.878 21.8924C102.209 21.8924 100.728 21.5713 99.4358 20.9292C98.1432 20.2871 97.1305 19.3611 96.3977 18.1513C95.6649 16.9415 95.2985 15.527 95.2985 13.9078C95.2985 12.2699 95.6598 10.8507 96.3825 9.65023C97.1051 8.44974 98.1178 7.52845 99.4205 6.88632C100.723 6.2442 102.209 5.92315 103.878 5.92315ZM125.149 21.8924V17.6703H123.503C122.852 17.6703 122.39 17.5458 122.116 17.2969C121.841 17.048 121.704 16.6076 121.704 15.9757V10.0016H125.119V5.8657H121.704V1.93084H116.491V5.8657H114.204V10.0016H116.491V15.8896C116.491 18.0341 117.044 19.5707 118.152 20.4994C119.26 21.428 120.81 21.8924 122.802 21.8924H125.149ZM133.109 0.9328V21.8924H128.134V0.9328H133.109ZM145.221 15.9882L141.048 6.0462H135.099L142.387 21.6569L138.307 30H144.162L155 6.0462H149.114L145.221 15.9882Z" fill="#173A56"/>
</svg>
