<svg width="48" height="48" viewBox="0 0 48 48" fill="none" xmlns="http://www.w3.org/2000/svg">
<path fill-rule="evenodd" clip-rule="evenodd" d="M36.5625 0C43.5 0 48 4.5 48 11.4375V36.5625C48 43.5 43.5 48 36.5625 48H11.4375C4.5 48 0 43.5 0 36.5625V11.4375C0 4.5 4.5 0 11.4375 0H36.5625Z" fill="#1877F2"/>
<path fill-rule="evenodd" clip-rule="evenodd" d="M25.1086 47.7623V29.1709H19.0688V22.4853H25.1086V17.5829C25.1086 17.5829 24.6742 7.39294 33.4926 7.39294H40.6259V14.2046H36.181C36.181 14.2046 32.9098 14.0271 32.8742 17.4033V22.4853H40.0651L39.028 29.1709H32.803V47.9999H25.1086V47.7623Z" fill="white"/>
</svg>
