<svg width="48" height="48" viewBox="0 0 48 48" fill="none" xmlns="http://www.w3.org/2000/svg">
<g clip-path="url(#clip0_2699_1827)">
<path d="M38.304 0H9.696C4.338 0 0 4.338 0 9.696V38.31C0 43.662 4.338 48 9.696 48H38.31C43.662 48 48.006 43.662 48.006 38.304V9.696C48 4.338 43.662 0 38.304 0Z" fill="url(#paint0_linear_2699_1827)"/>
<path d="M23.796 11.0279L24.768 9.34794C25.368 8.29794 26.706 7.94394 27.756 8.54394C28.806 9.14394 29.16 10.4819 28.56 11.5319L19.194 27.7439H25.968C28.164 27.7439 29.394 30.3239 28.44 32.1119H8.58C7.368 32.1119 6.396 31.1399 6.396 29.9279C6.396 28.7159 7.368 27.7439 8.58 27.7439H14.148L21.276 15.3899L19.05 11.5259C18.45 10.4759 18.804 9.14994 19.854 8.53794C20.904 7.93794 22.23 8.29194 22.842 9.34194L23.796 11.0279ZM15.372 34.3619L13.272 38.0039C12.672 39.0539 11.334 39.4079 10.284 38.8079C9.234 38.2079 8.88 36.8699 9.48 35.8199L11.04 33.1199C12.804 32.5739 14.238 32.9939 15.372 34.3619ZM33.456 27.7559H39.138C40.35 27.7559 41.322 28.7279 41.322 29.9399C41.322 31.1519 40.35 32.1239 39.138 32.1239H35.982L38.112 35.8199C38.712 36.8699 38.358 38.1959 37.308 38.8079C36.258 39.4079 34.932 39.0539 34.32 38.0039C30.732 31.7819 28.038 27.1259 26.25 24.0239C24.42 20.8679 25.728 17.6999 27.018 16.6259C28.452 19.0859 30.594 22.7999 33.456 27.7559Z" fill="white"/>
</g>
<defs>
<linearGradient id="paint0_linear_2699_1827" x1="24.003" y1="0" x2="24.003" y2="48" gradientUnits="userSpaceOnUse">
<stop stop-color="#18BFFB"/>
<stop offset="1" stop-color="#2072F3"/>
</linearGradient>
<clipPath id="clip0_2699_1827">
<rect width="48" height="48" fill="white"/>
</clipPath>
</defs>
</svg>
