<svg width="50" height="50" viewBox="0 0 50 50" fill="none" xmlns="http://www.w3.org/2000/svg">
<path fill-rule="evenodd" clip-rule="evenodd" d="M37.5625 1C44.5 1 49 5.5 49 12.4375V37.5625C49 44.5 44.5 49 37.5625 49H12.4375C5.5 49 1 44.5 1 37.5625V12.4375C1 5.5 5.5 1 12.4375 1H37.5625Z" fill="white"/>
<path fill-rule="evenodd" clip-rule="evenodd" d="M37.5625 1C44.5 1 49 5.5 49 12.4375V37.5625C49 44.5 44.5 49 37.5625 49H12.4375C5.5 49 1 44.5 1 37.5625V12.4375C1 5.5 5.5 1 12.4375 1H37.5625Z" fill="white" stroke="#A4A4A4" stroke-opacity="0.5" stroke-width="0.5"/>
<path fill-rule="evenodd" clip-rule="evenodd" d="M20.4102 9.87555C16.531 11.2053 13.2254 14.1136 11.3843 17.794C10.742 19.0637 10.2796 20.4107 9.997 21.809C9.2948 25.275 9.78292 28.9726 11.3757 32.1297C12.4119 34.1887 13.902 36.0246 15.7003 37.4573C17.4044 38.8128 19.3826 39.8251 21.4892 40.3828C24.1439 41.0949 26.9699 41.0777 29.6417 40.4685C32.0566 39.9109 34.3431 38.7527 36.1671 37.0712C38.0939 35.2954 39.4726 32.9619 40.2005 30.4482C40.9968 27.7115 41.0996 24.786 40.6032 21.9721C35.6105 21.9721 30.6094 21.9721 25.6168 21.9721C25.6168 24.0482 25.6168 26.1243 25.6168 28.2005C28.5113 28.2005 31.4058 28.2005 34.3003 28.2005C33.9663 30.1908 32.7845 32.0096 31.1146 33.1334C30.0613 33.8455 28.8539 34.3002 27.6036 34.5233C26.3533 34.7377 25.0517 34.7635 23.8014 34.5147C22.5254 34.2573 21.318 33.7254 20.2561 32.979C18.5605 31.7865 17.2674 30.045 16.608 28.0803C15.9315 26.0814 15.923 23.8594 16.608 21.8691C17.0876 20.4621 17.8754 19.1667 18.9202 18.1029C20.2047 16.7817 21.8746 15.838 23.6815 15.4519C25.2229 15.1259 26.85 15.186 28.3572 15.6407C29.6417 16.0267 30.8235 16.7388 31.7912 17.6653C32.7674 16.6873 33.7436 15.7093 34.7199 14.7313C35.2337 14.208 35.7732 13.7018 36.2699 13.1613C34.7884 11.7887 33.0414 10.6819 31.1403 9.97847C27.7149 8.70879 23.8613 8.68303 20.4102 9.87555Z" fill="white"/>
<path fill-rule="evenodd" clip-rule="evenodd" d="M20.4102 9.87483C23.8528 8.68231 27.7149 8.70807 31.1403 9.96919C33.0414 10.6727 34.7798 11.7708 36.2698 13.152C35.7732 13.6925 35.2337 14.1987 34.7198 14.722C33.7436 15.7 32.7674 16.678 31.7911 17.656C30.8234 16.7295 29.6417 16.026 28.3572 15.6314C26.85 15.1767 25.2229 15.1081 23.6815 15.4426C21.8832 15.8287 20.2133 16.7724 18.9202 18.0936C17.8754 19.1488 17.0876 20.4528 16.608 21.8598C14.8696 20.5043 13.1312 19.1574 11.3843 17.8019C13.2254 14.1129 16.531 11.2046 20.4102 9.87483Z" fill="#EA4335"/>
<path fill-rule="evenodd" clip-rule="evenodd" d="M10.0053 21.8004C10.2879 20.4106 10.7504 19.0551 11.3927 17.7854C13.131 19.1409 14.8694 20.4878 16.6164 21.8433C15.9313 23.8422 15.9313 26.0642 16.6164 28.0546C14.878 29.41 13.1396 30.7656 11.4012 32.1125C9.79126 28.9639 9.30314 25.2664 10.0053 21.8004Z" fill="#FBBC05"/>
<path fill-rule="evenodd" clip-rule="evenodd" d="M25.617 21.9631C30.6095 21.9631 35.6106 21.9631 40.6033 21.9631C41.0997 24.7685 40.9885 27.694 40.2006 30.4393C39.4727 32.9529 38.094 35.2865 36.1672 37.0623C34.4802 35.7497 32.7932 34.4371 31.1062 33.1245C32.776 32.0007 33.9578 30.1819 34.2918 28.1915C31.3973 28.1915 28.5028 28.1915 25.6084 28.1915C25.617 26.1154 25.617 24.0393 25.617 21.9631Z" fill="#4285F4"/>
<path fill-rule="evenodd" clip-rule="evenodd" d="M11.3843 32.1207C13.1227 30.7737 14.8611 29.4183 16.5994 28.0627C17.2674 30.0274 18.5519 31.7689 20.2475 32.9614C21.3094 33.7078 22.5254 34.2397 23.7928 34.4971C25.0431 34.7545 26.3362 34.7201 27.595 34.5057C28.8453 34.2826 30.0528 33.8279 31.106 33.1158C32.7931 34.4284 34.4801 35.741 36.1671 37.0536C34.3431 38.7437 32.0566 39.8933 29.6417 40.4509C26.9699 41.06 24.1439 41.0772 21.4892 40.3652C19.3826 39.8075 17.4044 38.8038 15.7003 37.4397C13.9105 36.0156 12.4205 34.1797 11.3843 32.1207Z" fill="#34A853"/>
</svg>
