<svg width="238" height="54" viewBox="0 0 238 54" fill="none" xmlns="http://www.w3.org/2000/svg">
<path fill-rule="evenodd" clip-rule="evenodd" d="M9.84906 32.367L7.52337 36.7374L7.52297 51.4192H-0.000944717L0.0003514 3.61801H7.52427L7.5237 24.4457L17.3738 3.61801H24.8977L14.432 24.9237L24.8964 51.4192H17.1673L9.84906 32.367ZM35.5185 40.4249C35.5185 42.1548 35.8718 43.3726 36.5786 44.0783C37.2854 44.7839 38.2316 45.1367 39.4171 45.1367C40.6027 45.1367 41.5489 44.7839 42.2557 44.0783C42.9626 43.3726 43.316 42.1548 43.316 40.4249L43.3167 14.6122C43.3168 12.8823 42.9634 11.6645 42.2566 10.9589C41.5499 10.2532 40.6037 9.90041 39.4181 9.90041C38.2325 9.90041 37.2863 10.2532 36.5795 10.9589C35.8727 11.6645 35.5193 12.8823 35.5192 14.6122L35.5185 40.4249ZM27.9947 15.0904C27.9948 11.2207 28.9753 8.25025 30.9361 6.17885C32.897 4.10746 35.7241 3.07178 39.4177 3.07178C43.1113 3.07178 45.9384 4.10746 47.8991 6.17885C49.8599 8.25025 50.8402 11.2207 50.8401 15.0904L50.8394 39.947C50.8393 43.8166 49.8588 46.7871 47.898 48.8585C45.9371 50.9299 43.11 51.9656 39.4164 51.9656C35.7228 51.9656 32.8957 50.9299 30.935 48.8585C28.9742 46.7871 27.9939 43.8166 27.9941 39.947L27.9947 15.0904ZM63.1716 16.7976L63.1707 51.4193H56.3992L56.4005 3.61815H65.8396L73.5679 32.2306L73.5687 3.61815H80.2718L80.2705 51.4193H72.5414L63.1716 16.7976ZM85.4896 15.0904C85.4897 11.2207 86.4132 8.25027 88.26 6.17888C90.1068 4.10748 92.877 3.0718 96.5706 3.0718C100.264 3.0718 103.034 4.10748 104.881 6.17888C106.728 8.25027 107.651 11.2207 107.651 15.0904L107.651 16.5927H100.537L100.537 14.6124C100.537 12.8824 100.207 11.6646 99.5457 10.959C98.8846 10.2534 97.9612 9.90054 96.7756 9.90054C95.59 9.90054 94.6666 10.2534 94.0054 10.959C93.3442 11.6646 93.0136 12.8824 93.0135 14.6124C93.0135 16.2513 93.3782 17.6967 94.1078 18.9486C94.8373 20.2006 95.7493 21.3842 96.8437 22.4996C97.938 23.6149 99.1122 24.7303 100.366 25.8457C101.62 26.961 102.794 28.1788 103.889 29.499C104.983 30.8193 105.895 32.3216 106.624 34.006C107.354 35.6904 107.719 37.6707 107.719 39.947C107.719 43.8166 106.772 46.7871 104.88 48.8585C102.987 50.9299 100.194 51.9656 96.5009 51.9656C92.8073 51.9656 90.0144 50.9299 88.122 48.8585C86.2297 46.7871 85.2836 43.8166 85.2837 39.947L85.2838 37.0106H92.3973L92.3972 40.425C92.3972 42.155 92.7505 43.3614 93.4573 44.0442C94.1641 44.7271 95.1103 45.0686 96.2959 45.0686C97.4814 45.0686 98.4276 44.7271 99.1344 44.0442C99.8413 43.3614 100.195 42.155 100.195 40.425C100.195 38.7861 99.83 37.3407 99.1005 36.0888C98.3709 34.8368 97.459 33.6532 96.3646 32.5378C95.2702 31.4225 94.0961 30.3071 92.8421 29.1917C91.5882 28.0764 90.414 26.8586 89.3197 25.5384C88.2253 24.2181 87.3134 22.7158 86.5838 21.0314C85.8543 19.347 85.4895 17.3666 85.4896 15.0904ZM110.612 3.61798H133.868L133.867 10.4467H126.001L126 51.4192H118.476L118.478 10.4467H110.612L110.612 3.61798ZM153.653 51.4192C153.562 51.1005 153.47 50.8046 153.379 50.5314C153.288 50.2583 153.208 49.9168 153.14 49.5071C153.071 49.0974 153.026 48.5738 153.003 47.9365C152.98 47.2991 152.969 46.5025 152.969 45.5464L152.969 38.0348C152.969 35.8041 152.582 34.2335 151.806 33.323C151.031 32.4125 149.777 31.9572 148.045 31.9572H145.445L145.445 51.4192H137.921L137.922 3.61796H149.276C153.198 3.61796 156.037 4.52845 157.792 6.34946C159.548 8.17047 160.425 10.9247 160.425 14.6122L160.425 18.368C160.425 23.2848 158.783 26.517 155.5 28.0649C157.415 28.8388 158.726 30.1021 159.433 31.8548C160.14 33.6075 160.493 35.7358 160.493 38.2397L160.493 45.6147C160.493 46.7984 160.538 47.8341 160.63 48.7218C160.721 49.6095 160.949 50.5087 161.313 51.4192H153.653ZM145.447 10.4468L145.446 25.1286H148.387C149.801 25.1286 150.907 24.7644 151.705 24.036C152.503 23.3076 152.902 21.9874 152.902 20.0754L152.902 15.3635C152.902 13.6336 152.594 12.3817 151.979 11.6077C151.363 10.8338 150.394 10.4468 149.072 10.4468H145.447ZM173.373 3.61813L173.372 40.4933C173.372 42.2233 173.725 43.4297 174.432 44.1126C175.139 44.7954 176.085 45.1369 177.27 45.1369C178.456 45.1369 179.402 44.7954 180.109 44.1126C180.816 43.4297 181.169 42.2233 181.169 40.4933L181.17 3.61813H188.284L188.283 40.0153C188.283 43.885 187.336 46.8554 185.444 48.9268C183.552 50.9982 180.759 52.0339 177.065 52.0339C173.371 52.0339 170.579 50.9982 168.686 48.9268C166.794 46.8554 165.848 43.885 165.848 40.0153L165.849 3.61813H173.373ZM214.744 3.61814H238L238 10.4469H230.134L230.133 51.4193H222.609L222.61 10.4469H214.744L214.744 3.61814Z" fill="#1A1A1A"/>
<path fill-rule="evenodd" clip-rule="evenodd" d="M188.953 27L208.497 0L208.495 54L188.953 27Z" fill="#1A1A1A"/>
</svg>
