<svg width="200" height="48" viewBox="0 0 200 48" fill="none" xmlns="http://www.w3.org/2000/svg">
<path d="M86.3953 17.1364H92.4922V19.8663H92.6086C94.0844 17.7213 95.9872 16.5516 98.7446 16.5516C103.094 16.5516 105.657 19.6714 105.657 24.1171V37.1035H99.327V25.4042C99.327 23.2981 98.2785 21.8551 96.2203 21.8551C94.1234 21.8551 92.7252 23.6102 92.7252 26.067V37.1035H86.3953V17.1364Z" fill="black"/>
<path d="M85.7054 11.7945C85.7054 9.6885 84.0053 7.98144 81.9084 7.98144C79.8114 7.98144 78.1113 9.6885 78.1113 11.7945C78.1113 13.9004 79.8114 15.6074 81.9084 15.6074C84.0053 15.6074 85.7054 13.9004 85.7054 11.7945Z" fill="black"/>
<path d="M150.177 16.8482C149.996 16.8319 149.789 16.8246 149.547 16.8246C147.139 16.8246 145.508 17.8775 144.11 20.2564H143.993V17.1366H137.935V37.1035H144.265V28.134C144.265 23.978 146.557 22.0522 150.177 22.3882V16.8482Z" fill="black"/>
<path d="M181.24 24.507C178.716 24.0392 176.464 23.8442 176.464 22.4404C176.464 21.1923 177.668 20.6074 179.221 20.6074C180.968 20.6074 182.172 21.1533 182.405 22.9473H188.23C187.92 19.0085 184.891 16.5515 179.26 16.5515C174.561 16.5515 170.677 18.7355 170.677 22.9473C170.677 27.6268 174.367 28.5629 177.823 29.148C180.464 29.616 182.871 29.811 182.871 31.6048C182.871 32.8918 181.667 33.5938 179.765 33.5938C177.856 33.5938 176.593 32.7826 176.206 31.137H170.174C170.618 35.2416 174.206 37.7275 179.803 37.7275C185.007 37.7275 188.852 35.4657 188.852 31.098C188.852 25.989 184.735 25.0921 181.24 24.507Z" fill="black"/>
<path d="M159.996 21.0751C162.054 21.0751 163.53 22.5961 163.763 24.9752H155.919C156.346 22.5961 157.589 21.0751 159.996 21.0751ZM160.346 33.1254C157.744 33.1254 156.268 31.4487 155.88 28.7578H170.171C170.21 24.7021 169.045 21.2311 166.676 19.0474C164.967 17.4875 162.715 16.5514 159.879 16.5514C153.821 16.5514 149.666 21.1141 149.666 27.081C149.666 33.1254 153.705 37.6885 160.268 37.6885C162.792 37.6885 164.812 37.0255 166.481 35.8555C168.229 34.6466 169.394 32.9307 169.821 31.1369H163.647C163.103 32.3847 162.016 33.1254 160.346 33.1254Z" fill="black"/>
<path d="M200 32.3955C199.707 32.4072 199.313 32.4243 198.951 32.4243C197.592 32.4243 196.738 32.0341 196.738 30.4742V21.1146H200V17.1369H196.738V10.8192H190.563V17.1369H188.62V21.1146H190.563V31.8392C190.563 36.1292 193.204 37.3379 196.893 37.3379C198.301 37.3379 199.365 37.232 200 37.1075V32.3955Z" fill="black"/>
<path d="M116.961 32.4046C116.709 32.4144 116.417 32.4243 116.145 32.4243C114.786 32.4243 113.931 32.0341 113.931 30.4742V21.1146H116.961V17.1369H113.931V10.8192H107.757V17.1369H105.698V21.1146H107.757V31.8392C107.757 36.1292 110.397 37.3379 114.087 37.3379C115.335 37.3379 116.312 37.2545 116.961 37.1488V32.4046Z" fill="black"/>
<path d="M130.749 24.9752C130.516 22.5962 129.04 21.0751 126.982 21.0751C124.574 21.0751 123.332 22.5962 122.904 24.9752H130.749ZM116.652 27.081C116.652 21.1143 120.807 16.5516 126.865 16.5516C129.7 16.5516 131.953 17.4875 133.661 19.0474C136.03 21.2313 137.195 24.7021 137.156 28.7579H122.866C123.254 31.4487 124.729 33.1256 127.332 33.1256C129.001 33.1256 130.089 32.3847 130.632 31.1369H136.807C136.38 32.9307 135.215 34.6466 133.467 35.8557C131.797 37.0255 129.778 37.6885 127.254 37.6885C120.691 37.6885 116.652 33.1256 116.652 27.081Z" fill="black"/>
<path d="M67.7506 22.3233C70.236 22.3233 71.634 20.8413 71.634 18.6182C71.634 16.3955 70.197 15.0306 67.7506 15.0306H62.896V22.3233H67.7506ZM56.4875 9.21987H67.4798C70.8582 9.21987 73.3437 10.1557 75.0524 11.7937C76.8388 13.4705 77.8485 15.8496 77.8485 18.6574C77.8485 24.0001 74.1592 27.7831 68.4505 27.7831H62.896V37.1035H56.4875V9.21987Z" fill="black"/>
<path d="M47.7981 24.0001C47.7981 37.2548 37.0981 48 23.8992 48C10.7002 48 0.000244141 37.2548 0.000244141 24.0001C0.000244141 10.7451 10.7002 0.000148773 23.8992 0.000148773C37.0981 0.000148773 47.7981 10.7451 47.7981 24.0001Z" fill="white"/>
<path d="M23.8989 0.000148773C10.7 0.000148773 0 10.7453 0 24.0001C0 34.1677 6.29935 42.8595 15.1895 46.3565C14.9807 44.4576 14.7919 41.5373 15.2724 39.4643C15.7067 37.5912 18.0748 27.5348 18.0748 27.5348C18.0748 27.5348 17.36 26.0971 17.36 23.9715C17.36 20.6344 19.2861 18.1429 21.6844 18.1429C23.7234 18.1429 24.7082 19.6802 24.7082 21.5236C24.7082 23.5828 23.4027 26.6615 22.729 29.5145C22.1659 31.9033 23.9218 33.8513 26.268 33.8513C30.5156 33.8513 33.7808 29.3536 33.7808 22.8612C33.7808 17.1148 29.6691 13.0971 23.798 13.0971C16.998 13.0971 13.0066 18.2191 13.0066 23.5124C13.0066 25.5751 13.7978 27.787 14.7852 28.9894C14.9805 29.2271 15.0091 29.4352 14.9509 29.6778C14.7695 30.4358 14.3664 32.066 14.2872 32.3996C14.183 32.8389 13.9408 32.9322 13.4879 32.7205C10.5031 31.3253 8.63689 26.9428 8.63689 23.4229C8.63689 15.8522 14.1144 8.89939 24.4279 8.89939C32.7184 8.89939 39.1612 14.8321 39.1612 22.7607C39.1612 31.0319 33.9679 37.6886 26.7597 37.6886C24.338 37.6886 22.0613 36.4252 21.282 34.9328C21.282 34.9328 20.0837 39.5151 19.7931 40.638C19.2536 42.7226 17.7971 45.3356 16.8228 46.9298C19.0589 47.625 21.4352 48 23.8989 48C37.0981 48 47.798 37.2548 47.798 24.0001C47.798 10.7453 37.0981 0.000148773 23.8989 0.000148773Z" fill="black"/>
</svg>
