<svg width="96" height="100" viewBox="0 0 96 100" fill="none" xmlns="http://www.w3.org/2000/svg">
<mask id="path-1-inside-1_2554_746" fill="white">
<path d="M88.4928 83.5086H7.50716C3.64329 83.5086 0.5 80.4102 0.5 76.6016V70.5582C0.5 70.0079 0.952564 69.562 1.51064 69.562H94.4894C95.0476 69.562 95.5 70.0079 95.5 70.5582V76.6016C95.5 80.4102 92.3565 83.5086 88.4928 83.5086ZM2.52128 71.5544V76.6016C2.52128 79.3116 4.75782 81.5162 7.50716 81.5162H88.493C91.2424 81.5162 93.4789 79.3116 93.4789 76.6016V71.5544H2.52128Z"/>
</mask>
<path d="M88.4928 83.5086H7.50716C3.64329 83.5086 0.5 80.4102 0.5 76.6016V70.5582C0.5 70.0079 0.952564 69.562 1.51064 69.562H94.4894C95.0476 69.562 95.5 70.0079 95.5 70.5582V76.6016C95.5 80.4102 92.3565 83.5086 88.4928 83.5086ZM2.52128 71.5544V76.6016C2.52128 79.3116 4.75782 81.5162 7.50716 81.5162H88.493C91.2424 81.5162 93.4789 79.3116 93.4789 76.6016V71.5544H2.52128Z" fill="#6D95FC"/>
<path d="M2.52128 71.5544V67.5544H-1.47872V71.5544H2.52128ZM93.4789 71.5544H97.4789V67.5544H93.4789V71.5544ZM88.4928 79.5086H7.50716V87.5086H88.4928V79.5086ZM7.50716 79.5086C5.7979 79.5086 4.5 78.147 4.5 76.6016H-3.5C-3.5 82.6735 1.48867 87.5086 7.50716 87.5086V79.5086ZM4.5 76.6016V70.5582H-3.5V76.6016H4.5ZM4.5 70.5582C4.5 72.2717 3.10665 73.562 1.51064 73.562V65.562C-1.20152 65.562 -3.5 67.7441 -3.5 70.5582H4.5ZM1.51064 73.562H94.4894V65.562H1.51064V73.562ZM94.4894 73.562C92.893 73.562 91.5 72.2712 91.5 70.5582H99.5C99.5 67.7446 97.2023 65.562 94.4894 65.562V73.562ZM91.5 70.5582V76.6016H99.5V70.5582H91.5ZM91.5 76.6016C91.5 78.1469 90.202 79.5086 88.4928 79.5086V87.5086C94.5111 87.5086 99.5 82.6736 99.5 76.6016H91.5ZM-1.47872 71.5544V76.6016H6.52128V71.5544H-1.47872ZM-1.47872 76.6016C-1.47872 81.5749 2.6032 85.5162 7.50716 85.5162V77.5162C6.91244 77.5162 6.52128 77.0484 6.52128 76.6016H-1.47872ZM7.50716 85.5162H88.493V77.5162H7.50716V85.5162ZM88.493 85.5162C93.397 85.5162 97.4789 81.5749 97.4789 76.6016H89.4789C89.4789 77.0484 89.0878 77.5162 88.493 77.5162V85.5162ZM97.4789 76.6016V71.5544H89.4789V76.6016H97.4789ZM93.4789 67.5544H2.52128V75.5544H93.4789V67.5544Z" fill="#FBFBFB" mask="url(#path-1-inside-1_2554_746)"/>
<mask id="path-3-inside-2_2554_746" fill="white">
<path d="M94.4894 71.5541H1.51064C0.952564 71.5541 0.5 71.1082 0.5 70.5579V26.0286C0.5 21.4694 4.26301 17.7603 8.8883 17.7603H44.0589C44.617 17.7603 45.0696 18.2063 45.0696 18.7564C45.0696 19.3065 44.617 19.7526 44.0589 19.7526H8.8883C5.37754 19.7526 2.52128 22.568 2.52128 26.0286V69.5617H93.4787V26.0286C93.4787 22.568 90.6225 19.7526 87.1117 19.7526H64.0685C63.5103 19.7526 63.0579 19.3065 63.0579 18.7564C63.0579 18.2063 63.5103 17.7603 64.0685 17.7603H87.1117C91.737 17.7603 95.5 21.4694 95.5 26.0286V70.5579C95.5 71.1082 95.0476 71.5541 94.4894 71.5541Z"/>
</mask>
<path d="M94.4894 71.5541H1.51064C0.952564 71.5541 0.5 71.1082 0.5 70.5579V26.0286C0.5 21.4694 4.26301 17.7603 8.8883 17.7603H44.0589C44.617 17.7603 45.0696 18.2063 45.0696 18.7564C45.0696 19.3065 44.617 19.7526 44.0589 19.7526H8.8883C5.37754 19.7526 2.52128 22.568 2.52128 26.0286V69.5617H93.4787V26.0286C93.4787 22.568 90.6225 19.7526 87.1117 19.7526H64.0685C63.5103 19.7526 63.0579 19.3065 63.0579 18.7564C63.0579 18.2063 63.5103 17.7603 64.0685 17.7603H87.1117C91.737 17.7603 95.5 21.4694 95.5 26.0286V70.5579C95.5 71.1082 95.0476 71.5541 94.4894 71.5541Z" fill="#6D95FC"/>
<path d="M2.52128 69.5617H-1.47872V73.5617H2.52128V69.5617ZM93.4787 69.5617V73.5617H97.4787V69.5617H93.4787ZM94.4894 67.5541H1.51064V75.5541H94.4894V67.5541ZM1.51064 67.5541C3.10665 67.5541 4.5 68.8444 4.5 70.5579H-3.5C-3.5 73.372 -1.20152 75.5541 1.51064 75.5541V67.5541ZM4.5 70.5579V26.0286H-3.5V70.5579H4.5ZM4.5 26.0286C4.5 23.7327 6.41762 21.7603 8.8883 21.7603V13.7603C2.1084 13.7603 -3.5 19.2062 -3.5 26.0286H4.5ZM8.8883 21.7603H44.0589V13.7603H8.8883V21.7603ZM44.0589 21.7603C42.4624 21.7603 41.0696 20.4696 41.0696 18.7564H49.0696C49.0696 15.9431 46.7716 13.7603 44.0589 13.7603V21.7603ZM41.0696 18.7564C41.0696 17.0433 42.4624 15.7526 44.0589 15.7526V23.7526C46.7716 23.7526 49.0696 21.5698 49.0696 18.7564H41.0696ZM44.0589 15.7526H8.8883V23.7526H44.0589V15.7526ZM8.8883 15.7526C3.22293 15.7526 -1.47872 20.3048 -1.47872 26.0286H6.52128C6.52128 24.8313 7.53215 23.7526 8.8883 23.7526V15.7526ZM-1.47872 26.0286V69.5617H6.52128V26.0286H-1.47872ZM2.52128 73.5617H93.4787V65.5617H2.52128V73.5617ZM97.4787 69.5617V26.0286H89.4787V69.5617H97.4787ZM97.4787 26.0286C97.4787 20.3048 92.7771 15.7526 87.1117 15.7526V23.7526C88.4678 23.7526 89.4787 24.8313 89.4787 26.0286H97.4787ZM87.1117 15.7526H64.0685V23.7526H87.1117V15.7526ZM64.0685 15.7526C65.6654 15.7526 67.0579 17.0438 67.0579 18.7564H59.0579C59.0579 21.5693 61.3551 23.7526 64.0685 23.7526V15.7526ZM67.0579 18.7564C67.0579 20.4691 65.6654 21.7603 64.0685 21.7603V13.7603C61.3551 13.7603 59.0579 15.9436 59.0579 18.7564H67.0579ZM64.0685 21.7603H87.1117V13.7603H64.0685V21.7603ZM87.1117 21.7603C89.5824 21.7603 91.5 23.7327 91.5 26.0286H99.5C99.5 19.2062 93.8916 13.7603 87.1117 13.7603V21.7603ZM91.5 26.0286V70.5579H99.5V26.0286H91.5ZM91.5 70.5579C91.5 68.8449 92.893 67.5541 94.4894 67.5541V75.5541C97.2023 75.5541 99.5 73.3715 99.5 70.5579H91.5Z" fill="#FBFBFB" mask="url(#path-3-inside-2_2554_746)"/>
<mask id="path-5-inside-3_2554_746" fill="white">
<path d="M32.1345 41.3682C31.8703 41.3682 31.6122 41.266 31.4198 41.0766C31.1568 40.8174 31.0596 40.437 31.1665 40.086L35.4542 25.998C35.5023 25.84 35.5893 25.6963 35.7075 25.5798L59.2903 2.33425C60.8174 0.829023 62.8478 0 65.0071 0C67.1668 0 69.197 0.829023 70.7241 2.33425C72.2514 3.83948 73.0924 5.84081 73.0924 7.96946C73.0924 10.0983 72.2514 12.0994 70.7241 13.6049L47.1417 36.8502C47.0234 36.9667 46.8777 37.0526 46.7174 37.0998L32.4249 41.3262C32.3293 41.3547 32.2315 41.3682 32.1345 41.3682ZM37.3168 26.8108L33.6418 38.8864L45.8925 35.2636L69.2951 12.1959C70.4403 11.0668 71.0711 9.56594 71.0711 7.96946C71.0711 6.37297 70.4403 4.87193 69.2951 3.74305C68.1498 2.61398 66.627 1.99236 65.0071 1.99236C63.3875 1.99236 61.8646 2.61418 60.7194 3.74305L37.3168 26.8108Z"/>
</mask>
<path d="M32.1345 41.3682C31.8703 41.3682 31.6122 41.266 31.4198 41.0766C31.1568 40.8174 31.0596 40.437 31.1665 40.086L35.4542 25.998C35.5023 25.84 35.5893 25.6963 35.7075 25.5798L59.2903 2.33425C60.8174 0.829023 62.8478 0 65.0071 0C67.1668 0 69.197 0.829023 70.7241 2.33425C72.2514 3.83948 73.0924 5.84081 73.0924 7.96946C73.0924 10.0983 72.2514 12.0994 70.7241 13.6049L47.1417 36.8502C47.0234 36.9667 46.8777 37.0526 46.7174 37.0998L32.4249 41.3262C32.3293 41.3547 32.2315 41.3682 32.1345 41.3682ZM37.3168 26.8108L33.6418 38.8864L45.8925 35.2636L69.2951 12.1959C70.4403 11.0668 71.0711 9.56594 71.0711 7.96946C71.0711 6.37297 70.4403 4.87193 69.2951 3.74305C68.1498 2.61398 66.627 1.99236 65.0071 1.99236C63.3875 1.99236 61.8646 2.61418 60.7194 3.74305L37.3168 26.8108Z" fill="#6D95FC"/>
<path d="M31.4198 41.0766L28.6118 43.9253L28.6133 43.9268L31.4198 41.0766ZM31.1665 40.086L34.9929 41.2514L34.9932 41.2506L31.1665 40.086ZM35.4542 25.998L31.6277 24.8328L31.6275 24.8333L35.4542 25.998ZM35.7075 25.5798L32.8995 22.731H32.8995L35.7075 25.5798ZM59.2903 2.33425L62.0983 5.18298V5.18298L59.2903 2.33425ZM70.7241 2.33425L67.9161 5.18298L67.9163 5.18317L70.7241 2.33425ZM70.7241 13.6049L67.9161 10.7561L67.9161 10.7561L70.7241 13.6049ZM47.1417 36.8502L49.9496 39.6989L49.9496 39.6989L47.1417 36.8502ZM46.7174 37.0998L45.5871 33.2628L45.5831 33.264L46.7174 37.0998ZM32.4249 41.3262L31.2907 37.4904L31.2826 37.4928L32.4249 41.3262ZM37.3168 26.8108L34.5089 23.9621L33.7858 24.6749L33.4901 25.6462L37.3168 26.8108ZM33.6418 38.8864L29.8151 37.7217L27.6521 44.8288L34.7761 42.7222L33.6418 38.8864ZM45.8925 35.2636L47.0268 39.0994L47.9872 38.8154L48.7005 38.1124L45.8925 35.2636ZM69.2951 12.1959L72.103 15.0446L72.1033 15.0443L69.2951 12.1959ZM69.2951 3.74305L66.4868 6.59153L66.4871 6.59178L69.2951 3.74305ZM60.7194 3.74305L63.5274 6.59178L60.7194 3.74305ZM32.1345 37.3682C32.8966 37.3682 33.6535 37.6624 34.2262 38.2264L28.6133 43.9268C29.5708 44.8696 30.844 45.3682 32.1345 45.3682V37.3682ZM34.2277 38.2278C35.0163 39.0051 35.3229 40.1683 34.9929 41.2514L27.3401 38.9205C26.7963 40.7057 27.2973 42.6296 28.6118 43.9253L34.2277 38.2278ZM34.9932 41.2506L39.2809 27.1626L31.6275 24.8333L27.3398 38.9213L34.9932 41.2506ZM39.2808 27.1631C39.1343 27.6441 38.8703 28.0787 38.5155 28.4285L32.8995 22.731C32.3082 23.3139 31.8704 24.0358 31.6277 24.8328L39.2808 27.1631ZM38.5155 28.4285L62.0983 5.18298L56.4824 -0.514475L32.8995 22.731L38.5155 28.4285ZM62.0983 5.18298C62.8711 4.4213 63.8903 4 65.0071 4V-4C61.8052 -4 58.7638 -2.76325 56.4824 -0.514475L62.0983 5.18298ZM65.0071 4C66.1243 4 67.1434 4.4213 67.9161 5.18298L73.5321 -0.514475C71.2507 -2.76325 68.2094 -4 65.0071 -4V4ZM67.9163 5.18317C68.6871 5.94284 69.0924 6.92054 69.0924 7.96946H77.0924C77.0924 4.76109 75.8156 1.73613 73.5319 -0.51466L67.9163 5.18317ZM69.0924 7.96946C69.0924 9.01847 68.6872 9.99611 67.9161 10.7561L73.5321 16.4536C75.8156 14.2027 77.0924 11.1781 77.0924 7.96946H69.0924ZM67.9161 10.7561L44.3337 34.0014L49.9496 39.6989L73.5321 16.4536L67.9161 10.7561ZM44.3337 34.0014C44.686 33.6542 45.117 33.4013 45.5871 33.2628L47.8477 40.9368C48.6384 40.7039 49.3608 40.2793 49.9496 39.6989L44.3337 34.0014ZM45.5831 33.264L31.2907 37.4904L33.5592 45.162L47.8517 40.9356L45.5831 33.264ZM31.2826 37.4928C31.5711 37.4068 31.8589 37.3682 32.1345 37.3682V45.3682C32.6041 45.3682 33.0876 45.3026 33.5673 45.1596L31.2826 37.4928ZM33.4901 25.6462L29.8151 37.7217L37.4685 40.051L41.1435 27.9755L33.4901 25.6462ZM34.7761 42.7222L47.0268 39.0994L44.7582 31.4278L32.5075 35.0506L34.7761 42.7222ZM48.7005 38.1124L72.103 15.0446L66.4871 9.34713L43.0845 32.4149L48.7005 38.1124ZM72.1033 15.0443C74.0045 13.17 75.0711 10.6459 75.0711 7.96946H67.0711C67.0711 8.48602 66.8762 8.96354 66.4868 9.34738L72.1033 15.0443ZM75.0711 7.96946C75.0711 5.29326 74.0046 2.76869 72.103 0.894325L66.4871 6.59178C66.876 6.97516 67.0711 7.45269 67.0711 7.96946H75.0711ZM72.1033 0.894573C70.2033 -0.978566 67.6691 -2.00764 65.0071 -2.00764V5.99236C65.5848 5.99236 66.0963 6.20653 66.4868 6.59153L72.1033 0.894573ZM65.0071 -2.00764C62.3449 -2.00764 59.811 -0.978113 57.9114 0.894325L63.5274 6.59178C63.9183 6.20647 64.43 5.99236 65.0071 5.99236V-2.00764ZM57.9114 0.894325L34.5089 23.9621L40.1248 29.6596L63.5274 6.59178L57.9114 0.894325Z" fill="#6D95FC" mask="url(#path-5-inside-3_2554_746)"/>
<mask id="path-7-inside-4_2554_746" fill="white">
<path d="M39.9954 32.1736C38.8307 32.1736 37.6662 31.7367 36.7795 30.8628C35.0064 29.1149 35.0064 26.271 36.7795 24.5231C37.1741 24.1342 37.814 24.1342 38.2087 24.5231C38.6035 24.9122 38.6035 25.5428 38.2087 25.9319C37.2236 26.903 37.2236 28.4829 38.2087 29.454C39.1939 30.4251 40.7968 30.4251 41.782 29.454C42.1769 29.0651 42.8167 29.0653 43.2112 29.454C43.606 29.8431 43.606 30.4739 43.2112 30.8628C42.3247 31.7367 41.16 32.1736 39.9954 32.1736Z"/>
</mask>
<path d="M39.9954 32.1736C38.8307 32.1736 37.6662 31.7367 36.7795 30.8628C35.0064 29.1149 35.0064 26.271 36.7795 24.5231C37.1741 24.1342 37.814 24.1342 38.2087 24.5231C38.6035 24.9122 38.6035 25.5428 38.2087 25.9319C37.2236 26.903 37.2236 28.4829 38.2087 29.454C39.1939 30.4251 40.7968 30.4251 41.782 29.454C42.1769 29.0651 42.8167 29.0653 43.2112 29.454C43.606 29.8431 43.606 30.4739 43.2112 30.8628C42.3247 31.7367 41.16 32.1736 39.9954 32.1736Z" fill="#6D95FC"/>
<path d="M36.7795 30.8628L33.9714 33.7114L33.9719 33.7119L36.7795 30.8628ZM36.7795 24.5231L33.9715 21.6744L33.9714 21.6746L36.7795 24.5231ZM38.2087 24.5231L41.0167 21.6744L41.016 21.6737L38.2087 24.5231ZM41.782 29.454L38.9754 26.6039L38.974 26.6053L41.782 29.454ZM43.2112 29.454L46.0192 26.6053L46.0185 26.6046L43.2112 29.454ZM43.2112 30.8628L40.404 28.0134L40.4032 28.0141L43.2112 30.8628ZM39.9954 28.1736C39.8266 28.1736 39.6873 28.1125 39.5872 28.0138L33.9719 33.7119C35.6451 35.3609 37.8348 36.1736 39.9954 36.1736V28.1736ZM39.5876 28.0143C39.4037 27.833 39.4037 27.553 39.5876 27.3717L33.9714 21.6746C30.6092 24.9891 30.6092 30.3969 33.9714 33.7114L39.5876 28.0143ZM39.5875 27.3719C38.4243 28.5184 36.5635 28.5173 35.4015 27.3726L41.016 21.6737C39.0645 19.7511 35.9238 19.7501 33.9715 21.6744L39.5875 27.3719ZM35.4008 27.3719C34.2062 26.1943 34.2062 24.2607 35.4008 23.0832L41.0167 28.7807C43.0008 26.8249 43.0008 23.6301 41.0167 21.6744L35.4008 27.3719ZM35.4008 23.0832C32.8262 25.6209 32.8262 29.7651 35.4008 32.3028L41.0167 26.6053C41.6209 27.2008 41.6209 28.1851 41.0167 28.7807L35.4008 23.0832ZM35.4008 32.3028C37.9432 34.8089 42.0475 34.8089 44.5899 32.3028L38.974 26.6053C39.5461 26.0413 40.4446 26.0413 41.0167 26.6053L35.4008 32.3028ZM44.5885 32.3042C43.4264 33.4485 41.5664 33.4487 40.404 32.3035L46.0185 26.6046C44.0669 24.6819 40.9275 24.6817 38.9754 26.6039L44.5885 32.3042ZM40.4032 32.3028C39.209 31.1256 39.208 29.1917 40.404 28.0134L46.0185 33.7123C48.004 31.7562 48.0029 28.5606 46.0192 26.6053L40.4032 32.3028ZM40.4032 28.0141C40.3036 28.1123 40.1644 28.1736 39.9954 28.1736V36.1736C42.1556 36.1736 44.3458 35.361 46.0192 33.7116L40.4032 28.0141Z" fill="#6D95FC" mask="url(#path-7-inside-4_2554_746)"/>
<path d="M55.7639 18.4805C55.7639 18.4805 55.7638 18.4806 55.7638 18.4806L55.7639 18.4805ZM54.3854 17.0402L54.385 17.0405L54.3854 17.0402ZM54.36 17.0561L54.36 17.0561L54.36 17.0561ZM54.3601 17.0562L54.3645 17.0607L54.3601 17.0562Z" fill="#6D95FC" stroke="#6D95FC" stroke-width="4"/>
<mask id="path-10-inside-5_2554_746" fill="white">
<path d="M67.1515 16.7141C66.893 16.7141 66.634 16.6168 66.437 16.4224L56.4321 6.56059C56.0373 6.17148 56.0373 5.5407 56.4321 5.15179C56.8264 4.76288 57.4667 4.76288 57.8611 5.15179L67.866 15.0136C68.2608 15.4027 68.2608 16.0335 67.866 16.4224C67.6689 16.6168 67.41 16.7141 67.1515 16.7141Z"/>
</mask>
<path d="M67.1515 16.7141C66.893 16.7141 66.634 16.6168 66.437 16.4224L56.4321 6.56059C56.0373 6.17148 56.0373 5.5407 56.4321 5.15179C56.8264 4.76288 57.4667 4.76288 57.8611 5.15179L67.866 15.0136C68.2608 15.4027 68.2608 16.0335 67.866 16.4224C67.6689 16.6168 67.41 16.7141 67.1515 16.7141Z" fill="#6D95FC"/>
<path d="M66.437 16.4224L69.2464 13.5751L69.2449 13.5737L66.437 16.4224ZM56.4321 6.56059L59.24 3.71186L59.24 3.71186L56.4321 6.56059ZM56.4321 5.15179L59.2393 8.00124L59.2408 7.9998L56.4321 5.15179ZM57.8611 5.15179L55.0524 7.9998L55.0531 8.00052L57.8611 5.15179ZM67.866 15.0136L65.058 17.8623L67.866 15.0136ZM67.866 16.4224L65.0588 13.5729L65.0566 13.5751L67.866 16.4224ZM67.1515 12.7141C67.8905 12.7141 68.6573 12.9939 69.2464 13.5751L63.6275 19.2697C64.6107 20.2398 65.8954 20.7141 67.1515 20.7141V12.7141ZM69.2449 13.5737L59.24 3.71186L53.6241 9.40932L63.629 19.2711L69.2449 13.5737ZM59.24 3.71186C60.4342 4.88898 60.4353 6.82296 59.2393 8.00124L53.6248 2.30234C51.6393 4.25844 51.6404 7.45398 53.6241 9.40932L59.24 3.71186ZM59.2408 7.9998C58.0776 9.14688 56.2155 9.14688 55.0524 7.9998L60.6698 2.30378C58.718 0.378883 55.5752 0.378883 53.6233 2.30378L59.2408 7.9998ZM55.0531 8.00052L65.058 17.8623L70.674 12.1649L60.6691 2.30306L55.0531 8.00052ZM65.058 17.8623C63.8638 16.6852 63.8628 14.7512 65.0588 13.5729L70.6733 19.2718C72.6588 17.3157 72.6577 14.1202 70.674 12.1649L65.058 17.8623ZM65.0566 13.5751C65.6456 12.9939 66.4124 12.7141 67.1515 12.7141V20.7141C68.4076 20.7141 69.6922 20.2398 70.6754 19.2697L65.0566 13.5751Z" fill="#6D95FC" mask="url(#path-10-inside-5_2554_746)"/>
<mask id="path-12-inside-6_2554_746" fill="white">
<path d="M70.2339 61.5924H54.0637C50.7201 61.5924 47.9998 58.9111 47.9998 55.6153C47.9998 52.3196 50.7201 49.6382 54.0637 49.6382H76.2977C78.5268 49.6382 80.3402 47.8507 80.3402 45.6535V45.3531C80.3402 43.1559 78.5268 41.3683 76.2977 41.3683H32.1344C31.5763 41.3683 31.1238 40.9223 31.1238 40.3722C31.1238 39.8221 31.5763 39.376 32.1344 39.376H76.2977C79.6413 39.376 82.3615 42.0573 82.3615 45.3531V45.6535C82.3615 48.9493 79.6413 51.6306 76.2977 51.6306H54.0637C51.8346 51.6306 50.0211 53.4182 50.0211 55.6153C50.0211 57.8125 51.8346 59.6001 54.0637 59.6001H70.2339C70.7921 59.6001 71.2445 60.046 71.2445 60.5962C71.2445 61.1465 70.7921 61.5924 70.2339 61.5924Z"/>
</mask>
<path d="M70.2339 61.5924H54.0637C50.7201 61.5924 47.9998 58.9111 47.9998 55.6153C47.9998 52.3196 50.7201 49.6382 54.0637 49.6382H76.2977C78.5268 49.6382 80.3402 47.8507 80.3402 45.6535V45.3531C80.3402 43.1559 78.5268 41.3683 76.2977 41.3683H32.1344C31.5763 41.3683 31.1238 40.9223 31.1238 40.3722C31.1238 39.8221 31.5763 39.376 32.1344 39.376H76.2977C79.6413 39.376 82.3615 42.0573 82.3615 45.3531V45.6535C82.3615 48.9493 79.6413 51.6306 76.2977 51.6306H54.0637C51.8346 51.6306 50.0211 53.4182 50.0211 55.6153C50.0211 57.8125 51.8346 59.6001 54.0637 59.6001H70.2339C70.7921 59.6001 71.2445 60.046 71.2445 60.5962C71.2445 61.1465 70.7921 61.5924 70.2339 61.5924Z" fill="#6D95FC"/>
<path d="M70.2339 57.5924H54.0637V65.5924H70.2339V57.5924ZM54.0637 57.5924C52.8747 57.5924 51.9998 56.6478 51.9998 55.6153H43.9998C43.9998 61.1744 48.5654 65.5924 54.0637 65.5924V57.5924ZM51.9998 55.6153C51.9998 54.5828 52.8747 53.6382 54.0637 53.6382V45.6382C48.5654 45.6382 43.9998 50.0563 43.9998 55.6153H51.9998ZM54.0637 53.6382H76.2977V45.6382H54.0637V53.6382ZM76.2977 53.6382C80.6814 53.6382 84.3402 50.114 84.3402 45.6535H76.3402C76.3402 45.6523 76.3404 45.6474 76.3419 45.6405C76.3433 45.6337 76.3453 45.6279 76.3472 45.6235C76.3507 45.6151 76.3523 45.6158 76.3469 45.6211C76.3415 45.6264 76.3347 45.6309 76.3282 45.6336C76.3254 45.6348 76.3223 45.6357 76.3185 45.6365C76.315 45.6372 76.3084 45.6382 76.2977 45.6382V53.6382ZM84.3402 45.6535V45.3531H76.3402V45.6535H84.3402ZM84.3402 45.3531C84.3402 40.8926 80.6814 37.3683 76.2977 37.3683V45.3683C76.3084 45.3683 76.315 45.3694 76.3185 45.3701C76.3223 45.3708 76.3254 45.3718 76.3282 45.373C76.3347 45.3757 76.3415 45.3802 76.3469 45.3855C76.3523 45.3908 76.3507 45.3914 76.3472 45.3831C76.3453 45.3787 76.3433 45.3728 76.3419 45.3661C76.3404 45.3591 76.3402 45.3543 76.3402 45.3531H84.3402ZM76.2977 37.3683H32.1344V45.3683H76.2977V37.3683ZM32.1344 37.3683C33.731 37.3683 35.1238 38.659 35.1238 40.3722H27.1238C27.1238 43.1855 29.4217 45.3683 32.1344 45.3683V37.3683ZM35.1238 40.3722C35.1238 42.0853 33.731 43.376 32.1344 43.376V35.376C29.4217 35.376 27.1238 37.5588 27.1238 40.3722H35.1238ZM32.1344 43.376H76.2977V35.376H32.1344V43.376ZM76.2977 43.376C77.4867 43.376 78.3615 44.3206 78.3615 45.3531H86.3615C86.3615 39.794 81.7959 35.376 76.2977 35.376V43.376ZM78.3615 45.3531V45.6535H86.3615V45.3531H78.3615ZM78.3615 45.6535C78.3615 46.686 77.4867 47.6306 76.2977 47.6306V55.6306C81.7959 55.6306 86.3615 51.2126 86.3615 45.6535H78.3615ZM76.2977 47.6306H54.0637V55.6306H76.2977V47.6306ZM54.0637 47.6306C49.68 47.6306 46.0211 51.1549 46.0211 55.6153H54.0211C54.0211 55.6166 54.0209 55.6214 54.0194 55.6284C54.018 55.6351 54.0161 55.641 54.0142 55.6454C54.0106 55.6537 54.0091 55.653 54.0145 55.6478C54.0198 55.6425 54.0267 55.638 54.0331 55.6353C54.036 55.6341 54.0391 55.6331 54.0428 55.6323C54.0464 55.6316 54.0529 55.6306 54.0637 55.6306V47.6306ZM46.0211 55.6153C46.0211 60.0758 49.68 63.6001 54.0637 63.6001V55.6001C54.0529 55.6001 54.0464 55.5991 54.0428 55.5983C54.0391 55.5976 54.036 55.5966 54.0331 55.5954C54.0267 55.5927 54.0198 55.5882 54.0145 55.5829C54.0091 55.5776 54.0106 55.577 54.0142 55.5853C54.0161 55.5897 54.018 55.5956 54.0194 55.6023C54.0209 55.6093 54.0211 55.6141 54.0211 55.6153H46.0211ZM54.0637 63.6001H70.2339V55.6001H54.0637V63.6001ZM70.2339 63.6001C68.6375 63.6001 67.2445 62.3092 67.2445 60.5962H75.2445C75.2445 57.7827 72.9468 55.6001 70.2339 55.6001V63.6001ZM67.2445 60.5962C67.2445 58.8833 68.6375 57.5924 70.2339 57.5924V65.5924C72.9468 65.5924 75.2445 63.4098 75.2445 60.5962H67.2445Z" fill="#6D95FC" mask="url(#path-12-inside-6_2554_746)"/>
<mask id="path-14-inside-7_2554_746" fill="white">
<path d="M31.8298 62.5886H1.51064C0.952564 62.5886 0.5 62.1427 0.5 61.5924C0.5 61.0421 0.952564 60.5962 1.51064 60.5962H31.8298C32.3879 60.5962 32.8404 61.0421 32.8404 61.5924C32.8404 62.1427 32.3879 62.5886 31.8298 62.5886Z"/>
</mask>
<path d="M31.8298 62.5886H1.51064C0.952564 62.5886 0.5 62.1427 0.5 61.5924C0.5 61.0421 0.952564 60.5962 1.51064 60.5962H31.8298C32.3879 60.5962 32.8404 61.0421 32.8404 61.5924C32.8404 62.1427 32.3879 62.5886 31.8298 62.5886Z" fill="#6D95FC"/>
<path d="M31.8298 58.5886H1.51064V66.5886H31.8298V58.5886ZM1.51064 58.5886C3.10665 58.5886 4.5 59.8789 4.5 61.5924H-3.5C-3.5 64.4065 -1.20152 66.5886 1.51064 66.5886V58.5886ZM4.5 61.5924C4.5 63.3059 3.10665 64.5962 1.51064 64.5962V56.5962C-1.20152 56.5962 -3.5 58.7783 -3.5 61.5924H4.5ZM1.51064 64.5962H31.8298V56.5962H1.51064V64.5962ZM31.8298 64.5962C30.2338 64.5962 28.8404 63.3059 28.8404 61.5924H36.8404C36.8404 58.7783 34.5419 56.5962 31.8298 56.5962V64.5962ZM28.8404 61.5924C28.8404 59.8789 30.2338 58.5886 31.8298 58.5886V66.5886C34.5419 66.5886 36.8404 64.4065 36.8404 61.5924H28.8404Z" fill="#FBFBFB" mask="url(#path-14-inside-7_2554_746)"/>
<mask id="path-16-inside-8_2554_746" fill="white">
<path d="M31.8298 56.6115H1.51064C0.952564 56.6115 0.5 56.1656 0.5 55.6153C0.5 55.065 0.952564 54.6191 1.51064 54.6191H31.8298C32.3879 54.6191 32.8404 55.065 32.8404 55.6153C32.8404 56.1656 32.3879 56.6115 31.8298 56.6115Z"/>
</mask>
<path d="M31.8298 56.6115H1.51064C0.952564 56.6115 0.5 56.1656 0.5 55.6153C0.5 55.065 0.952564 54.6191 1.51064 54.6191H31.8298C32.3879 54.6191 32.8404 55.065 32.8404 55.6153C32.8404 56.1656 32.3879 56.6115 31.8298 56.6115Z" fill="#6D95FC"/>
<path d="M31.8298 52.6115H1.51064V60.6115H31.8298V52.6115ZM1.51064 52.6115C3.10665 52.6115 4.5 53.9018 4.5 55.6153H-3.5C-3.5 58.4294 -1.20152 60.6115 1.51064 60.6115V52.6115ZM4.5 55.6153C4.5 57.3288 3.10665 58.6191 1.51064 58.6191V50.6191C-1.20152 50.6191 -3.5 52.8012 -3.5 55.6153H4.5ZM1.51064 58.6191H31.8298V50.6191H1.51064V58.6191ZM31.8298 58.6191C30.2338 58.6191 28.8404 57.3288 28.8404 55.6153H36.8404C36.8404 52.8012 34.5419 50.6191 31.8298 50.6191V58.6191ZM28.8404 55.6153C28.8404 53.9018 30.2338 52.6115 31.8298 52.6115V60.6115C34.5419 60.6115 36.8404 58.4294 36.8404 55.6153H28.8404Z" fill="#FBFBFB" mask="url(#path-16-inside-8_2554_746)"/>
<mask id="path-18-inside-9_2554_746" fill="white">
<path d="M31.8298 50.6345H1.51064C0.952564 50.6345 0.5 50.1886 0.5 49.6383C0.5 49.0882 0.952564 48.6421 1.51064 48.6421H31.8298C32.3879 48.6421 32.8404 49.0882 32.8404 49.6383C32.8404 50.1886 32.3879 50.6345 31.8298 50.6345Z"/>
</mask>
<path d="M31.8298 50.6345H1.51064C0.952564 50.6345 0.5 50.1886 0.5 49.6383C0.5 49.0882 0.952564 48.6421 1.51064 48.6421H31.8298C32.3879 48.6421 32.8404 49.0882 32.8404 49.6383C32.8404 50.1886 32.3879 50.6345 31.8298 50.6345Z" fill="#6D95FC"/>
<path d="M31.8298 46.6345H1.51064V54.6345H31.8298V46.6345ZM1.51064 46.6345C3.10667 46.6345 4.5 47.9248 4.5 49.6383H-3.5C-3.5 52.4523 -1.20154 54.6345 1.51064 54.6345V46.6345ZM4.5 49.6383C4.5 51.3515 3.10718 52.6421 1.51064 52.6421V44.6421C-1.20205 44.6421 -3.5 46.8249 -3.5 49.6383H4.5ZM1.51064 52.6421H31.8298V44.6421H1.51064V52.6421ZM31.8298 52.6421C30.2332 52.6421 28.8404 51.3515 28.8404 49.6383H36.8404C36.8404 46.8249 34.5425 44.6421 31.8298 44.6421V52.6421ZM28.8404 49.6383C28.8404 47.9248 30.2338 46.6345 31.8298 46.6345V54.6345C34.542 54.6345 36.8404 52.4523 36.8404 49.6383H28.8404Z" fill="#FBFBFB" mask="url(#path-18-inside-9_2554_746)"/>
<mask id="path-20-inside-10_2554_746" fill="white">
<path d="M59.117 95.4627H36.883C36.3249 95.4627 35.8723 95.0168 35.8723 94.4665V82.5123C35.8723 81.962 36.3249 81.5161 36.883 81.5161H59.117C59.6753 81.5161 60.1276 81.962 60.1276 82.5123V94.4665C60.1276 95.0168 59.6753 95.4627 59.117 95.4627ZM37.8936 93.4703H58.1064V83.5085H37.8936V93.4703Z"/>
</mask>
<path d="M59.117 95.4627H36.883C36.3249 95.4627 35.8723 95.0168 35.8723 94.4665V82.5123C35.8723 81.962 36.3249 81.5161 36.883 81.5161H59.117C59.6753 81.5161 60.1276 81.962 60.1276 82.5123V94.4665C60.1276 95.0168 59.6753 95.4627 59.117 95.4627ZM37.8936 93.4703H58.1064V83.5085H37.8936V93.4703Z" fill="#6D95FC"/>
<path d="M37.8936 93.4703H33.8936V97.4703H37.8936V93.4703ZM58.1064 93.4703V97.4703H62.1064V93.4703H58.1064ZM58.1064 83.5085H62.1064V79.5085H58.1064V83.5085ZM37.8936 83.5085V79.5085H33.8936V83.5085H37.8936ZM59.117 91.4627H36.883V99.4627H59.117V91.4627ZM36.883 91.4627C38.479 91.4627 39.8723 92.753 39.8723 94.4665H31.8723C31.8723 97.2806 34.1708 99.4627 36.883 99.4627V91.4627ZM39.8723 94.4665V82.5123H31.8723V94.4665H39.8723ZM39.8723 82.5123C39.8723 84.2258 38.479 85.5161 36.883 85.5161V77.5161C34.1708 77.5161 31.8723 79.6982 31.8723 82.5123H39.8723ZM36.883 85.5161H59.117V77.5161H36.883V85.5161ZM59.117 85.5161C57.5207 85.5161 56.1276 84.2253 56.1276 82.5123H64.1276C64.1276 79.6987 61.8299 77.5161 59.117 77.5161V85.5161ZM56.1276 82.5123V94.4665H64.1276V82.5123H56.1276ZM56.1276 94.4665C56.1276 92.7535 57.5207 91.4627 59.117 91.4627V99.4627C61.8299 99.4627 64.1276 97.28 64.1276 94.4665H56.1276ZM37.8936 97.4703H58.1064V89.4703H37.8936V97.4703ZM62.1064 93.4703V83.5085H54.1064V93.4703H62.1064ZM58.1064 79.5085H37.8936V87.5085H58.1064V79.5085ZM33.8936 83.5085V93.4703H41.8936V83.5085H33.8936Z" fill="#FBFBFB" mask="url(#path-20-inside-10_2554_746)"/>
<mask id="path-22-inside-11_2554_746" fill="white">
<path d="M54.0636 95.4627H41.9359C41.3779 95.4627 40.9253 95.0168 40.9253 94.4665V82.5123C40.9253 81.962 41.3779 81.5161 41.9359 81.5161H54.0636C54.6219 81.5161 55.0742 81.962 55.0742 82.5123V94.4665C55.0742 95.0168 54.6219 95.4627 54.0636 95.4627ZM42.9466 93.4703H53.053V83.5085H42.9466V93.4703Z"/>
</mask>
<path d="M54.0636 95.4627H41.9359C41.3779 95.4627 40.9253 95.0168 40.9253 94.4665V82.5123C40.9253 81.962 41.3779 81.5161 41.9359 81.5161H54.0636C54.6219 81.5161 55.0742 81.962 55.0742 82.5123V94.4665C55.0742 95.0168 54.6219 95.4627 54.0636 95.4627ZM42.9466 93.4703H53.053V83.5085H42.9466V93.4703Z" fill="#6D95FC"/>
<path d="M42.9466 93.4703H38.9466V97.4703H42.9466V93.4703ZM53.053 93.4703V97.4703H57.053V93.4703H53.053ZM53.053 83.5085H57.053V79.5085H53.053V83.5085ZM42.9466 83.5085V79.5085H38.9466V83.5085H42.9466ZM54.0636 91.4627H41.9359V99.4627H54.0636V91.4627ZM41.9359 91.4627C43.5319 91.4627 44.9253 92.753 44.9253 94.4665H36.9253C36.9253 97.2806 39.2238 99.4627 41.9359 99.4627V91.4627ZM44.9253 94.4665V82.5123H36.9253V94.4665H44.9253ZM44.9253 82.5123C44.9253 84.2258 43.5319 85.5161 41.9359 85.5161V77.5161C39.2238 77.5161 36.9253 79.6982 36.9253 82.5123H44.9253ZM41.9359 85.5161H54.0636V77.5161H41.9359V85.5161ZM54.0636 85.5161C52.4673 85.5161 51.0742 84.2253 51.0742 82.5123H59.0742C59.0742 79.6987 56.7765 77.5161 54.0636 77.5161V85.5161ZM51.0742 82.5123V94.4665H59.0742V82.5123H51.0742ZM51.0742 94.4665C51.0742 92.7535 52.4673 91.4627 54.0636 91.4627V99.4627C56.7765 99.4627 59.0742 97.28 59.0742 94.4665H51.0742ZM42.9466 97.4703H53.053V89.4703H42.9466V97.4703ZM57.053 93.4703V83.5085H49.053V93.4703H57.053ZM53.053 79.5085H42.9466V87.5085H53.053V79.5085ZM38.9466 83.5085V93.4703H46.9466V83.5085H38.9466Z" fill="#FBFBFB" mask="url(#path-22-inside-11_2554_746)"/>
<mask id="path-24-inside-12_2554_746" fill="white">
<path d="M62.1491 99.4473H33.8513C32.1795 99.4473 30.8193 98.1066 30.8193 96.4588C30.8193 94.8109 32.1795 93.4702 33.8513 93.4702H62.1491C63.8209 93.4702 65.181 94.8109 65.181 96.4588C65.181 98.1066 63.8209 99.4473 62.1491 99.4473ZM33.8513 95.4626C33.294 95.4626 32.8406 95.9095 32.8406 96.4588C32.8406 97.0081 33.294 97.4549 33.8513 97.4549H62.1491C62.7064 97.4549 63.1598 97.0081 63.1598 96.4588C63.1598 95.9095 62.7064 95.4626 62.1491 95.4626H33.8513Z"/>
</mask>
<path d="M62.1491 99.4473H33.8513C32.1795 99.4473 30.8193 98.1066 30.8193 96.4588C30.8193 94.8109 32.1795 93.4702 33.8513 93.4702H62.1491C63.8209 93.4702 65.181 94.8109 65.181 96.4588C65.181 98.1066 63.8209 99.4473 62.1491 99.4473ZM33.8513 95.4626C33.294 95.4626 32.8406 95.9095 32.8406 96.4588C32.8406 97.0081 33.294 97.4549 33.8513 97.4549H62.1491C62.7064 97.4549 63.1598 97.0081 63.1598 96.4588C63.1598 95.9095 62.7064 95.4626 62.1491 95.4626H33.8513Z" fill="#6D95FC"/>
<path d="M62.1491 95.4473H33.8513V103.447H62.1491V95.4473ZM33.8513 95.4473C34.3341 95.4473 34.8193 95.8434 34.8193 96.4588H26.8193C26.8193 100.37 30.0248 103.447 33.8513 103.447V95.4473ZM34.8193 96.4588C34.8193 97.0742 34.3341 97.4702 33.8513 97.4702V89.4702C30.0248 89.4702 26.8193 92.5476 26.8193 96.4588H34.8193ZM33.8513 97.4702H62.1491V89.4702H33.8513V97.4702ZM62.1491 97.4702C61.6663 97.4702 61.181 97.0742 61.181 96.4588H69.181C69.181 92.5476 65.9755 89.4702 62.1491 89.4702V97.4702ZM61.181 96.4588C61.181 95.8434 61.6663 95.4473 62.1491 95.4473V103.447C65.9755 103.447 69.181 100.37 69.181 96.4588H61.181ZM33.8513 91.4626C31.1394 91.4626 28.8406 93.6462 28.8406 96.4588H36.8406C36.8406 98.1727 35.4486 99.4626 33.8513 99.4626V91.4626ZM28.8406 96.4588C28.8406 99.2713 31.1394 101.455 33.8513 101.455V93.4549C35.4486 93.4549 36.8406 94.7448 36.8406 96.4588H28.8406ZM33.8513 101.455H62.1491V93.4549H33.8513V101.455ZM62.1491 101.455C64.861 101.455 67.1598 99.2713 67.1598 96.4588H59.1598C59.1598 94.7448 60.5518 93.4549 62.1491 93.4549V101.455ZM67.1598 96.4588C67.1598 93.6462 64.861 91.4626 62.1491 91.4626V99.4626C60.5518 99.4626 59.1598 98.1727 59.1598 96.4588H67.1598ZM62.1491 91.4626H33.8513V99.4626H62.1491V91.4626Z" fill="#FBFBFB" mask="url(#path-24-inside-12_2554_746)"/>
</svg>
