<svg width="95" height="108" viewBox="0 0 95 108" fill="none" xmlns="http://www.w3.org/2000/svg">
<path d="M57.2321 102.421C57.7642 102.356 58.2225 101.997 58.4082 101.484C58.6141 100.915 58.4414 100.278 57.9762 99.8915C53.6127 96.2729 50.9387 91.0115 50.5887 85.3534C50.2387 79.6952 52.2439 74.144 56.1283 70.0159C60.0128 65.8869 65.432 63.5478 71.1009 63.5531C71.9864 63.554 72.8715 63.6097 73.7499 63.7221C74.1596 63.7734 74.5705 63.647 74.8794 63.3746C75.1888 63.1017 75.3662 62.71 75.3662 62.2982V17.3073C75.3646 15.7549 74.7473 14.267 73.6497 13.1694C72.5521 12.0718 71.0644 11.4545 69.512 11.4529H54.7643C53.9711 11.4529 53.3278 12.0961 53.3278 12.8893V17.7735V18.2735H52.8278H23.0556H22.5556V17.7735V12.8893C22.5556 12.5084 22.4042 12.1428 22.135 11.8735C21.8657 11.6043 21.5001 11.4529 21.1192 11.4529H6.35416C4.8019 11.4545 3.31406 12.0718 2.21651 13.1694C2.21651 13.1694 2.21651 13.1694 2.2165 13.1694M57.2321 102.421L0 17.3068C0.00172906 15.6219 0.671706 14.0071 1.86295 12.8158L2.2165 13.1694M57.2321 102.421H57.0572H6.35465C4.80295 102.419 3.31504 101.802 2.21736 100.704C1.11982 99.6063 0.502486 98.1185 0.5 96.567V17.307M57.2321 102.421L0.5 17.307M2.2165 13.1694C1.11895 14.267 0.501661 15.7547 0.5 17.307M2.2165 13.1694L0.5 17.307M6.35392 14.3261V14.3261L6.34944 14.3262C4.71198 14.3407 3.39005 15.6669 3.37969 17.304H3.37968V17.3072L3.37968 96.5678L3.37969 96.5684C3.38176 98.2101 4.70983 99.5427 6.35202 99.5488H6.35388H52.4408H53.4828L52.8308 98.736C49.1321 94.1249 47.3148 88.2848 47.7447 82.3888C48.1747 76.4928 50.819 70.9777 55.1473 66.9514C59.4758 62.9251 65.1678 60.6855 71.079 60.682C71.3812 60.682 71.6649 60.6822 71.9481 60.6985L72.4769 60.729V60.1993V17.3081V17.3075C72.4748 15.6625 71.1414 14.3292 69.4964 14.3271H69.4958H56.7008H56.2008V14.8271V19.7113C56.2008 20.0922 56.0494 20.4578 55.7802 20.727C55.5109 20.9963 55.1453 21.1477 54.7644 21.1477H21.1193C20.3259 21.1477 19.6829 20.5052 19.6829 19.7113V14.8271V14.3271L19.1829 14.3271L6.35392 14.3261Z" fill="white" stroke="black"/>
<path d="M30.7883 6.83955H30.3711H21.1194C20.3262 6.83955 19.683 7.48277 19.683 8.27597V19.7104C19.683 20.5043 20.3261 21.1468 21.1194 21.1468H54.7645H54.7649C55.5583 21.1468 56.2013 20.5043 56.2013 19.7104V8.27597C56.2013 7.89502 56.05 7.52946 55.7807 7.2602C55.5114 6.99093 55.1459 6.83955 54.7649 6.83955H45.521H45.1038L45.0291 6.42911C44.6233 4.20053 43.1918 2.29282 41.1651 1.2791C39.1387 0.266347 36.7534 0.266344 34.727 1.27908L30.7883 6.83955ZM30.7883 6.83955L30.863 6.42911M30.7883 6.83955L30.863 6.42911M30.863 6.42911C31.2687 4.2006 32.7002 2.29305 34.7268 1.27917L30.863 6.42911ZM22.5558 18.274L22.5558 17.774L22.5555 10.2124L22.5555 9.71239H23.0555H32.1835H32.1859C32.5921 9.71432 32.9799 9.54398 33.254 9.24384C33.5226 8.94887 33.6564 8.5572 33.6246 8.16167L33.6241 8.15822C33.6 7.98966 33.6 7.84349 33.6 7.72193V7.71233V7.69947L33.6002 7.69947C33.6393 6.18017 34.4708 4.79215 35.7944 4.04329L22.5558 18.274ZM22.5558 18.274H23.0558H52.8281H53.3281V17.774V10.2124V9.71239H52.8281L43.6689 9.71239L43.6665 9.7124C43.2601 9.71432 42.8714 9.54381 42.5975 9.24384M22.5558 18.274L42.5975 9.24384M42.5975 9.24384C42.3236 8.94301 42.1903 8.54106 42.2301 8.1364L42.2301 8.13622M42.5975 9.24384L42.2301 8.13622M42.2301 8.13622C42.2435 7.99896 42.2515 7.86408 42.2515 7.71233H42.2516M42.2301 8.13622L42.2516 7.71233M42.2516 7.71233L42.2513 7.69979M42.2516 7.71233L42.2513 7.69979M42.2513 7.69979C42.2132 6.17994 41.3804 4.79198 40.0579 4.04328M42.2513 7.69979L40.0579 4.04328M40.0579 4.04328C38.7355 3.29465 37.117 3.29456 35.7946 4.0432L40.0579 4.04328Z" fill="white" stroke="black"/>
<path d="M11.2713 93.6024C10.4781 93.6024 9.83484 92.9592 9.83484 92.1659V21.7045C9.83484 20.9106 10.4779 20.2681 11.2713 20.2681C12.0646 20.2681 12.7077 20.9106 12.7077 21.7045V92.1659C12.7077 92.5466 12.5565 92.9116 12.2866 93.1821C12.0174 93.4511 11.652 93.6024 11.2713 93.6024Z" fill="#6D95FC" stroke="black"/>
<path d="M64.6015 64.5292C63.8083 64.5292 63.165 63.886 63.165 63.0928V21.702C63.165 20.9088 63.8083 20.2656 64.6015 20.2656C65.3947 20.2656 66.0379 20.9088 66.0379 21.702V63.0928C66.0379 63.4738 65.8865 63.8393 65.6172 64.1086L65.9708 64.4621L65.6172 64.1086C65.348 64.3779 64.9824 64.5292 64.6015 64.5292Z" fill="#6D95FC" stroke="black"/>
<path d="M56.2915 69.2896H18.6253C17.8319 69.2896 17.1888 68.6471 17.1888 67.8532C17.1888 67.06 17.8321 66.4167 18.6253 66.4167H56.2915C57.0847 66.4167 57.7279 67.06 57.7279 67.8532C57.7279 68.6471 57.0848 69.2896 56.2915 69.2896Z" fill="#6D95FC" stroke="black"/>
<path d="M50.9381 76.781H18.6275C17.8343 76.781 17.191 76.1378 17.191 75.3446C17.191 74.5507 17.8341 73.9082 18.6275 73.9082H50.9381C51.7314 73.9082 52.3745 74.5507 52.3745 75.3446C52.3745 76.1378 51.7313 76.781 50.9381 76.781Z" fill="#6D95FC" stroke="black"/>
<path d="M49.1632 84.2698H18.6253C17.8321 84.2698 17.1888 83.6266 17.1888 82.8334C17.1888 82.0402 17.8321 81.397 18.6253 81.397H49.1632C49.9564 81.397 50.5996 82.0402 50.5996 82.8334C50.5996 83.6266 49.9564 84.2698 49.1632 84.2698Z" fill="#6D95FC" stroke="black"/>
<path d="M50.0285 91.7588H18.6275C17.8343 91.7588 17.191 91.1156 17.191 90.3224C17.191 89.5292 17.8343 88.886 18.6275 88.886H50.0285C50.8224 88.886 51.4649 89.5291 51.4649 90.3224C51.4649 91.1158 50.8224 91.7588 50.0285 91.7588Z" fill="#6D95FC" stroke="black"/>
<path d="M87.6364 100.618L87.6364 100.618C92.0242 96.2315 94.4924 90.2821 94.5 84.0769C94.4999 77.8695 92.0352 71.9164 87.6459 67.5262C83.2565 63.1368 77.3037 60.6703 71.0964 60.6694L87.6364 100.618ZM87.6364 100.618C83.2486 105.006 77.2992 107.474 71.0942 107.48C64.887 107.48 58.9336 105.014 54.5442 100.624M87.6364 100.618L54.5442 100.624M54.5442 100.624C50.1548 96.235 47.6892 90.2816 47.6892 84.074M54.5442 100.624L47.6892 84.074M47.6892 84.074C47.6892 77.8666 50.1556 71.913 54.5451 67.5245M47.6892 84.074L54.5451 67.5245M54.5451 67.5245C58.9354 63.135 64.8888 60.6695 71.0963 60.6694L54.5451 67.5245ZM71.5946 63.5608V63.5445H71.0946C65.6489 63.5445 60.4266 65.7082 56.5758 69.5581L56.5758 69.5582C52.7249 73.4091 50.5621 78.6314 50.5621 84.0771C50.5621 89.5228 52.7249 94.7451 56.5758 98.5959L56.5758 98.596C60.4266 102.446 65.6489 104.61 71.0946 104.61C76.5404 104.61 81.7626 102.446 85.6126 98.5959C89.4635 94.7451 91.6272 89.5228 91.6272 84.0771V84.0763C91.6192 78.6344 89.4529 73.4174 85.6039 69.5703C81.8729 65.841 76.8555 63.6936 71.5946 63.5608Z" fill="white" stroke="black"/>
<path d="M64.8426 91.5117L64.842 91.5111L62.4969 89.1686L62.4966 89.1683L62.4961 89.1678L62.496 89.1676C62.2271 88.8988 62.0762 88.5334 62.0762 88.1519C62.0762 87.771 62.2275 87.4056 62.4973 87.1365L62.4975 87.1363C63.0588 86.5757 63.9689 86.5759 64.529 87.1368L64.5292 87.137L65.4974 88.1052L65.851 88.4587L66.2045 88.1052L77.6513 76.6611C78.2158 76.1291 79.103 76.1414 79.6524 76.6907C80.2017 77.2401 80.214 78.1272 79.6821 78.6917L66.8589 91.5149C66.8588 91.515 66.8586 91.5152 66.8585 91.5153C66.5917 91.7806 66.2318 91.9305 65.855 91.9336C65.4749 91.9324 65.1109 91.7805 64.8426 91.5117Z" fill="#6D95FC" stroke="black"/>
<path d="M58.876 96.3022L58.876 96.3022C62.1164 99.5433 66.5109 101.363 71.0938 101.363C75.6746 101.358 80.0662 99.5367 83.3059 96.2977C86.5449 93.0589 88.3673 88.6672 88.3732 84.0865C88.3739 79.5044 86.5532 75.1088 83.3138 71.8685C80.0732 68.6272 75.6784 66.8065 71.0961 66.8057L58.876 96.3022ZM58.876 96.3022C55.6356 93.0618 53.8158 88.6668 53.8158 84.0836M58.876 96.3022L53.8158 84.0836M71.0946 69.6812H71.0952C74.9144 69.6857 78.5763 71.2045 81.2763 73.9053C81.2763 73.9054 81.2763 73.9054 81.2764 73.9055M71.0946 69.6812L80.9228 74.2589L81.2764 73.9055M71.0946 69.6812C67.2741 69.6812 63.6096 71.1991 60.9076 73.9009L60.9075 73.901C58.2066 76.6019 56.6886 80.2667 56.6886 84.0871C56.6886 87.9076 58.2066 91.5721 60.9075 94.2741L60.9076 94.2742C63.6094 96.9751 67.2742 98.4931 71.0946 98.4931C74.915 98.4931 78.5795 96.9751 81.2807 94.2742L81.2807 94.2742C83.9826 91.5723 85.5005 87.9076 85.5005 84.0871V84.0865C85.4961 80.2673 83.9773 76.6054 81.2764 73.9055M71.0946 69.6812L81.2764 73.9055M53.8158 84.0836C53.8158 79.5013 55.6364 75.1066 58.8768 71.8659M53.8158 84.0836L58.8768 71.8659M58.8768 71.8659C58.8769 71.8659 58.8769 71.8659 58.8769 71.8659C62.1182 68.6255 66.5131 66.8057 71.096 66.8057L58.8768 71.8659Z" fill="white" stroke="black"/>
<path d="M33.1436 55.8504V56.18V60.5059C33.1436 61.2991 33.7869 61.9423 34.5801 61.9423H41.2892C41.6699 61.9423 42.0353 61.791 42.3045 61.522C42.5744 61.2514 42.7256 60.8864 42.7256 60.5058V56.1799V55.8496L43.0295 55.72C44.0038 55.3045 44.9237 54.7725 45.7686 54.1348L45.9023 54.0339H46.0698H46.0707H46.2047L46.3207 54.101L50.0674 56.2647L50.0676 56.2648C50.7545 56.6619 51.6331 56.427 52.0299 55.7411L55.3845 49.9324L33.1436 55.8504ZM33.1436 55.8504L32.8407 55.7205C31.8676 55.3031 30.9486 54.7715 30.1021 54.1366L29.8379 53.9385L29.552 54.1036L25.9214 56.2004M33.1436 55.8504L25.9214 56.2004M25.9214 56.2004H25.9204L25.8043 56.2675C25.4748 56.4579 25.0823 56.5098 24.7145 56.4111L24.5849 56.894L24.7145 56.4111C24.3466 56.3124 24.0328 56.0713 23.8422 55.7415C23.8422 55.7414 23.8422 55.7414 23.8421 55.7414L20.4874 49.9325L25.9214 56.2004ZM19.8607 48.7118L20.3435 48.8414C20.2449 49.209 20.2966 49.6015 20.4872 49.9322L19.8607 48.7118ZM19.8607 48.7118L20.3435 48.8414C20.4422 48.4734 20.6834 48.1597 21.0132 47.969L24.7579 45.808L25.0442 45.6428M19.8607 48.7118L25.0442 45.6428M25.0442 45.6428L25.0044 45.3148M25.0442 45.6428L25.0044 45.3148M25.0044 45.3148C24.877 44.2638 24.877 43.2011 25.0044 42.15L25.0442 41.822M25.0044 45.3148L25.0442 41.822M25.0442 41.822L24.7579 41.6568M25.0442 41.822L24.7579 41.6568M24.7579 41.6568L21.0132 39.4958L24.7579 41.6568ZM20.3435 38.6234L20.3435 38.6235C20.4422 38.9913 20.6832 39.305 21.013 39.4956L20.3435 38.6234ZM20.3435 38.6234C20.2448 38.2557 20.2966 37.8631 20.4874 37.5323L23.8421 31.7234C23.8422 31.7234 23.8422 31.7234 23.8422 31.7233C24.0328 31.3935 24.3466 31.1524 24.7145 31.0537L24.7145 31.0537M20.3435 38.6234L24.7145 31.0537M24.7145 31.0537C25.0823 30.955 25.4748 31.0069 25.8043 31.1973L25.8045 31.1974M24.7145 31.0537L25.8045 31.1974M25.8045 31.1974L29.5512 33.3612L29.6672 33.4282M25.8045 31.1974L29.6672 33.4282M29.6672 33.4282H29.8012M29.6672 33.4282H29.8012M29.8012 33.4282H29.8021H29.969M29.8012 33.4282H29.969M29.969 33.4282L30.1025 33.3278M29.969 33.4282L30.1025 33.3278M30.1025 33.3278C30.9478 32.6924 31.8673 32.161 32.8404 31.7445L33.1436 31.6147M30.1025 33.3278L33.1436 31.6147M33.1436 31.6147V31.2848M33.1436 31.6147V31.2848M33.1436 31.2848V26.9572C33.1436 26.1633 33.7867 25.5208 34.5801 25.5208H41.2892M33.1436 31.2848L41.2892 25.5208M41.2892 25.5208C41.6701 25.5208 42.0357 25.6721 42.305 25.9414C42.5742 26.2107 42.7256 26.5762 42.7256 26.9572V30.5254V31.2822V31.283H43.2252M41.2892 25.5208L43.2252 31.283M43.2252 31.283L43.0294 31.7421C44.0036 32.1576 44.9231 32.6897 45.7696 33.3254L46.0336 33.5236L46.3196 33.3587L50.0672 31.1975L50.0676 31.1973C50.3971 31.0068 50.7896 30.9549 51.1574 31.0536L51.287 30.5707L51.1574 31.0536C51.5254 31.1524 51.8391 31.3935 52.0298 31.7234L55.3846 37.5323L43.2252 31.283ZM54.8589 39.4956C55.1887 39.305 55.4297 38.9913 55.5284 38.6234C55.627 38.2558 55.5753 37.8632 55.3847 37.5326L54.8589 39.4956ZM54.8589 39.4956C54.8588 39.4956 54.8587 39.4957 54.8587 39.4957L51.2283 41.5898H50.7955L50.865 42.1513C50.9299 42.6749 50.9615 43.2022 50.9607 43.7307L50.9607 43.7323C50.9615 44.2607 50.9299 44.7897 50.8673 45.3158L50.8284 45.6431L51.1139 45.8079L54.8586 47.9689C55.1885 48.1596 55.4297 48.4733 55.5284 48.8413C55.627 49.2089 55.5753 49.6014 55.3847 49.9321L54.8589 39.4956ZM36.0155 59.0694L36.0156 58.5693L36.0165 54.8298C36.0165 54.8297 36.0165 54.8297 36.0165 54.8296C36.0164 54.1957 35.602 53.6374 34.9963 53.454L34.9954 53.4538C33.501 52.9984 32.1303 52.2057 30.9896 51.1378L30.9888 51.137C30.5281 50.7038 29.8377 50.6236 29.2895 50.9397L26.0463 52.8128L25.6133 53.0629L25.3633 52.6299L23.9446 50.1729L23.6946 49.7399L24.1277 49.4899L27.3685 47.6193C27.3686 47.6192 27.3687 47.6192 27.3687 47.6192C27.9171 47.3022 28.1932 46.6641 28.049 46.0482L28.0489 46.0478C27.6935 44.5242 27.6935 42.9389 28.0489 41.4153C28.1925 40.7993 27.9164 40.1625 27.3683 39.8455L24.1277 37.975L23.6946 37.725L23.9446 37.292L25.3633 34.835L25.6133 34.402L26.0463 34.6521L29.2895 36.5252C29.2895 36.5252 29.2896 36.5253 29.2896 36.5253C29.8377 36.8413 30.528 36.7611 30.9888 36.3278L30.9896 36.3271C32.1304 35.2592 33.501 34.4665 34.9954 34.0111L34.9963 34.0109C35.6021 33.8275 36.0165 33.2691 36.0165 32.6351V28.8937V28.3937H36.5165H39.3527H39.8527V28.8937V32.6351C39.8527 33.2686 40.2684 33.8279 40.8749 34.0107L40.8765 34.0111C42.3709 34.4665 43.7415 35.2591 44.8822 36.3271L44.8825 36.3273C45.3441 36.7601 46.0345 36.8395 46.5817 36.5229L46.5823 36.5226L49.8257 34.6519L50.2587 34.4022L50.5086 34.835L51.9272 37.2919L52.1772 37.725L51.7441 37.975L48.5035 39.8455C47.9554 40.1625 47.6793 40.7993 47.8229 41.4154L47.8231 41.4161C48.1757 42.9392 48.1756 44.5231 47.8231 46.0469L47.8228 46.0482C47.6786 46.6642 47.9548 47.3023 48.5033 47.6192L51.7441 49.4899L52.1772 49.7398L51.9272 50.1729L50.5086 52.6298L50.2585 53.0629L49.8255 52.8128L46.5823 50.9397L36.0155 59.0694ZM36.0155 59.0694H36.5156M36.0155 59.0694H36.5156M36.5156 59.0694H39.3527H39.8527M36.5156 59.0694H39.8527M39.8527 59.0694V58.5694M39.8527 59.0694V58.5694M39.8527 58.5694V54.8272C39.8527 54.1936 40.2683 53.6344 40.8749 53.4516L40.8759 53.4513M39.8527 58.5694L40.8759 53.4513M40.8759 53.4513C42.3714 52.9977 43.7422 52.2058 44.8823 51.1377L44.883 51.1371M40.8759 53.4513L44.883 51.1371M44.883 51.1371C45.3437 50.7038 46.034 50.6236 46.582 50.9395L44.883 51.1371ZM31.3313 36.6921C30.7098 37.2765 29.7787 37.3845 29.0397 36.9583L31.3313 36.6921Z" fill="#6D95FC" stroke="black"/>
<path d="M32.9319 48.7362L32.932 48.7363C34.2586 50.0637 36.0591 50.8105 37.9362 50.8106L32.9319 48.7362ZM32.9319 48.7362C31.6046 47.4089 30.8594 45.6083 30.8602 43.7311V43.7309M32.9319 48.7362L30.8602 43.7309M30.8602 43.7309C30.8602 41.8536 31.6063 40.053 32.9336 38.7265C34.2619 37.399 36.0617 36.6538 37.9391 36.6538C39.8163 36.6538 41.6169 37.3999 42.9444 38.7273C44.2717 40.0545 45.0169 41.855 45.017 43.7322C45.0154 45.6096 44.2685 47.4094 42.941 48.7361L42.9409 48.7362M30.8602 43.7309L42.9409 48.7362M42.9409 48.7362C41.6134 50.0637 39.8137 50.8097 37.9364 50.8106L42.9409 48.7362ZM37.936 39.5266L37.9364 39.5266C39.0519 39.5266 40.1212 39.9691 40.9109 40.7578L40.9111 40.758C41.6998 41.5468 42.1432 42.6161 42.1442 43.7323V43.7327C42.1442 44.8471 41.7018 45.9176 40.9126 46.7058C40.124 47.4943 39.0549 47.9377 37.9395 47.9378C37.9393 47.9378 37.9392 47.9378 37.939 47.9378V47.4378L37.936 39.5266ZM37.936 39.5266C36.8207 39.5276 35.7512 39.971 34.9633 40.76M37.936 39.5266L34.9633 40.76M34.9633 40.76C34.1745 41.5488 33.7321 42.6191 33.733 43.7337L34.9633 40.76Z" fill="#6D95FC" stroke="black"/>
</svg>
