<svg width="91" height="90" viewBox="0 0 91 90" fill="none" xmlns="http://www.w3.org/2000/svg">
<path d="M57.5447 45.2446C56.8295 44.5294 55.7001 44.5294 54.9848 45.207L41.9971 58.0064L35.8233 51.7573C35.108 51.0421 33.9786 51.0421 33.2634 51.7197C32.5482 52.435 32.5482 53.5644 33.2258 54.2796L41.9218 63.1262L57.5069 47.7669C58.2598 47.1269 58.2598 45.9599 57.5446 45.2447L57.5447 45.2446Z" fill="#6D95FC"/>
<path d="M49.5355 13.8691L49.5354 13.8691C48.3662 14.998 46.8874 15.6688 45.3385 15.628C43.7354 15.6061 42.2232 14.8386 41.1228 13.713C40.0219 12.5868 39.2937 11.0616 39.3146 9.47478L39.3147 9.46871L39.3147 9.46871C39.3969 6.22245 42.1796 3.52285 45.4236 3.52274L49.5355 13.8691ZM49.5355 13.8691L49.5417 13.8629M49.5355 13.8691L49.5417 13.8629M49.5417 13.8629C50.7077 12.6969 51.4574 11.1449 51.4574 9.59423C51.4574 8.03114 50.8401 6.51105 49.6922 5.36324C48.5557 4.22674 47.0396 3.5228 45.4238 3.52274L49.5417 13.8629ZM54.1091 9.62414L54.109 9.62414V9.63195C54.109 11.8539 53.1206 14.0622 51.4002 15.7477C49.753 17.3223 47.5784 18.242 45.4612 18.242H45.3145C40.6579 18.1687 36.6294 14.0276 36.7004 9.41368L36.7004 9.41352C36.7716 4.68342 40.6863 0.871094 45.4236 0.871094H45.4949C47.7703 0.907692 49.9398 1.83193 51.5789 3.50667L51.5789 3.50669L51.5827 3.51049C53.2593 5.18716 54.1445 7.3544 54.1091 9.62414Z" fill="white" stroke="black"/>
<path d="M59.7286 37.1035H59.706C58.969 37.0922 58.3775 36.5204 58.3459 35.7868V28.7946V28.733L58.331 28.6733C58.2964 28.5352 58.2159 28.4105 58.1405 28.3151C58.0561 28.2083 57.9435 28.0949 57.8006 27.9806C57.5141 27.7514 57.0946 27.5094 56.5031 27.3055L56.5012 27.3048L56.3401 27.7782L56.5012 27.3048L56.501 27.3048L56.5006 27.3046L56.4986 27.3039L56.4909 27.3013L56.4608 27.2911L56.3449 27.2517L55.9164 27.1064C55.5532 26.9833 55.0482 26.8126 54.4807 26.6219C53.3465 26.2407 51.9602 25.7785 50.959 25.4574L50.6684 25.3642L50.4527 25.5799L45.4607 30.5719L40.4687 25.5799L40.2529 25.3642L39.9624 25.4574C38.9612 25.7785 37.5749 26.2407 36.4407 26.6219C35.8732 26.8126 35.3681 26.9833 35.005 27.1064L34.5764 27.2517L34.4605 27.2911L34.4304 27.3013L34.4228 27.3039L34.4216 27.3043C33.2224 27.7044 32.658 28.3322 32.5805 28.8744L32.5755 28.9096V28.9452V35.7965C32.5755 36.4992 31.9711 37.1035 31.2685 37.1035C30.5591 37.1035 29.9615 36.5301 29.9615 35.7965V29.0581V29.0507L29.9613 29.0434C29.9298 27.9697 30.5575 25.8442 33.6101 24.8267L33.6101 24.8267L33.6121 24.826L33.452 24.3523L33.6122 24.826L33.6124 24.8259L33.6131 24.8257L33.616 24.8247L33.6275 24.8208L33.6724 24.8056L33.8442 24.7476L34.4676 24.5373C34.9892 24.3615 35.6983 24.1228 36.4486 23.8711C37.9518 23.3669 39.6121 22.8136 40.2652 22.6083L40.2652 22.6083L40.2683 22.6073L41.0317 22.3619L45.145 26.4752L45.4985 26.8288L45.8521 26.4752L49.9654 22.3619L50.7288 22.6073L50.7319 22.6083C51.3851 22.8135 53.0454 23.3669 54.5486 23.8711C55.2988 24.1228 56.0079 24.3615 56.5295 24.5373L57.1529 24.7476L57.3247 24.8056L57.3696 24.8208L57.3811 24.8247L57.384 24.8257L57.3847 24.8259L57.3849 24.826L57.5451 24.3523L57.385 24.826L57.387 24.8267C60.4489 25.8473 61.0984 27.9757 61.0364 29.0287L61.0356 29.0434V29.0581V35.7965C61.0356 36.506 60.4621 37.1035 59.7286 37.1035Z" fill="white" stroke="black"/>
<path d="M20.6227 65.8947L20.6226 65.8946C19.4521 67.0248 17.9354 67.6944 16.4254 67.6536C14.8224 67.6316 13.3103 66.8641 12.2099 65.7385C11.1091 64.6124 10.381 63.0874 10.4018 61.5006L20.6227 65.8947ZM20.6227 65.8947L20.6289 65.8885M20.6227 65.8947L20.6289 65.8885M20.6289 65.8885C21.7932 64.7241 22.5425 63.1749 22.5446 61.6264C22.5843 60.043 21.9155 58.5652 20.7857 57.3951L20.7858 57.395M20.6289 65.8885L20.7858 57.395M20.7858 57.395L20.7796 57.3888M20.7858 57.395L20.7796 57.3888M20.7796 57.3888C19.6444 56.2537 18.1287 55.5483 16.5486 55.5483H16.5109C13.233 55.5483 10.4431 58.2457 10.4018 61.5004L20.7796 57.3888ZM7.78755 61.4769L7.78755 61.4767C7.85876 56.7467 11.7735 52.9343 16.5108 52.9343H16.5822C18.8576 52.9709 21.0271 53.8952 22.6661 55.5699L22.6661 55.5699L22.6699 55.5737C24.3466 57.2504 25.2318 59.4176 25.1963 61.6874L25.1962 61.6874V61.6952C25.1962 63.9172 24.2078 66.1254 22.4875 67.8109C20.8402 69.3855 18.6656 70.3053 16.5485 70.3053H16.4037C11.7415 70.1953 7.71662 66.0869 7.78755 61.4769Z" fill="white" stroke="black"/>
<path d="M30.8169 89.1289H30.7936C30.0645 89.1174 29.5094 88.5548 29.5094 87.8221V80.82V80.7584L29.4945 80.6987C29.4599 80.5605 29.3794 80.4359 29.304 80.3405C29.2196 80.2337 29.107 80.1203 28.9641 80.006C28.6776 79.7768 28.2581 79.5348 27.6666 79.3309L27.6647 79.3302L27.5036 79.8035L27.6647 79.3302L27.6646 79.3302L27.6641 79.33L27.6621 79.3293L27.6544 79.3267L27.6243 79.3165L27.5085 79.2771L27.0799 79.1317C26.7167 79.0087 26.2117 78.838 25.6442 78.6473C24.51 78.266 23.1237 77.8039 22.1225 77.4828L21.8319 77.3896L21.6162 77.6053L16.6242 82.5973L11.6322 77.6053L11.4164 77.3896L11.1259 77.4828C10.1247 77.8039 8.7384 78.2661 7.60421 78.6473C7.03672 78.838 6.53166 79.0087 6.16847 79.1318L5.73994 79.2771L5.62405 79.3165L5.59396 79.3267L5.58628 79.3293L5.58513 79.3297C4.38589 79.7298 3.82148 80.3576 3.74402 80.8998L3.73899 80.935V80.9705V87.8219C3.73899 88.5246 3.13465 89.1289 2.43201 89.1289C1.72257 89.1289 1.12503 88.5554 1.12503 87.8219V81.0834V81.0761L1.12482 81.0688C1.09335 79.9951 1.72103 77.8696 4.77365 76.8521L4.77365 76.8521L4.77666 76.851L4.61554 76.3777L4.77672 76.851L4.7769 76.851L4.77762 76.8507L4.78049 76.8497L4.79188 76.8459L4.8365 76.8307L5.00712 76.7727L5.62618 76.5624C6.14423 76.3866 6.84863 76.1479 7.59414 75.8962C9.08813 75.392 10.7385 74.8388 11.391 74.6337L11.391 74.6337L11.3941 74.6327L12.1575 74.3873L16.2708 78.5006L16.6259 78.8557L16.9795 78.4991L21.0551 74.3878L21.8171 74.6327L21.8202 74.6337C22.4734 74.8389 24.1337 75.3923 25.6369 75.8965C26.3871 76.1482 27.0963 76.3869 27.6178 76.5627L28.2412 76.773L28.413 76.831L28.4579 76.8462L28.4694 76.8501L28.4723 76.8511L28.473 76.8513L28.4732 76.8514L28.6334 76.3777L28.4733 76.8514L28.4753 76.8521C31.5372 77.8727 32.1867 80.001 32.1247 81.0541L32.1239 81.0687V81.0834V87.8219C32.1239 88.5314 31.5504 89.1289 30.8169 89.1289Z" fill="white" stroke="black"/>
<path d="M78.572 57.3948L78.572 57.3949C79.7103 58.5739 80.331 60.0515 80.331 61.6196C80.331 63.1703 79.5812 64.7222 78.4153 65.8883L78.4091 65.8945L78.409 65.8944C77.2385 67.0246 75.7218 67.6942 74.2118 67.6534C72.6088 67.6314 71.0967 66.8639 69.9964 65.7384C68.8955 64.6122 68.1673 63.0872 68.1882 61.5004C68.1882 61.5003 68.1882 61.5002 68.1882 61.5002L68.6882 61.5068C68.7258 58.5706 71.2856 56.0482 74.2971 56.0481L78.572 57.3948ZM78.572 57.3948L78.5658 57.3886C77.4293 56.2521 75.9132 55.5482 74.2974 55.5481L78.572 57.3948ZM82.945 61.6495L82.9449 61.6495V61.6573C82.9449 63.8793 81.9565 66.0876 80.2362 67.7731C78.5889 69.3477 76.4143 70.2674 74.2971 70.2674H74.1504C69.4938 70.194 65.4653 66.053 65.5363 61.4391L65.5363 61.4389C65.6075 56.7088 69.5223 52.8965 74.2596 52.8965H74.3309C76.6063 52.9331 78.7758 53.8573 80.4148 55.5321L80.4148 55.5321L80.4186 55.5359C82.0953 57.2126 82.9805 59.3798 82.945 61.6495Z" fill="white" stroke="black"/>
<path d="M88.5645 89.1289H88.5412C87.8121 89.1174 87.257 88.5548 87.257 87.8221V80.82V80.7584L87.2421 80.6987C87.2075 80.5605 87.1271 80.4359 87.0517 80.3405C86.9673 80.2337 86.8546 80.1203 86.7117 80.006C86.4252 79.7768 86.0057 79.5348 85.4142 79.3309L85.4123 79.3302L85.2512 79.8035L85.4123 79.3302L85.4122 79.3302L85.4117 79.33L85.4097 79.3293L85.4021 79.3267L85.372 79.3165L85.2561 79.2771L84.8276 79.1317C84.4644 79.0087 83.9593 78.838 83.3918 78.6473C82.2576 78.266 80.8713 77.8039 79.8701 77.4828L79.5796 77.3896L79.3638 77.6053L74.3718 82.5973L69.3798 77.6053L69.1641 77.3896L68.8735 77.4828C67.8723 77.8039 66.486 78.2661 65.3518 78.6473C64.7843 78.838 64.2793 79.0087 63.9161 79.1318L63.4876 79.2771L63.3717 79.3165L63.3416 79.3267L63.3339 79.3293L63.3327 79.3297C62.1335 79.7298 61.5691 80.3576 61.4916 80.8998L61.4866 80.935V80.9705V87.8219C61.4866 88.5246 60.8823 89.1289 60.1796 89.1289C59.4702 89.1289 58.8727 88.5554 58.8727 87.8219V81.0834V81.0761L58.8724 81.0688C58.841 79.9951 59.4686 77.8696 62.5213 76.8521L62.5213 76.8521L62.5243 76.851L62.3631 76.3777L62.5243 76.851L62.5245 76.851L62.5252 76.8507L62.5281 76.8497L62.5395 76.8459L62.5841 76.8307L62.7547 76.7727L63.3738 76.5624C63.8918 76.3866 64.5962 76.1479 65.3418 75.8962C66.8357 75.392 68.4861 74.8388 69.1386 74.6337L69.1387 74.6337L69.1417 74.6327L69.9051 74.3873L74.0184 78.5006L74.3735 78.8557L74.7271 78.4991L78.8027 74.3878L79.5647 74.6327L79.5678 74.6337C80.221 74.8389 81.8813 75.3923 83.3845 75.8965C84.1347 76.1482 84.8439 76.3869 85.3655 76.5627L85.9888 76.773L86.1606 76.831L86.2056 76.8462L86.217 76.8501L86.2199 76.8511L86.2206 76.8513L86.2208 76.8514L86.381 76.3777L86.2209 76.8514L86.2229 76.8521C89.2848 77.8727 89.9343 80.001 89.8724 81.0541L89.8715 81.0687V81.0834V87.8219C89.8715 88.5314 89.298 89.1289 88.5645 89.1289Z" fill="white" stroke="black"/>
<path d="M25.396 37.5276C25.9983 36.8124 26.6383 36.0971 27.3159 35.4572C27.617 35.1937 27.617 34.7043 27.3535 34.4408C27.09 34.1396 26.6006 34.1396 26.3371 34.4031C25.6218 35.0807 24.9442 35.8337 24.3043 36.5866C24.0408 36.8878 24.0785 37.3396 24.3796 37.6031C24.5302 37.716 24.6808 37.7536 24.8314 37.7536C25.0572 37.7913 25.2454 37.7159 25.396 37.5276Z" fill="#6D95FC"/>
<path d="M18.9201 50.8547C19.2589 50.8547 19.5977 50.5912 19.6353 50.2524C19.7859 49.3113 19.9741 48.4077 20.2376 47.5042C20.3506 47.1278 20.1247 46.7137 19.7106 46.6008C19.3342 46.4878 18.92 46.7137 18.8071 47.1278C18.5436 48.0689 18.3554 49.0477 18.2048 50.064C18.1295 50.4781 18.4307 50.8169 18.8071 50.8922C18.8448 50.8546 18.8824 50.8547 18.9201 50.8547Z" fill="#6D95FC"/>
<path d="M20.9904 43.9279C21.2539 43.9279 21.5174 43.7773 21.668 43.5138C22.0445 42.6479 22.4962 41.8197 22.9856 40.9916C23.1738 40.6528 23.0609 40.201 22.7221 40.0128C22.3833 39.8246 21.9315 39.9375 21.7433 40.2763C21.2539 41.1421 20.7645 42.0079 20.3504 42.9114C20.1998 43.2878 20.3504 43.702 20.7269 43.8902C20.8022 43.8902 20.8775 43.9279 20.9904 43.9279Z" fill="#6D95FC"/>
<path d="M55.9632 77.6389L55.6997 77.7518C55.3232 77.9024 55.1726 78.3542 55.3232 78.693C55.4361 78.9565 55.6997 79.1447 56.0008 79.1447C56.1138 79.1447 56.1891 79.1071 56.302 79.0694L56.6031 78.9565C56.9796 78.8059 57.1302 78.3542 56.9796 77.9777C56.7537 77.6013 56.3396 77.4507 55.9632 77.6389Z" fill="#6D95FC"/>
<path d="M35.0711 77.7523C34.6946 77.6017 34.2805 77.7523 34.1299 78.1287C33.9793 78.5052 34.1299 78.9193 34.5064 79.0699C35.4099 79.4463 36.351 79.8228 37.2922 80.0863C37.3675 80.1239 37.4428 80.1239 37.5181 80.1239C37.8192 80.1239 38.1204 79.9357 38.1957 79.5969C38.3086 79.2205 38.0828 78.8063 37.7063 78.6934C36.8405 78.4299 35.9369 78.1288 35.0711 77.7523Z" fill="#6D95FC"/>
<path d="M51.6729 79.1066C50.7694 79.3325 49.8283 79.5207 48.8871 79.6337C48.473 79.6713 48.2095 80.0478 48.2471 80.4619C48.2847 80.8383 48.6235 81.1018 48.9623 81.1018H49.0753C50.0541 80.9513 51.0328 80.763 52.0115 80.5372C52.388 80.4242 52.6515 80.0478 52.5386 79.6713C52.4633 79.2196 52.0492 78.9937 51.6727 79.1067L51.6729 79.1066Z" fill="#6D95FC"/>
<path d="M41.8464 79.6349C41.4323 79.5973 41.0934 79.8608 41.0182 80.2749C40.9805 80.689 41.244 81.0278 41.6581 81.1031C42.6369 81.216 43.6157 81.329 44.6321 81.329H44.6697C45.0462 81.329 45.385 81.0278 45.385 80.6137C45.385 80.1996 45.0838 79.8608 44.6697 79.8608C43.7286 79.8232 42.7874 79.7479 41.8464 79.6349Z" fill="#6D95FC"/>
<path d="M69.1765 43.6265C69.2894 43.8901 69.5529 44.0406 69.8541 44.0406C69.967 44.0406 70.0423 44.003 70.1553 43.9653C70.5317 43.8148 70.6823 43.363 70.5317 43.0242C70.1176 42.1207 69.6659 41.2172 69.1765 40.3891C68.9882 40.0503 68.5365 39.9374 68.1977 40.1256C67.8589 40.3138 67.746 40.7656 67.9342 41.1044C68.3859 41.9326 68.8 42.7607 69.1765 43.6265Z" fill="#6D95FC"/>
<path d="M71.8491 50.4221H71.962C72.3761 50.3468 72.6397 49.9704 72.5644 49.5939C72.4138 48.6528 72.2256 47.7116 71.9997 46.8081C71.8868 46.4316 71.5103 46.2057 71.0962 46.281C70.7198 46.394 70.4939 46.7704 70.5692 47.1845C70.795 48.0504 70.9833 48.9161 71.1338 49.8196C71.2091 50.1584 71.5103 50.4219 71.8491 50.4219L71.8491 50.4221Z" fill="#6D95FC"/>
<path d="M64.585 34.516C64.2839 34.2525 63.8321 34.2525 63.5686 34.516C63.3051 34.8172 63.3051 35.2689 63.5686 35.5324C64.2462 36.1724 64.8862 36.8876 65.4885 37.6029C65.6391 37.7911 65.8273 37.8664 66.0531 37.8664C66.2037 37.8664 66.392 37.8287 66.5049 37.7158C66.8061 37.4523 66.8437 37.0005 66.6178 36.6994C65.9778 35.9465 65.3002 35.2313 64.585 34.516Z" fill="#6D95FC"/>
</svg>
