<svg width="16" height="16" viewBox="0 0 16 16" fill="none" xmlns="http://www.w3.org/2000/svg">
<path fill-rule="evenodd" clip-rule="evenodd" d="M4.77998 3.33333L5.99998 2H9.99998L11.22 3.33333H13.3333C14.0666 3.33333 14.6666 3.93333 14.6666 4.66667V12.6667C14.6666 13.4 14.0666 14 13.3333 14H2.66665C1.93331 14 1.33331 13.4 1.33331 12.6667V4.66667C1.33331 3.93333 1.93331 3.33333 2.66665 3.33333H4.77998ZM4.66665 8.66667C4.66665 10.5067 6.15998 12 7.99998 12C9.83998 12 11.3333 10.5067 11.3333 8.66667C11.3333 6.82667 9.83998 5.33333 7.99998 5.33333C6.15998 5.33333 4.66665 6.82667 4.66665 8.66667ZM7.99998 10.8C9.17819 10.8 10.1333 9.84487 10.1333 8.66667C10.1333 7.48846 9.17819 6.53333 7.99998 6.53333C6.82177 6.53333 5.86665 7.48846 5.86665 8.66667C5.86665 9.84487 6.82177 10.8 7.99998 10.8Z" fill="#969696"/>
</svg>
