<svg width="81" height="80" viewBox="0 0 81 80" fill="none" xmlns="http://www.w3.org/2000/svg">
<path d="M80.5 0H0.5V80H80.5V0Z" fill="#BC85F3"/>
<path d="M73.7956 6.7041H7.20471V73.2953H73.7956V6.7041Z" fill="#252653"/>
<path fill-rule="evenodd" clip-rule="evenodd" d="M32.6633 49.1828L35.4495 58.4514H43.2759L32.1619 21.1482C32.1412 21.0806 32.0895 21.0338 31.9809 21.0338L22.7848 21.0078C22.4281 21.0078 22.4178 21.1951 22.4488 21.5487C22.5625 22.8334 22.5005 23.5512 22.2368 24.555L12.3842 58.4566L19.8073 58.4462L22.1179 49.1776L32.6633 49.1828ZM31.3296 42.4629H23.7101L27.4061 27.4469L31.3296 42.4629ZM52.4048 46.1713L66.7703 46.1921C67.6749 45.0271 67.8403 42.8373 67.8145 41.4018C67.7163 35.5764 63.8807 30.0007 56.9538 29.9643C45.3229 29.8967 43.1208 44.6942 47.0805 53.2294C48.3263 55.9132 50.8282 57.6192 53.7644 58.4306C55.1032 58.7999 56.5248 58.9871 57.9618 58.9923C60.8049 59.0027 63.6946 58.311 66.0156 56.9795C66.0518 56.9587 66.1138 56.9587 66.119 56.917V56.7506L66.1138 51.9291C66.1138 51.7106 65.9484 51.5858 65.7003 51.6638C62.7641 52.5532 52.8184 55.3931 52.3583 46.4418C52.3531 46.3742 52.3376 46.1713 52.4048 46.1713ZM59.6057 41.3394H52.2911C52.3273 37.4281 54.1107 35.2071 56.8659 35.1967C59.3679 35.1863 60.96 36.934 61.0376 41.2458C61.0376 41.4434 61.0376 41.3394 61.0376 41.3394H59.6057Z" fill="#BC85F3"/>
</svg>
