<svg width="101" height="97" viewBox="0 0 101 97" fill="none" xmlns="http://www.w3.org/2000/svg">
<path d="M48.7701 31.1872C48.3398 31.1872 47.9096 31.0788 47.5176 30.8618C47.5176 30.8618 47.5176 30.8618 47.5176 30.8618L48.7701 31.1872ZM48.7701 31.1872C49.2003 31.1872 49.6305 31.0786 50.0225 30.8616L53.658 28.8511C54.4424 28.4173 54.9115 27.6399 54.9115 26.7711C54.9115 25.9024 54.4424 25.1249 53.658 24.6912L50.0225 22.6806C50.0225 22.6806 50.0225 22.6806 50.0225 22.6806L48.7701 31.1872ZM48.5969 24.4752L48.5969 24.4752C48.6355 24.4538 48.6967 24.4286 48.7711 24.4286C48.8227 24.4286 48.881 24.4406 48.9434 24.4754L48.9434 24.4754L52.579 26.486L52.579 26.486C52.7294 26.5691 52.7516 26.7002 52.7516 26.7715C52.7516 26.8429 52.7294 26.974 52.579 27.0571L52.579 27.0571L48.9432 29.0677L48.9432 29.0677C48.793 29.151 48.6624 29.1037 48.5968 29.0676L48.5968 29.0676C48.5314 29.0317 48.4245 28.9475 48.4245 28.7821V24.7608C48.4245 24.5956 48.5314 24.5114 48.5969 24.4752Z" fill="#6D95FC" stroke="white" stroke-width="0.05"/>
<path d="M39.9163 26.7711C39.9163 32.4093 44.7046 36.9945 50.5879 36.9945C56.4711 36.9945 61.2593 32.4093 61.2593 26.7711C61.2593 21.1329 56.4711 16.5478 50.5879 16.5478C44.7046 16.5478 39.9163 21.1329 39.9163 26.7711ZM42.0764 26.7711C42.0764 22.2771 45.8936 18.619 50.5879 18.619C55.2822 18.619 59.0992 22.2771 59.0992 26.7711C59.0992 31.2652 55.2822 34.9232 50.5879 34.9232C45.8936 34.9232 42.0764 31.2652 42.0764 26.7711Z" fill="#6D95FC" stroke="white" stroke-width="0.05"/>
<path d="M17.881 52.5676H83.2948C83.8904 52.5676 84.3749 52.105 84.3749 51.5319V2.01064C84.3749 1.43776 83.8904 0.975 83.2948 0.975H17.881C17.2856 0.975 16.8009 1.43775 16.8009 2.01064V51.5319C16.8009 52.105 17.2856 52.5676 17.881 52.5676ZM82.2148 3.04628V50.4963H18.9611V3.04628H82.2148Z" fill="#6D95FC" stroke="white" stroke-width="0.05"/>
<path d="M24.2113 14.1634H32.6518C33.2472 14.1634 33.7319 13.7007 33.7319 13.1278V8.0746C33.7319 7.50172 33.2472 7.03896 32.6518 7.03896H24.2113C23.6159 7.03896 23.1312 7.50172 23.1312 8.0746V13.1278C23.1312 13.7007 23.6159 14.1634 24.2113 14.1634ZM31.5717 9.11024V12.0922H25.2914V9.11024H31.5717Z" fill="#6D95FC" stroke="white" stroke-width="0.05"/>
<path d="M38.9822 14.1634H47.4227C48.0181 14.1634 48.5027 13.7007 48.5027 13.1278V8.0746C48.5027 7.50172 48.0181 7.03896 47.4227 7.03896H38.9822C38.3868 7.03896 37.9021 7.50172 37.9021 8.0746V13.1278C37.9021 13.7007 38.3868 14.1634 38.9822 14.1634ZM46.3426 9.11024V12.0922H40.0622V9.11024H46.3426Z" fill="#6D95FC" stroke="white" stroke-width="0.05"/>
<path d="M8.31517 79.8548H92.8607C96.9069 79.8548 100.201 76.7012 100.201 72.8227V66.6915C100.201 66.1185 99.7164 65.6559 99.1208 65.6559H2.05506C1.45968 65.6559 0.975 66.1185 0.975 66.6915V72.8227C0.975 76.7012 4.26867 79.8548 8.31517 79.8548ZM3.13512 72.8227V67.7272H98.0407V72.8227C98.0407 75.5572 95.7181 77.7836 92.8609 77.7836H8.31517C5.45776 77.7836 3.13512 75.5572 3.13512 72.8227Z" fill="white" stroke="#6D95FC" stroke-width="0.05"/>
<path d="M2.05506 67.7271H99.1208C99.7164 67.7271 100.201 67.2646 100.201 66.6915V21.516C100.201 16.8759 96.2602 13.1027 91.4188 13.1027H83.2948C82.6992 13.1027 82.2148 13.5654 82.2148 14.1383C82.2148 14.7112 82.6992 15.174 83.2948 15.174H91.4188C95.0711 15.174 98.0407 18.02 98.0407 21.516V65.6559H3.13512V21.516C3.13512 18.02 6.10472 15.174 9.75701 15.174H17.881C18.4764 15.174 18.9611 14.7112 18.9611 14.1383C18.9611 13.5654 18.4764 13.1027 17.881 13.1027H9.75701C4.91564 13.1027 0.975 16.8759 0.975 21.516V66.6915C0.975 67.2646 1.45968 67.7271 2.05506 67.7271Z" fill="white" stroke="#6D95FC" stroke-width="0.05"/>
<path d="M53.7532 14.1634H62.1937C62.7893 14.1634 63.2737 13.7007 63.2737 13.1278V8.0746C63.2737 7.50172 62.7893 7.03896 62.1937 7.03896H53.7532C53.1576 7.03896 52.6731 7.50172 52.6731 8.0746V13.1278C52.6731 13.7007 53.1576 14.1634 53.7532 14.1634ZM61.1136 9.11024V12.0922H54.8332V9.11024H61.1136Z" fill="#6D95FC" stroke="white" stroke-width="0.05"/>
<path d="M76.9644 14.1384H68.5239C67.9411 14.1384 67.4689 13.6859 67.4689 13.1278V8.0746C67.4689 7.51653 67.9411 7.06396 68.5239 7.06396H76.9644C77.5472 7.06396 78.0195 7.51653 78.0195 8.0746V13.1278C78.0195 13.6859 77.5472 14.1384 76.9644 14.1384ZM69.579 12.1172H75.9094V9.08524H69.579V12.1172Z" fill="#6D95FC" stroke="#6D95FC" stroke-width="0.05"/>
<path d="M32.6518 46.4788H24.2113C23.6287 46.4788 23.1562 46.0262 23.1562 45.4681V40.4149C23.1562 39.8569 23.6287 39.4043 24.2113 39.4043H32.6518C33.2344 39.4043 33.7069 39.8569 33.7069 40.4149V45.4681C33.7069 46.0262 33.2344 46.4788 32.6518 46.4788ZM25.2664 44.4575H31.5967V41.4256H25.2664V44.4575Z" fill="#6D95FC" stroke="#6D95FC" stroke-width="0.05"/>
<path d="M47.4227 46.4788H38.9822C38.3996 46.4788 37.9271 46.0262 37.9271 45.4681V40.4149C37.9271 39.8569 38.3996 39.4043 38.9822 39.4043H47.4227C48.0053 39.4043 48.4777 39.8569 48.4777 40.4149V45.4681C48.4777 46.0262 48.0053 46.4788 47.4227 46.4788ZM40.0372 44.4575H46.3676V41.4256H40.0372V44.4575Z" fill="#6D95FC" stroke="#6D95FC" stroke-width="0.05"/>
<path d="M62.1937 46.4788H53.7532C53.1704 46.4788 52.6981 46.0262 52.6981 45.4681V40.4149C52.6981 39.8569 53.1704 39.4043 53.7532 39.4043H62.1937C62.7765 39.4043 63.2487 39.8569 63.2487 40.4149V45.4681C63.2487 46.0262 62.7765 46.4788 62.1937 46.4788ZM54.8082 44.4575H61.1386V41.4256H54.8082V44.4575Z" fill="#6D95FC" stroke="#6D95FC" stroke-width="0.05"/>
<path d="M76.9644 46.4788H68.5239C67.9411 46.4788 67.4689 46.0262 67.4689 45.4681V40.4149C67.4689 39.8569 67.9411 39.4043 68.5239 39.4043H76.9644C77.5472 39.4043 78.0195 39.8569 78.0195 40.4149V45.4681C78.0195 46.0262 77.5472 46.4788 76.9644 46.4788ZM69.579 44.4575H75.9094V41.4256H69.579V44.4575Z" fill="#6D95FC" stroke="#6D95FC" stroke-width="0.05"/>
<path d="M38.9822 91.9823H62.1936C62.7891 91.9823 63.2736 91.5197 63.2736 90.9466V78.819C63.2736 78.2459 62.7891 77.7833 62.1936 77.7833H38.9822C38.3868 77.7833 37.9021 78.2459 37.9021 78.819V90.9466C37.9021 91.5197 38.3868 91.9823 38.9822 91.9823ZM61.1135 79.8546V89.911H40.0622V79.8546H61.1135Z" fill="white" stroke="#6D95FC" stroke-width="0.05"/>
<path d="M44.2576 91.9823H56.9183C57.5139 91.9823 57.9984 91.5197 57.9984 90.9466V78.819C57.9984 78.2459 57.5139 77.7833 56.9183 77.7833H44.2576C43.6622 77.7833 43.1775 78.2459 43.1775 78.819V90.9466C43.1775 91.5197 43.6622 91.9823 44.2576 91.9823ZM55.8383 79.8546V89.911H45.3376V79.8546H55.8383Z" fill="white" stroke="#6D95FC" stroke-width="0.05"/>
<path d="M35.817 96.0249H65.3588C67.1168 96.0249 68.549 94.6546 68.549 92.968C68.549 91.2813 67.1168 89.911 65.3588 89.911H35.817C34.059 89.911 32.6269 91.2813 32.6269 92.968C32.6269 94.6546 34.059 96.0249 35.817 96.0249ZM34.787 92.968C34.787 92.4255 35.2481 91.9823 35.817 91.9823H65.3588C65.9278 91.9823 66.3888 92.4255 66.3888 92.968C66.3888 93.5104 65.9278 93.9536 65.3588 93.9536H35.817C35.2481 93.9536 34.787 93.5104 34.787 92.968Z" fill="white" stroke="#6D95FC" stroke-width="0.05"/>
</svg>
