<svg width="90" height="94" viewBox="0 0 90 94" fill="none" xmlns="http://www.w3.org/2000/svg">
<g clip-path="url(#clip0_2554_818)">
<path d="M18.3567 74.2904C18.3567 68.6951 22.7127 64.1775 28.018 64.1775C33.3233 64.1775 37.6793 68.6951 37.6793 74.2904C37.6793 79.8857 33.3233 84.4033 28.018 84.4033C22.7127 84.4033 18.3567 79.8857 18.3567 74.2904ZM20.2599 74.2904C20.2599 78.726 23.7193 82.371 28.018 82.371C32.3167 82.371 35.776 78.726 35.776 74.2904C35.776 69.8548 32.3167 66.2097 28.018 66.2097C23.7193 66.2097 20.2599 69.8548 20.2599 74.2904Z" fill="#6D95FC" stroke="black"/>
<path d="M24.1631 74.2903C24.1631 72.038 25.9133 70.2419 28.0179 70.2419C30.1226 70.2419 31.8728 72.038 31.8728 74.2903C31.8728 76.5427 30.1226 78.3387 28.0179 78.3387C25.9133 78.3387 24.1631 76.5427 24.1631 74.2903ZM26.0663 74.2903C26.0663 75.3823 26.9205 76.3065 28.0179 76.3065C29.1153 76.3065 29.9695 75.3823 29.9695 74.2903C29.9695 73.1983 29.1153 72.2742 28.0179 72.2742C26.9205 72.2742 26.0663 73.1983 26.0663 74.2903Z" fill="#6D95FC" stroke="black"/>
<mask id="path-4-inside-1_2554_818" fill="white">
<path d="M88.1363 70.8214L77.6368 66.7097H75.9207V54.0501C79.2983 52.7979 81.7272 49.4367 81.7272 45.4839V43.1643C81.7272 41.3342 82.5444 39.5952 83.9688 38.3911C88.0793 34.9162 90.4369 29.7662 90.4369 24.2581C90.4369 19.0883 88.319 14.144 84.6259 10.6949C82.1653 8.39502 79.1363 6.92152 75.9207 6.34955V4.54839C75.9207 2.04062 73.9669 0 71.5659 0H4.79173C2.39068 0 0.43689 2.04062 0.43689 4.54839V71.258C0.43689 73.7658 2.39068 75.8064 4.79173 75.8064H9.20745C9.47445 77.5012 10.6169 78.9253 12.2182 79.4742C12.6582 79.6259 12.9991 79.9534 13.1572 80.3792C13.2324 80.5795 13.3082 80.7765 13.3911 80.9721C13.5622 81.3843 13.5421 81.8683 13.3361 82.296C12.4638 84.0972 12.7962 86.265 14.1623 87.6952L15.1856 88.7653C16.5517 90.1907 18.6273 90.5378 20.353 89.6262C20.7626 89.411 21.2265 89.39 21.6231 89.57C21.8091 89.6546 21.9977 89.7338 22.1908 89.8123C22.5959 89.9775 22.9108 90.3355 23.056 90.7931C23.6567 92.7112 25.3611 94 27.2942 94H28.7399C30.6737 94 32.3774 92.7099 32.9801 90.7931C33.1253 90.3335 33.4389 89.9775 33.8466 89.8123C34.0384 89.7338 34.227 89.6546 34.4143 89.568C34.8109 89.3907 35.271 89.4103 35.6818 89.6255C37.4063 90.5352 39.4839 90.188 40.8512 88.7625L41.8758 87.6938C43.2406 86.2656 43.5729 84.0956 42.7001 82.2967C42.6347 82.16 42.6204 82.0145 42.5925 81.8723H77.6369L88.1365 77.7592C89.5116 77.2177 90.4364 75.8248 90.4364 74.2903C90.4364 72.7558 89.5116 71.3629 88.1358 70.8214L88.1363 70.8214ZM46.8276 72.7742C46.6332 71.5416 45.9741 70.456 45.013 69.7419H75.9199V72.7742H46.8276ZM46.8276 75.8064H75.9212V78.8387H45.0143C45.9767 78.1246 46.6357 77.0389 46.8289 75.8064H46.8276ZM73.018 51.5484C69.816 51.5484 67.2116 48.8282 67.2116 45.4839H78.8245C78.8245 48.8282 76.22 51.5484 73.018 51.5484ZM72.0524 28.8064H73.983L73.1107 42.4516H72.9234L72.0524 28.8064ZM87.5341 24.2581C87.5341 28.8458 85.5685 33.1382 82.143 36.0338C80.2178 37.6609 79.0538 39.9697 78.8632 42.4516H76.0209L76.8919 28.8064H78.8242C81.2253 28.8064 83.1791 26.7658 83.1791 24.2581C83.1791 21.7503 81.2253 19.7097 78.8242 19.7097H78.637C76.352 19.7097 74.4416 21.5744 74.2924 23.9562L74.1764 25.7742H71.8596L71.7436 23.9576C71.5939 21.5744 69.6835 19.7097 67.3986 19.7097H67.2113C64.8103 19.7097 62.8565 21.7503 62.8565 24.2581C62.8565 26.7658 64.8103 28.8064 67.2113 28.8064H69.1432L70.0142 42.4516H67.1705C66.9748 39.9804 65.7889 37.6528 63.8305 35.979C59.8067 32.5406 57.8802 27.2525 58.6818 21.835C59.6545 15.2521 64.9775 9.9361 71.3413 9.19502C71.909 9.12869 72.4761 9.09687 73.038 9.09687C76.6178 9.09687 79.9954 10.4357 82.6913 12.9543C85.7689 15.8288 87.5341 19.9493 87.5341 24.2581ZM77.0869 25.7742L77.19 24.1565C77.2392 23.3633 77.8763 22.7419 78.6371 22.7419H78.8244C79.6253 22.7419 80.276 23.4215 80.276 24.2581C80.276 25.0946 79.6253 25.7742 78.8244 25.7742H77.0869ZM68.9488 25.7742H67.2113C66.4104 25.7742 65.7597 25.0946 65.7597 24.2581C65.7597 23.4215 66.4104 22.7419 67.2113 22.7419H67.3986C68.1594 22.7419 68.7965 23.3633 68.8457 24.1579L68.9488 25.7742ZM38.1796 24.2581H33.8248C32.3382 24.2581 31.0246 25.0432 30.2392 26.2337C29.0144 25.0174 27.3677 24.2581 25.5492 24.2581H25.1526C23.9162 24.2581 22.7023 24.608 21.6409 25.274L14.9537 29.4644V32.5677L21.2844 37.856C22.4891 38.8645 24.0043 39.4195 25.5491 39.4195C27.3682 39.4195 29.0143 38.66 30.2391 37.4438C31.0245 38.6344 32.338 39.4195 33.8247 39.4195H38.1795V42.4517H9.14724V21.2259H38.1795L38.1796 24.2581ZM25.5492 36.3871C24.6621 36.3871 23.791 36.069 23.0989 35.4882L17.9048 31.1504L23.1333 27.8738C23.7444 27.4921 24.4416 27.2904 25.1512 27.2904H25.5478C27.7103 27.2904 29.4699 29.1279 29.4699 31.3853V32.2923C29.4699 34.5495 27.7106 36.3871 25.5492 36.3871ZM33.8248 36.3871C33.0238 36.3871 32.3731 35.7075 32.3731 34.871V28.8064C32.3731 27.9699 33.0238 27.2903 33.8248 27.2903H55.876C56.4177 30.6698 57.844 33.8111 60.0694 36.3871H33.8248ZM4.79251 3.03226H71.5667C72.3677 3.03226 73.0183 3.71181 73.0183 4.54839V6.07534C72.3534 6.07399 71.6859 6.10445 71.0177 6.18161C66.7503 6.67841 62.8731 8.89366 60.0769 12.129H38.1799V6.06448H29.4702V12.129H26.567V6.06448H17.8573V12.129H14.9541V6.06448H6.24445V12.129H3.34123V4.54835C3.34123 3.71177 3.99186 3.03222 4.79284 3.03222L4.79251 3.03226ZM35.2764 12.129H32.3731V9.09677H35.2764V12.129ZM23.6635 12.129H20.7602V9.09677H23.6635V12.129ZM12.0506 12.129H9.14734V9.09677H12.0506V12.129ZM3.34089 71.258V15.1613H57.9597C56.8943 17.0565 56.1426 19.15 55.8139 21.3746C55.6701 22.3432 55.6241 23.3051 55.6241 24.2581H41.0834V18.1935H6.2447V45.4839H41.0834V39.4193H63.0152C63.8453 40.5199 64.31 41.8282 64.31 43.1731V45.4839C64.31 50.5006 68.2164 54.5806 73.0196 54.5806V66.7097H42.5939C42.6217 66.5668 42.636 66.4213 42.7014 66.2866C43.5737 64.4855 43.2412 62.3177 41.8752 60.8875L40.8519 59.8187C39.4871 58.3906 37.4089 58.0399 35.6845 58.9558C35.2769 59.1723 34.8122 59.194 34.4143 59.0119C34.2284 58.9273 34.0398 58.8481 33.8467 58.7696C33.4416 58.6045 33.1267 58.2464 32.9815 57.7889C32.3801 55.8694 30.6759 54.5806 28.7427 54.5806H27.2969C25.3632 54.5806 23.6594 55.8706 23.0567 57.7875C22.9115 58.2471 22.5979 58.6031 22.1902 58.7682C21.9984 58.8468 21.8098 58.926 21.6226 59.0126C21.226 59.1899 20.7658 59.1703 20.355 58.9551C18.6305 58.0454 16.5529 58.3926 15.1856 59.818L14.161 60.8868C12.7963 62.3149 12.4639 64.4849 13.3367 66.2839C13.5441 66.713 13.5629 67.1962 13.3905 67.6105C13.3095 67.8047 13.2337 68.0017 13.1585 68.2034C13.0004 68.6264 12.6576 68.9553 12.2195 69.107C10.6175 69.6552 9.47504 71.0793 9.20927 72.7741H4.79354C3.99257 72.7741 3.34193 72.0945 3.34193 71.2579L3.34089 71.258ZM40.1737 79.2765C40.1128 79.4403 40.0473 79.6028 39.9819 79.7618C39.4654 81.0039 39.5114 82.4259 40.1082 83.6611C40.4128 84.2906 40.2968 85.0487 39.8205 85.5476L38.7973 86.615C38.3196 87.1138 37.5951 87.2349 36.9898 86.9168C35.8097 86.2934 34.4469 86.2454 33.2591 86.7835C33.1055 86.8532 32.9499 86.9216 32.7944 86.9852C31.5767 87.4793 30.6404 88.5243 30.2236 89.8476C30.0124 90.5177 29.4168 90.9678 28.7409 90.9678H27.2952C26.6186 90.9678 26.0237 90.5177 25.8131 89.8456C25.3964 88.5237 24.4587 87.4808 23.2423 86.9859C23.0855 86.9223 22.93 86.8539 22.7777 86.7856C22.2288 86.5372 21.6443 86.4127 21.0558 86.4127C20.3689 86.4127 19.6813 86.5812 19.0423 86.9176C18.4396 87.2357 17.7138 87.1145 17.2362 86.6171L16.2142 85.5483C15.7366 85.0495 15.6206 84.2914 15.9252 83.6605C16.522 82.4266 16.568 81.0046 16.0528 79.764C15.9861 79.6036 15.9206 79.4411 15.8597 79.2787C15.3866 78.0069 14.3861 77.0289 13.1191 76.5937C12.4807 76.3737 12.0498 75.7517 12.0498 75.0457V73.5357C12.0498 72.8291 12.4808 72.2077 13.1243 71.9878C14.3899 71.5525 15.3884 70.5731 15.8622 69.3027C15.9232 69.1389 15.9886 68.9765 16.0541 68.8174C16.5705 67.5754 16.5245 66.1534 15.9277 64.9181C15.6231 64.2887 15.7391 63.5306 16.2154 63.0317L17.2387 61.963C17.7163 61.4655 18.4421 61.3457 19.0462 61.6624C20.2275 62.2858 21.5924 62.3359 22.7769 61.7958C22.9305 61.7261 23.086 61.6577 23.2415 61.5941C24.4592 61.1 25.3956 60.0549 25.8123 58.7316C26.0229 58.0629 26.6185 57.6128 27.2944 57.6128H28.7401C29.4167 57.6128 30.0116 58.0629 30.2222 58.735C30.6389 60.0569 31.5766 61.0998 32.793 61.5947C32.9498 61.6583 33.1053 61.7267 33.2576 61.795C34.4481 62.3345 35.8083 62.2864 36.991 61.6631C37.5963 61.3429 38.3208 61.4674 38.7971 61.9636L39.8191 63.0323C40.2967 63.5312 40.4127 64.2892 40.1081 64.9201C39.5113 66.154 39.4653 67.576 39.9805 68.8167C40.0472 68.9771 40.1127 69.1395 40.1736 69.302C40.6467 70.5737 41.6472 71.5517 42.9142 71.987C43.5545 72.2069 43.9854 72.829 43.9854 73.5349V75.0449C43.9854 75.7516 43.5545 76.3729 42.911 76.5929C41.6454 77.0281 40.6468 78.0061 40.1737 79.2765ZM87.1163 74.9196L78.8247 78.1671V70.4139L87.1163 73.6599C87.3658 73.7581 87.5343 74.0112 87.5343 74.2901C87.5343 74.5689 87.3658 74.8222 87.1163 74.9196Z"/>
</mask>
<path d="M88.1363 70.8214L77.6368 66.7097H75.9207V54.0501C79.2983 52.7979 81.7272 49.4367 81.7272 45.4839V43.1643C81.7272 41.3342 82.5444 39.5952 83.9688 38.3911C88.0793 34.9162 90.4369 29.7662 90.4369 24.2581C90.4369 19.0883 88.319 14.144 84.6259 10.6949C82.1653 8.39502 79.1363 6.92152 75.9207 6.34955V4.54839C75.9207 2.04062 73.9669 0 71.5659 0H4.79173C2.39068 0 0.43689 2.04062 0.43689 4.54839V71.258C0.43689 73.7658 2.39068 75.8064 4.79173 75.8064H9.20745C9.47445 77.5012 10.6169 78.9253 12.2182 79.4742C12.6582 79.6259 12.9991 79.9534 13.1572 80.3792C13.2324 80.5795 13.3082 80.7765 13.3911 80.9721C13.5622 81.3843 13.5421 81.8683 13.3361 82.296C12.4638 84.0972 12.7962 86.265 14.1623 87.6952L15.1856 88.7653C16.5517 90.1907 18.6273 90.5378 20.353 89.6262C20.7626 89.411 21.2265 89.39 21.6231 89.57C21.8091 89.6546 21.9977 89.7338 22.1908 89.8123C22.5959 89.9775 22.9108 90.3355 23.056 90.7931C23.6567 92.7112 25.3611 94 27.2942 94H28.7399C30.6737 94 32.3774 92.7099 32.9801 90.7931C33.1253 90.3335 33.4389 89.9775 33.8466 89.8123C34.0384 89.7338 34.227 89.6546 34.4143 89.568C34.8109 89.3907 35.271 89.4103 35.6818 89.6255C37.4063 90.5352 39.4839 90.188 40.8512 88.7625L41.8758 87.6938C43.2406 86.2656 43.5729 84.0956 42.7001 82.2967C42.6347 82.16 42.6204 82.0145 42.5925 81.8723H77.6369L88.1365 77.7592C89.5116 77.2177 90.4364 75.8248 90.4364 74.2903C90.4364 72.7558 89.5116 71.3629 88.1358 70.8214L88.1363 70.8214ZM46.8276 72.7742C46.6332 71.5416 45.9741 70.456 45.013 69.7419H75.9199V72.7742H46.8276ZM46.8276 75.8064H75.9212V78.8387H45.0143C45.9767 78.1246 46.6357 77.0389 46.8289 75.8064H46.8276ZM73.018 51.5484C69.816 51.5484 67.2116 48.8282 67.2116 45.4839H78.8245C78.8245 48.8282 76.22 51.5484 73.018 51.5484ZM72.0524 28.8064H73.983L73.1107 42.4516H72.9234L72.0524 28.8064ZM87.5341 24.2581C87.5341 28.8458 85.5685 33.1382 82.143 36.0338C80.2178 37.6609 79.0538 39.9697 78.8632 42.4516H76.0209L76.8919 28.8064H78.8242C81.2253 28.8064 83.1791 26.7658 83.1791 24.2581C83.1791 21.7503 81.2253 19.7097 78.8242 19.7097H78.637C76.352 19.7097 74.4416 21.5744 74.2924 23.9562L74.1764 25.7742H71.8596L71.7436 23.9576C71.5939 21.5744 69.6835 19.7097 67.3986 19.7097H67.2113C64.8103 19.7097 62.8565 21.7503 62.8565 24.2581C62.8565 26.7658 64.8103 28.8064 67.2113 28.8064H69.1432L70.0142 42.4516H67.1705C66.9748 39.9804 65.7889 37.6528 63.8305 35.979C59.8067 32.5406 57.8802 27.2525 58.6818 21.835C59.6545 15.2521 64.9775 9.9361 71.3413 9.19502C71.909 9.12869 72.4761 9.09687 73.038 9.09687C76.6178 9.09687 79.9954 10.4357 82.6913 12.9543C85.7689 15.8288 87.5341 19.9493 87.5341 24.2581ZM77.0869 25.7742L77.19 24.1565C77.2392 23.3633 77.8763 22.7419 78.6371 22.7419H78.8244C79.6253 22.7419 80.276 23.4215 80.276 24.2581C80.276 25.0946 79.6253 25.7742 78.8244 25.7742H77.0869ZM68.9488 25.7742H67.2113C66.4104 25.7742 65.7597 25.0946 65.7597 24.2581C65.7597 23.4215 66.4104 22.7419 67.2113 22.7419H67.3986C68.1594 22.7419 68.7965 23.3633 68.8457 24.1579L68.9488 25.7742ZM38.1796 24.2581H33.8248C32.3382 24.2581 31.0246 25.0432 30.2392 26.2337C29.0144 25.0174 27.3677 24.2581 25.5492 24.2581H25.1526C23.9162 24.2581 22.7023 24.608 21.6409 25.274L14.9537 29.4644V32.5677L21.2844 37.856C22.4891 38.8645 24.0043 39.4195 25.5491 39.4195C27.3682 39.4195 29.0143 38.66 30.2391 37.4438C31.0245 38.6344 32.338 39.4195 33.8247 39.4195H38.1795V42.4517H9.14724V21.2259H38.1795L38.1796 24.2581ZM25.5492 36.3871C24.6621 36.3871 23.791 36.069 23.0989 35.4882L17.9048 31.1504L23.1333 27.8738C23.7444 27.4921 24.4416 27.2904 25.1512 27.2904H25.5478C27.7103 27.2904 29.4699 29.1279 29.4699 31.3853V32.2923C29.4699 34.5495 27.7106 36.3871 25.5492 36.3871ZM33.8248 36.3871C33.0238 36.3871 32.3731 35.7075 32.3731 34.871V28.8064C32.3731 27.9699 33.0238 27.2903 33.8248 27.2903H55.876C56.4177 30.6698 57.844 33.8111 60.0694 36.3871H33.8248ZM4.79251 3.03226H71.5667C72.3677 3.03226 73.0183 3.71181 73.0183 4.54839V6.07534C72.3534 6.07399 71.6859 6.10445 71.0177 6.18161C66.7503 6.67841 62.8731 8.89366 60.0769 12.129H38.1799V6.06448H29.4702V12.129H26.567V6.06448H17.8573V12.129H14.9541V6.06448H6.24445V12.129H3.34123V4.54835C3.34123 3.71177 3.99186 3.03222 4.79284 3.03222L4.79251 3.03226ZM35.2764 12.129H32.3731V9.09677H35.2764V12.129ZM23.6635 12.129H20.7602V9.09677H23.6635V12.129ZM12.0506 12.129H9.14734V9.09677H12.0506V12.129ZM3.34089 71.258V15.1613H57.9597C56.8943 17.0565 56.1426 19.15 55.8139 21.3746C55.6701 22.3432 55.6241 23.3051 55.6241 24.2581H41.0834V18.1935H6.2447V45.4839H41.0834V39.4193H63.0152C63.8453 40.5199 64.31 41.8282 64.31 43.1731V45.4839C64.31 50.5006 68.2164 54.5806 73.0196 54.5806V66.7097H42.5939C42.6217 66.5668 42.636 66.4213 42.7014 66.2866C43.5737 64.4855 43.2412 62.3177 41.8752 60.8875L40.8519 59.8187C39.4871 58.3906 37.4089 58.0399 35.6845 58.9558C35.2769 59.1723 34.8122 59.194 34.4143 59.0119C34.2284 58.9273 34.0398 58.8481 33.8467 58.7696C33.4416 58.6045 33.1267 58.2464 32.9815 57.7889C32.3801 55.8694 30.6759 54.5806 28.7427 54.5806H27.2969C25.3632 54.5806 23.6594 55.8706 23.0567 57.7875C22.9115 58.2471 22.5979 58.6031 22.1902 58.7682C21.9984 58.8468 21.8098 58.926 21.6226 59.0126C21.226 59.1899 20.7658 59.1703 20.355 58.9551C18.6305 58.0454 16.5529 58.3926 15.1856 59.818L14.161 60.8868C12.7963 62.3149 12.4639 64.4849 13.3367 66.2839C13.5441 66.713 13.5629 67.1962 13.3905 67.6105C13.3095 67.8047 13.2337 68.0017 13.1585 68.2034C13.0004 68.6264 12.6576 68.9553 12.2195 69.107C10.6175 69.6552 9.47504 71.0793 9.20927 72.7741H4.79354C3.99257 72.7741 3.34193 72.0945 3.34193 71.2579L3.34089 71.258ZM40.1737 79.2765C40.1128 79.4403 40.0473 79.6028 39.9819 79.7618C39.4654 81.0039 39.5114 82.4259 40.1082 83.6611C40.4128 84.2906 40.2968 85.0487 39.8205 85.5476L38.7973 86.615C38.3196 87.1138 37.5951 87.2349 36.9898 86.9168C35.8097 86.2934 34.4469 86.2454 33.2591 86.7835C33.1055 86.8532 32.9499 86.9216 32.7944 86.9852C31.5767 87.4793 30.6404 88.5243 30.2236 89.8476C30.0124 90.5177 29.4168 90.9678 28.7409 90.9678H27.2952C26.6186 90.9678 26.0237 90.5177 25.8131 89.8456C25.3964 88.5237 24.4587 87.4808 23.2423 86.9859C23.0855 86.9223 22.93 86.8539 22.7777 86.7856C22.2288 86.5372 21.6443 86.4127 21.0558 86.4127C20.3689 86.4127 19.6813 86.5812 19.0423 86.9176C18.4396 87.2357 17.7138 87.1145 17.2362 86.6171L16.2142 85.5483C15.7366 85.0495 15.6206 84.2914 15.9252 83.6605C16.522 82.4266 16.568 81.0046 16.0528 79.764C15.9861 79.6036 15.9206 79.4411 15.8597 79.2787C15.3866 78.0069 14.3861 77.0289 13.1191 76.5937C12.4807 76.3737 12.0498 75.7517 12.0498 75.0457V73.5357C12.0498 72.8291 12.4808 72.2077 13.1243 71.9878C14.3899 71.5525 15.3884 70.5731 15.8622 69.3027C15.9232 69.1389 15.9886 68.9765 16.0541 68.8174C16.5705 67.5754 16.5245 66.1534 15.9277 64.9181C15.6231 64.2887 15.7391 63.5306 16.2154 63.0317L17.2387 61.963C17.7163 61.4655 18.4421 61.3457 19.0462 61.6624C20.2275 62.2858 21.5924 62.3359 22.7769 61.7958C22.9305 61.7261 23.086 61.6577 23.2415 61.5941C24.4592 61.1 25.3956 60.0549 25.8123 58.7316C26.0229 58.0629 26.6185 57.6128 27.2944 57.6128H28.7401C29.4167 57.6128 30.0116 58.0629 30.2222 58.735C30.6389 60.0569 31.5766 61.0998 32.793 61.5947C32.9498 61.6583 33.1053 61.7267 33.2576 61.795C34.4481 62.3345 35.8083 62.2864 36.991 61.6631C37.5963 61.3429 38.3208 61.4674 38.7971 61.9636L39.8191 63.0323C40.2967 63.5312 40.4127 64.2892 40.1081 64.9201C39.5113 66.154 39.4653 67.576 39.9805 68.8167C40.0472 68.9771 40.1127 69.1395 40.1736 69.302C40.6467 70.5737 41.6472 71.5517 42.9142 71.987C43.5545 72.2069 43.9854 72.829 43.9854 73.5349V75.0449C43.9854 75.7516 43.5545 76.3729 42.911 76.5929C41.6454 77.0281 40.6468 78.0061 40.1737 79.2765ZM87.1163 74.9196L78.8247 78.1671V70.4139L87.1163 73.6599C87.3658 73.7581 87.5343 74.0112 87.5343 74.2901C87.5343 74.5689 87.3658 74.8222 87.1163 74.9196Z" fill="white" stroke="black" stroke-width="2" mask="url(#path-4-inside-1_2554_818)"/>
<path d="M44.4856 42.9517H60.9049V44.9839H44.4856V42.9517Z" fill="#6D95FC" stroke="black"/>
<path d="M44.4856 49.0161H60.9049V51.0484H44.4856V49.0161Z" fill="#6D95FC" stroke="black"/>
<path d="M44.4856 55.0806H60.9049V57.1128H44.4856V55.0806Z" fill="#6D95FC" stroke="black"/>
<path d="M53.1953 61.1453H55.0985V63.1775H53.1953V61.1453Z" fill="#6D95FC" stroke="black"/>
<path d="M59.0017 61.1453H60.9049V63.1775H59.0017V61.1453Z" fill="#6D95FC" stroke="black"/>
<path d="M47.3889 61.1453H49.2921V63.1775H47.3889V61.1453Z" fill="#6D95FC" stroke="black"/>
</g>
<rect width="90" height="94" stroke="black"/>
<defs>
<clipPath id="clip0_2554_818">
<rect width="90" height="94" fill="white"/>
</clipPath>
</defs>
</svg>
